<svg width="22" height="17" viewBox="0 0 22 17" fill="none" xmlns="http://www.w3.org/2000/svg">
<path d="M19.7854 6.43645H17.8351V2.02041C17.8351 1.37491 17.3102 0.85 16.6647 0.85H5.33531C4.68981 0.85 4.1649 1.37491 4.1649 2.02041V6.43645H2.21461C1.46206 6.43645 0.85 7.04846 0.85 7.80106V16.1188C0.85 16.3143 1.00848 16.4729 1.20408 16.4729C1.39968 16.4729 1.55816 16.3143 1.55816 16.1188V12.8542H20.4418V16.1188C20.4418 16.3143 20.6003 16.4729 20.7959 16.4729C20.9915 16.4729 21.15 16.3143 21.15 16.1188V7.80106C21.15 7.04846 20.5379 6.43645 19.7854 6.43645ZM4.87306 2.02037C4.87306 1.76562 5.08056 1.55812 5.33531 1.55812H16.6647C16.9194 1.55812 17.1269 1.76562 17.1269 2.02037V6.43641H16.5023V5.2802C16.5023 4.5276 15.8903 3.91559 15.1377 3.91559H12.6776C11.9251 3.91559 11.313 4.5276 11.313 5.2802V6.43641H10.687V5.2802C10.687 4.5276 10.0749 3.91559 9.32237 3.91559H6.86229C6.10973 3.91559 5.49767 4.5276 5.49767 5.2802V6.43641H4.87306V2.02037ZM15.7942 5.2802V6.43641H12.0212V5.2802C12.0212 4.91835 12.3158 4.62375 12.6776 4.62375H15.1377C15.4996 4.62375 15.7942 4.91835 15.7942 5.2802ZM9.97882 5.2802V6.43641H6.20584V5.2802C6.20584 4.91835 6.50043 4.62375 6.86229 4.62375H9.32237C9.68422 4.62375 9.97882 4.91835 9.97882 5.2802ZM20.4418 12.146H1.55816V11.3035H20.4418V12.146ZM20.4418 10.5953H1.55816V7.80102C1.55816 7.43917 1.85276 7.14457 2.21461 7.14457H19.7854C20.1472 7.14457 20.4418 7.43917 20.4418 7.80102V10.5953Z" fill="black" stroke="black" stroke-width="0.3"/>
</svg>
