<svg width="70" height="70" viewBox="0 0 70 70" fill="none" xmlns="http://www.w3.org/2000/svg">
<rect width="70" height="70" fill="#F2F2F2"/>
<path d="M16.604 48.068H17.54V52.844C17.54 53.384 17.396 53.648 16.964 53.78C16.532 53.912 15.836 53.924 14.78 53.924C14.72 53.672 14.564 53.3 14.432 53.048C15.272 53.084 16.088 53.072 16.328 53.06C16.544 53.048 16.604 53 16.604 52.82V48.068ZM12.764 43.58H20.336V44.408H12.764V43.58ZM20 43.58H20.24L20.444 43.52L21.092 44.024C20.096 45.032 18.608 46.124 17.372 46.808C17.252 46.616 16.976 46.34 16.808 46.196C17.924 45.608 19.328 44.552 20 43.772V43.58ZM11.636 47.408H21.68V48.272H11.636V47.408ZM14.408 45.8L14.876 45.14C16.268 45.704 18.236 46.568 19.268 47.096L18.776 47.864C17.792 47.324 15.836 46.412 14.408 45.8ZM21.368 47.408H21.548L21.716 47.348L22.436 47.672C21.788 48.728 21.02 49.892 20.288 50.612L19.532 50.168C20.144 49.52 20.888 48.476 21.368 47.576V47.408ZM29.132 48.08L29.864 47.708C30.548 48.548 31.268 49.7 31.556 50.468L30.764 50.888C30.5 50.132 29.804 48.944 29.132 48.08ZM29.204 45.092H33.764V45.944H29.204V45.092ZM33.404 45.092H34.268C34.268 45.092 34.268 45.44 34.268 45.56C34.064 50.972 33.872 52.844 33.38 53.444C33.104 53.792 32.84 53.888 32.384 53.936C31.976 53.972 31.244 53.96 30.524 53.912C30.5 53.648 30.392 53.264 30.236 53.012C31.028 53.084 31.772 53.084 32.072 53.084C32.312 53.084 32.468 53.06 32.588 52.904C33.008 52.472 33.212 50.48 33.404 45.296V45.092ZM29.648 42.92L30.572 43.124C30.044 44.864 29.216 46.544 28.304 47.636C28.124 47.492 27.728 47.228 27.5 47.108C28.436 46.1 29.204 44.516 29.648 42.92ZM25.34 42.932L26.144 43.232C25.688 44.12 25.112 45.188 24.644 45.836L24.02 45.572C24.476 44.876 25.028 43.724 25.34 42.932ZM26.792 44.3L27.572 44.636C26.732 45.98 25.556 47.708 24.644 48.74L24.068 48.44C24.992 47.372 26.132 45.572 26.792 44.3ZM23.444 45.452L23.9 44.852C24.572 45.416 25.328 46.208 25.652 46.736L25.172 47.42C24.848 46.856 24.092 46.028 23.444 45.452ZM26.408 47.084L27.08 46.796C27.584 47.564 28.1 48.596 28.28 49.256L27.56 49.592C27.38 48.92 26.9 47.876 26.408 47.084ZM23.42 48.296C24.5 48.26 26.096 48.2 27.68 48.128V48.86C26.156 48.956 24.632 49.04 23.492 49.1L23.42 48.296ZM26.708 49.952L27.392 49.736C27.74 50.468 28.076 51.416 28.208 52.04L27.476 52.292C27.368 51.668 27.044 50.696 26.708 49.952ZM24.08 49.784L24.86 49.928C24.692 51.056 24.392 52.22 24.008 52.988C23.852 52.892 23.492 52.724 23.3 52.64C23.696 51.908 23.936 50.84 24.08 49.784ZM25.46 48.644H26.276V53.996H25.46V48.644ZM41.252 48.728H45.944V49.424H41.252V48.728ZM41.252 50.696H45.944V51.404H41.252V50.696ZM41.264 52.676H46.508V53.444H41.264V52.676ZM39.896 44.156H46.448V46.208H45.644V44.936H40.676V46.208H39.896V44.156ZM43.208 47.3H44.048V53.084H43.208V47.3ZM41.576 46.724H46.148V47.504H41.576V53.96H40.724V47.54L41.504 46.724H41.576ZM42.704 42.92L43.568 43.088C42.884 45.524 41.696 47.516 40.076 48.8C39.944 48.632 39.62 48.296 39.428 48.14C41.012 46.988 42.116 45.128 42.704 42.92ZM43.952 45.296L44.804 45.512C44.516 46.136 44.192 46.808 43.94 47.264L43.244 47.06C43.496 46.58 43.808 45.824 43.952 45.296ZM35.624 43.736H39.86V44.564H35.624V43.736ZM36.836 47.24H39.548V52.496H36.836V51.704H38.756V48.044H36.836V47.24ZM37.04 44.132L37.904 44.264C37.532 46.784 36.908 49.148 35.792 50.72C35.696 50.516 35.444 50.072 35.276 49.868C36.236 48.512 36.752 46.388 37.04 44.132ZM36.464 47.24H37.22V53.432H36.464V47.24ZM54.44 43.76H55.268C55.016 45.704 54.428 47.648 52.328 48.692C52.232 48.5 51.98 48.2 51.788 48.056C53.744 47.156 54.236 45.404 54.44 43.76ZM52.232 45.476L52.676 44.852C53.924 45.272 55.424 46.016 56.216 46.568L55.784 47.276C54.98 46.688 53.48 45.896 52.232 45.476ZM57.272 43.436H58.124C58.124 43.436 58.124 43.7 58.112 43.82C57.992 46.652 57.872 47.72 57.572 48.068C57.38 48.296 57.176 48.38 56.852 48.416C56.564 48.44 56 48.428 55.436 48.404C55.424 48.152 55.34 47.804 55.208 47.588C55.76 47.636 56.264 47.636 56.456 47.636C56.648 47.648 56.756 47.612 56.84 47.516C57.056 47.264 57.176 46.304 57.272 43.592V43.436ZM53.588 49.832H54.428V52.724C54.428 53.024 54.476 53.072 54.812 53.072C54.968 53.072 55.748 53.072 55.94 53.072C56.264 53.072 56.312 52.904 56.348 51.704C56.516 51.848 56.876 51.968 57.116 52.04C57.02 53.504 56.792 53.876 56.036 53.876C55.844 53.876 54.896 53.876 54.704 53.876C53.792 53.876 53.588 53.624 53.588 52.736V49.832ZM52.448 50.24L53.18 50.42C53.048 51.488 52.796 52.652 52.16 53.324L51.488 52.88C52.064 52.292 52.328 51.236 52.448 50.24ZM53.792 48.728L54.32 48.2C55.112 48.62 56.036 49.268 56.48 49.772L55.916 50.384C55.484 49.88 54.572 49.184 53.792 48.728ZM56.588 50.324L57.332 50.024C57.98 50.9 58.52 52.076 58.7 52.892L57.896 53.228C57.74 52.412 57.212 51.2 56.588 50.324ZM52.34 43.436H57.644V44.216H52.34V43.436ZM47.996 46.556H51.404V47.276H47.996V46.556ZM48.044 43.352H51.356V44.072H48.044V43.352ZM47.996 48.164H51.404V48.884H47.996V48.164ZM47.456 44.924H51.74V45.668H47.456V44.924ZM48.392 49.784H51.404V53.288H48.392V52.532H50.624V50.528H48.392V49.784ZM47.984 49.784H48.752V53.84H47.984V49.784Z" fill="black"/>
<path d="M48 26.5V36.625H46.3125V34.9375H22.6875V36.625H21V26.5H22.6875V27.9897L26.0625 21.2397V13H27.75V14.6875H41.25V13H42.9375V18.0625C43.1748 18.0625 43.3945 18.1064 43.5967 18.1943C43.7988 18.2822 43.9746 18.4009 44.124 18.5503C44.2734 18.6997 44.3965 18.8799 44.4932 19.0908C44.5898 19.3018 44.6338 19.5215 44.625 19.75V23.125C44.625 23.4678 44.5327 23.7754 44.3481 24.0479L46.3125 27.9897V26.5H48ZM36.1875 19.75V23.125H42.9375V19.75H36.1875ZM27.75 16.375V21.4375H34.5V19.75C34.5 19.5127 34.5439 19.293 34.6318 19.0908C34.7197 18.8887 34.8384 18.7129 34.9878 18.5635C35.1372 18.4141 35.3174 18.291 35.5283 18.1943C35.7393 18.0977 35.959 18.0537 36.1875 18.0625H41.25V16.375H27.75ZM24.4805 28.1875H44.5195L42.832 24.8125H36.1875C35.9502 24.8125 35.7305 24.7686 35.5283 24.6807C35.3262 24.5928 35.1504 24.4741 35.001 24.3247C34.8516 24.1753 34.7285 23.9951 34.6318 23.7842C34.5352 23.5732 34.4912 23.3535 34.5 23.125H26.9985L24.4805 28.1875ZM46.3125 33.25V29.875H22.6875V33.25H46.3125Z" fill="black"/>
</svg>
