<svg width="70" height="70" viewBox="0 0 70 70" fill="none" xmlns="http://www.w3.org/2000/svg">
<rect width="70" height="70" fill="#F2F2F2"/>
<path d="M24.8039 53H23.7239V49.004H19.3319V53H18.2519V44.432H19.3319V48.056H23.7239V44.432H24.8039V53ZM34.6224 48.704C34.6224 49.368 34.5384 49.972 34.3704 50.516C34.2024 51.052 33.9504 51.516 33.6144 51.908C33.2864 52.3 32.8744 52.6 32.3784 52.808C31.8904 53.016 31.3224 53.12 30.6744 53.12C30.0024 53.12 29.4184 53.016 28.9224 52.808C28.4264 52.592 28.0144 52.292 27.6864 51.908C27.3584 51.516 27.1144 51.048 26.9544 50.504C26.7944 49.96 26.7144 49.356 26.7144 48.692C26.7144 47.812 26.8584 47.044 27.1464 46.388C27.4344 45.732 27.8704 45.22 28.4544 44.852C29.0464 44.484 29.7904 44.3 30.6864 44.3C31.5424 44.3 32.2624 44.484 32.8464 44.852C33.4304 45.212 33.8704 45.724 34.1664 46.388C34.4704 47.044 34.6224 47.816 34.6224 48.704ZM27.8544 48.704C27.8544 49.424 27.9544 50.044 28.1544 50.564C28.3544 51.084 28.6624 51.484 29.0784 51.764C29.5024 52.044 30.0344 52.184 30.6744 52.184C31.3224 52.184 31.8504 52.044 32.2584 51.764C32.6744 51.484 32.9824 51.084 33.1824 50.564C33.3824 50.044 33.4824 49.424 33.4824 48.704C33.4824 47.624 33.2584 46.78 32.8104 46.172C32.3624 45.556 31.6544 45.248 30.6864 45.248C30.0384 45.248 29.5024 45.388 29.0784 45.668C28.6624 45.94 28.3544 46.336 28.1544 46.856C27.9544 47.368 27.8544 47.984 27.8544 48.704ZM40.3014 53L37.4814 45.488H37.4334C37.4494 45.648 37.4614 45.852 37.4694 46.1C37.4854 46.348 37.4974 46.62 37.5054 46.916C37.5134 47.204 37.5174 47.5 37.5174 47.804V53H36.5214V44.432H38.1174L40.7574 51.452H40.8054L43.4934 44.432H45.0774V53H44.0094V47.732C44.0094 47.452 44.0134 47.176 44.0214 46.904C44.0294 46.624 44.0414 46.364 44.0574 46.124C44.0734 45.876 44.0854 45.668 44.0934 45.5H44.0454L41.1894 53H40.3014ZM52.1961 53H47.4081V44.432H52.1961V45.38H48.4881V48.056H51.9801V48.992H48.4881V52.052H52.1961V53Z" fill="black"/>
<g clip-path="url(#clip0_1493_5205)">
<path fill-rule="evenodd" clip-rule="evenodd" d="M43.5397 25.2447C43.0769 25.2447 42.7705 25.5511 42.7705 26.0549V37.2775H37.227V32.7286C37.227 32.3267 36.9206 31.9183 36.5395 31.9183H32.5425C32.0792 31.9183 31.6911 32.3267 31.6911 32.7286V37.2775H26.2297V26.4568C26.2297 25.953 25.8486 25.6464 25.46 25.6464C24.9972 25.6464 24.6908 25.953 24.6908 26.4568V38.1897C24.6908 38.5914 24.9972 39 25.46 39H32.5423C32.9235 39 33.2303 38.5914 33.2303 38.1897V33.5388H35.695V38.1897C35.695 38.5914 36.0765 39 36.5393 39H43.5395C43.9211 39 44.3092 38.5914 44.3092 38.1897V26.0549C44.3092 25.5511 43.9211 25.2447 43.5395 25.2447H43.5397ZM25.4665 13.403C25.8554 13.403 26.1751 13.825 26.1751 14.3357V20.5121L33.9245 12.2997C34.0744 12.0956 34.3061 12 34.5373 12C34.6942 12 34.8511 12.0955 35.0006 12.2997C39.5356 17.0529 42.6888 20.3895 47.7687 25.8508C48.0751 26.1572 48.0751 26.7632 47.7687 27.063C47.6191 27.1651 47.4623 27.2671 47.2307 27.2671C46.9992 27.2671 46.7679 27.1651 46.6931 27.063L34.5372 14.0226L22.3076 26.8587C22.0008 27.2671 21.5379 27.2671 21.2315 26.8587C21.0746 26.7632 20.9998 26.559 20.9998 26.3545C20.9998 26.1501 21.0745 25.9528 21.2315 25.7487L24.7522 22.0169V14.3357C24.7522 13.8248 25.0721 13.403 25.4665 13.403Z" fill="black"/>
</g>
<defs>
<clipPath id="clip0_1493_5205">
<rect width="26.9984" height="27" fill="white" transform="translate(21 12)"/>
</clipPath>
</defs>
</svg>
