<svg width="70" height="70" viewBox="0 0 70 70" fill="none" xmlns="http://www.w3.org/2000/svg">
<rect width="70" height="70" fill="#F2F2F2"/>
<path d="M16.508 42.92H17.432V44.72H16.508V42.92ZM16.508 49.916H17.432V53.24H16.508V49.916ZM15.176 44.876H16.1C15.872 47.084 15.188 48.368 12.284 49.016C12.2 48.8 11.984 48.44 11.792 48.26C14.432 47.744 14.984 46.712 15.176 44.876ZM17.84 44.84H18.728V47.384C18.728 47.672 18.812 47.72 19.256 47.72C19.46 47.72 20.528 47.72 20.804 47.72C21.152 47.72 21.212 47.6 21.26 46.76C21.44 46.892 21.8 47.024 22.052 47.084C21.944 48.224 21.692 48.512 20.888 48.512C20.66 48.512 19.376 48.512 19.16 48.512C18.104 48.512 17.84 48.272 17.84 47.384V44.84ZM11.936 44.168H22.088V46.328H21.176V44.996H12.824V46.592H11.936V44.168ZM12.968 49.532H21.236V50.348H12.968V49.532ZM11.708 52.784H22.28V53.6H11.708V52.784ZM28.508 49.052H29.432V53.12H28.508V49.052ZM25.064 45.872H33.008V46.664H25.064V45.872ZM23.696 52.82H34.34V53.624H23.696V52.82ZM24.8 50.516H33.284V51.308H24.8V50.516ZM27.464 46.292L28.388 46.556C27.896 47.396 27.26 48.38 26.756 49.004L26.036 48.752C26.516 48.092 27.128 47.024 27.464 46.292ZM24.584 48.44C26.564 48.416 29.708 48.32 32.672 48.236L32.624 49.004C29.72 49.124 26.648 49.22 24.632 49.268L24.584 48.44ZM30.38 47.384L31.028 46.928C32.036 47.576 33.26 48.548 33.836 49.244L33.14 49.76C32.588 49.064 31.388 48.056 30.38 47.384ZM28.508 42.932H29.432V44.396H28.508V42.932ZM23.84 43.832H34.184V46.052H33.272V44.66H24.716V46.052H23.84V43.832ZM35.612 45.5H39.452V46.352H35.612V45.5ZM37.316 42.92H38.144V53.948H37.316V42.92ZM37.292 46.028L37.856 46.22C37.484 48.128 36.68 50.492 35.828 51.692C35.72 51.452 35.504 51.116 35.36 50.912C36.152 49.832 36.956 47.744 37.292 46.028ZM38.084 47.18C38.372 47.504 39.392 48.98 39.62 49.328L39.116 50.036C38.84 49.448 38.012 48.032 37.7 47.564L38.084 47.18ZM40.64 45.764H45.212V46.532H40.64V45.764ZM42.896 43.736C42.212 44.756 40.94 45.884 39.632 46.592C39.536 46.364 39.332 46.04 39.176 45.848C40.52 45.212 41.804 44.036 42.452 42.944H43.28C44.132 44.144 45.476 45.224 46.736 45.776C46.568 45.98 46.376 46.316 46.256 46.556C45.032 45.92 43.664 44.804 42.896 43.736ZM40.652 48.356V50H45.164V48.356H40.652ZM39.86 47.636H45.992V50.744H39.86V47.636ZM42.464 46.22H43.292V49.4C43.292 51.128 42.74 52.964 39.524 54.02C39.452 53.828 39.188 53.492 39.032 53.348C42.08 52.376 42.464 50.876 42.464 49.376V46.22ZM43.412 50.276C44.108 52.076 45.128 52.748 46.664 53.264C46.46 53.456 46.232 53.756 46.136 54.02C44.468 53.384 43.376 52.532 42.644 50.444L43.412 50.276ZM52.52 50.66H53.42V53.984H52.52V50.66ZM52.52 42.92H53.408V46.28H52.52V42.92ZM52.076 46.496L52.916 46.904C52.22 47.552 51.368 48.248 50.672 48.728L50.012 48.356C50.684 47.864 51.584 47.072 52.076 46.496ZM54.668 47.276L55.484 47.72C54.128 48.824 52.28 50.096 50.816 50.912L50.18 50.48C51.644 49.652 53.54 48.296 54.668 47.276ZM49.088 48.32L49.688 47.804C50.588 48.248 51.728 48.932 52.316 49.436L51.692 50.012C51.14 49.508 50.012 48.788 49.088 48.32ZM54.536 49.268L55.136 48.788C56.192 49.412 57.524 50.336 58.196 50.972L57.56 51.524C56.924 50.888 55.604 49.904 54.536 49.268ZM54.572 51.836L55.256 51.368C56.288 51.872 57.608 52.676 58.292 53.264L57.548 53.804C56.924 53.216 55.628 52.376 54.572 51.836ZM47.78 50.288C49.976 50.288 53.6 50.24 57.02 50.168L56.972 50.888C53.648 50.984 50.108 51.092 47.828 51.116L47.78 50.288ZM50.468 51.356L51.32 51.668C50.516 52.496 49.28 53.324 48.236 53.84C48.08 53.672 47.744 53.36 47.528 53.204C48.596 52.76 49.748 52.064 50.468 51.356ZM47.912 43.988H58.052V44.78H47.912V43.988ZM47.876 45.932H58.16V48.188H57.272V46.712H48.728V48.188H47.876V45.932Z" fill="black"/>
<path d="M46.5 35.25L39 27.75M24 21.5C24 22.6491 24.2263 23.7869 24.6661 24.8485C25.1058 25.9101 25.7503 26.8747 26.5628 27.6872C27.3753 28.4997 28.3399 29.1442 29.4015 29.5839C30.4631 30.0237 31.6009 30.25 32.75 30.25C33.8991 30.25 35.0369 30.0237 36.0985 29.5839C37.1601 29.1442 38.1247 28.4997 38.9372 27.6872C39.7497 26.8747 40.3942 25.9101 40.8339 24.8485C41.2737 23.7869 41.5 22.6491 41.5 21.5C41.5 20.3509 41.2737 19.2131 40.8339 18.1515C40.3942 17.0899 39.7497 16.1253 38.9372 15.3128C38.1247 14.5003 37.1601 13.8558 36.0985 13.4161C35.0369 12.9763 33.8991 12.75 32.75 12.75C31.6009 12.75 30.4631 12.9763 29.4015 13.4161C28.3399 13.8558 27.3753 14.5003 26.5628 15.3128C25.7503 16.1253 25.1058 17.0899 24.6661 18.1515C24.2263 19.2131 24 20.3509 24 21.5Z" stroke="black" stroke-width="2" stroke-linecap="round" stroke-linejoin="round"/>
</svg>
