<svg width="70" height="70" viewBox="0 0 70 70" fill="none" xmlns="http://www.w3.org/2000/svg">
<rect width="70" height="70" fill="#F2F2F2"/>
<path d="M21.452 45.5C21.356 45.668 21.236 45.944 21.176 46.136C20.852 47.348 20.12 48.968 19.052 50.276C17.96 51.608 16.52 52.7 14.276 53.54L13.4 52.748C15.608 52.1 17.096 51.02 18.2 49.736C19.124 48.644 19.868 47.084 20.108 45.992H15.668L16.052 45.128C16.532 45.128 19.496 45.128 19.868 45.128C20.192 45.128 20.468 45.092 20.66 45.02L21.452 45.5ZM17.432 43.688C17.24 44 17.024 44.408 16.904 44.624C16.196 45.956 14.948 47.672 13.016 48.944L12.176 48.332C14.252 47.096 15.428 45.344 15.956 44.276C16.076 44.06 16.256 43.628 16.328 43.316L17.432 43.688ZM24.212 47.804C24.584 47.84 25.208 47.876 25.892 47.876C26.768 47.876 31.58 47.876 32.468 47.876C33.068 47.876 33.488 47.828 33.764 47.804V48.98C33.512 48.968 33.008 48.932 32.48 48.932C31.568 48.932 26.78 48.932 25.892 48.932C25.232 48.932 24.596 48.956 24.212 48.98V47.804ZM44.048 44.144C44.048 44.564 44.384 44.9 44.816 44.9C45.236 44.9 45.584 44.564 45.584 44.144C45.584 43.712 45.236 43.364 44.816 43.364C44.384 43.364 44.048 43.712 44.048 44.144ZM43.508 44.144C43.508 43.412 44.084 42.824 44.816 42.824C45.536 42.824 46.136 43.412 46.136 44.144C46.136 44.864 45.536 45.452 44.816 45.452C44.084 45.452 43.508 44.864 43.508 44.144ZM41.492 43.76C41.468 43.928 41.42 44.36 41.42 44.612C41.42 45.248 41.42 46.256 41.42 46.844C41.42 47.816 41.42 51.704 41.42 52.568C41.42 53.192 41.12 53.516 40.388 53.516C39.884 53.516 39.176 53.492 38.684 53.432L38.6 52.484C39.128 52.58 39.668 52.616 39.992 52.616C40.316 52.616 40.448 52.484 40.448 52.16C40.46 51.512 40.46 47.408 40.46 46.844C40.46 46.436 40.46 45.248 40.46 44.612C40.46 44.348 40.412 43.94 40.376 43.76H41.492ZM36.104 45.776C36.44 45.824 36.74 45.848 37.112 45.848C37.82 45.848 43.88 45.848 44.6 45.848C44.876 45.848 45.272 45.824 45.572 45.788V46.784C45.26 46.76 44.9 46.748 44.612 46.748C43.892 46.748 37.856 46.748 37.124 46.748C36.752 46.748 36.416 46.76 36.104 46.796V45.776ZM38.864 48.608C38.348 49.628 37.232 51.164 36.548 51.896L35.72 51.332C36.524 50.6 37.544 49.172 38.012 48.2L38.864 48.608ZM43.868 48.2C44.516 48.968 45.464 50.468 45.944 51.344L45.068 51.836C44.588 50.888 43.688 49.4 43.052 48.644L43.868 48.2ZM49.724 44.216C50.564 44.78 52.112 46.028 52.772 46.688L52.028 47.456C51.416 46.832 49.928 45.536 49.028 44.948L49.724 44.216ZM48.692 52.256C50.78 51.944 52.34 51.212 53.48 50.504C55.34 49.34 56.792 47.564 57.488 46.076L58.064 47.108C57.248 48.596 55.856 50.228 54.044 51.368C52.832 52.124 51.32 52.868 49.316 53.24L48.692 52.256Z" fill="black"/>
<path d="M20 20.913C22.5239 20.913 24.5652 22.9543 24.5652 25.4783C24.5652 28.0022 22.5239 30.0435 20 30.0435V33.9565H50V30.0435C47.4761 30.0435 45.4348 28.0022 45.4348 25.4783C45.4348 22.9543 47.4761 20.913 50 20.913V17H20V20.913Z" stroke="black" stroke-width="1.5" stroke-linecap="round" stroke-linejoin="round"/>
<path d="M32.3914 30.0435L37.6087 20.913" stroke="black" stroke-width="1.5" stroke-linecap="round" stroke-linejoin="round"/>
<path d="M38.2608 28.1848C39.0352 28.1848 39.663 27.557 39.663 26.7826C39.663 26.0082 39.0352 25.3804 38.2608 25.3804C37.4864 25.3804 36.8586 26.0082 36.8586 26.7826C36.8586 27.557 37.4864 28.1848 38.2608 28.1848Z" stroke="black" stroke-width="1.5" stroke-linecap="round" stroke-linejoin="round"/>
<path d="M31.7391 25.5761C32.5135 25.5761 33.1413 24.9483 33.1413 24.1739C33.1413 23.3995 32.5135 22.7717 31.7391 22.7717C30.9647 22.7717 30.3369 23.3995 30.3369 24.1739C30.3369 24.9483 30.9647 25.5761 31.7391 25.5761Z" stroke="black" stroke-width="1.5" stroke-linecap="round" stroke-linejoin="round"/>
</svg>
