<svg width="85" height="89" viewBox="0 0 85 89" fill="none" xmlns="http://www.w3.org/2000/svg">
<path d="M0 20C0 8.9543 8.95431 0 20 0H85V90H0V20Z" fill="black"/>
<path d="M22.271 65.704C22.271 66.344 22.195 66.928 22.043 67.456C21.891 67.984 21.659 68.444 21.347 68.836C21.035 69.22 20.639 69.52 20.159 69.736L22.223 72.04H19.895L18.323 70.12C18.299 70.12 18.275 70.12 18.251 70.12C18.235 70.12 18.215 70.12 18.191 70.12C17.495 70.12 16.887 70.016 16.367 69.808C15.855 69.592 15.431 69.292 15.095 68.908C14.767 68.516 14.519 68.048 14.351 67.504C14.191 66.96 14.111 66.356 14.111 65.692C14.111 64.804 14.255 64.032 14.543 63.376C14.839 62.72 15.287 62.212 15.887 61.852C16.495 61.484 17.267 61.3 18.203 61.3C19.131 61.3 19.895 61.484 20.495 61.852C21.095 62.212 21.539 62.724 21.827 63.388C22.123 64.044 22.271 64.816 22.271 65.704ZM16.019 65.704C16.019 66.304 16.095 66.82 16.247 67.252C16.399 67.684 16.635 68.016 16.955 68.248C17.275 68.48 17.687 68.596 18.191 68.596C18.711 68.596 19.127 68.48 19.439 68.248C19.759 68.016 19.991 67.684 20.135 67.252C20.287 66.82 20.363 66.304 20.363 65.704C20.363 64.8 20.195 64.092 19.859 63.58C19.523 63.068 18.971 62.812 18.203 62.812C17.691 62.812 17.275 62.928 16.955 63.16C16.635 63.392 16.399 63.724 16.247 64.156C16.095 64.588 16.019 65.104 16.019 65.704ZM26.5418 61.432C27.3178 61.432 27.9578 61.528 28.4618 61.72C28.9658 61.904 29.3418 62.188 29.5898 62.572C29.8378 62.948 29.9618 63.424 29.9618 64C29.9618 64.392 29.8858 64.736 29.7338 65.032C29.5898 65.32 29.3938 65.568 29.1458 65.776C28.9058 65.976 28.6458 66.14 28.3658 66.268L30.8858 70H28.8698L26.8298 66.712H25.8578V70H24.0458V61.432H26.5418ZM26.4098 62.92H25.8578V65.236H26.4458C26.8458 65.236 27.1698 65.192 27.4178 65.104C27.6658 65.016 27.8458 64.884 27.9578 64.708C28.0698 64.524 28.1258 64.304 28.1258 64.048C28.1258 63.776 28.0618 63.56 27.9338 63.4C27.8138 63.232 27.6258 63.112 27.3698 63.04C27.1218 62.96 26.8018 62.92 26.4098 62.92ZM39.2177 63.23C39.1377 63.34 38.9577 63.64 38.8677 63.85C38.4577 64.8 37.7177 66.16 36.8577 67.16C35.7377 68.45 34.2277 69.69 32.6777 70.42L31.6377 69.34C33.2577 68.74 34.7977 67.52 35.7377 66.48C36.3977 65.73 37.0077 64.74 37.2377 64.03C36.8177 64.03 34.2677 64.03 33.8377 64.03C33.4277 64.03 32.8777 64.08 32.6577 64.1V62.67C32.9277 62.71 33.5477 62.74 33.8377 62.74C34.3677 62.74 36.9277 62.74 37.3677 62.74C37.8077 62.74 38.1977 62.69 38.4077 62.62L39.2177 63.23ZM36.9877 66.33C38.0177 67.17 39.4377 68.66 40.0877 69.46L38.9477 70.45C38.2077 69.42 37.1177 68.23 36.0477 67.26L36.9877 66.33ZM45.1677 65.32C46.3977 66.03 48.2477 67.31 49.1777 68.05L48.2177 69.19C47.3477 68.37 45.4477 66.97 44.2777 66.23L45.1677 65.32ZM49.8777 63.62C49.7577 63.81 49.6277 64.09 49.5377 64.34C49.2377 65.26 48.6277 66.54 47.7277 67.65C46.7877 68.82 45.5077 69.94 43.5977 70.66L42.4377 69.66C44.5277 69.01 45.7177 67.96 46.5777 66.96C47.2477 66.17 47.8677 65.02 48.0577 64.24H44.6777L45.1377 63.11H47.9877C48.2977 63.11 48.6277 63.06 48.8577 62.99L49.8777 63.62ZM46.5677 62.08C46.3277 62.43 46.0677 62.89 45.9477 63.1C45.2777 64.31 43.9977 65.84 42.5577 66.83L41.4877 66C43.2377 64.92 44.1577 63.55 44.6677 62.68C44.8177 62.44 45.0277 61.98 45.1177 61.63L46.5677 62.08ZM53.2977 62.4C53.9877 62.87 55.2877 63.91 55.8777 64.52L54.8577 65.56C54.3377 65 53.0777 63.91 52.3477 63.41L53.2977 62.4ZM52.0377 69.06C53.6077 68.84 54.8977 68.33 55.8677 67.76C57.5777 66.74 58.8777 65.22 59.5177 63.87L60.2877 65.27C59.5377 66.63 58.2077 68.01 56.5977 68.98C55.5777 69.59 54.2877 70.14 52.8877 70.38L52.0377 69.06ZM68.615 62.67C68.615 62.99 68.875 63.25 69.195 63.25C69.515 63.25 69.775 62.99 69.775 62.67C69.775 62.35 69.515 62.09 69.195 62.09C68.875 62.09 68.615 62.35 68.615 62.67ZM67.995 62.67C67.995 62.01 68.535 61.47 69.195 61.47C69.855 61.47 70.395 62.01 70.395 62.67C70.395 63.33 69.855 63.87 69.195 63.87C68.535 63.87 67.995 63.33 67.995 62.67ZM69.215 63.46C69.115 63.65 69.045 63.94 68.995 64.15C68.765 65.13 68.325 66.69 67.485 67.8C66.585 69 65.255 69.99 63.465 70.56L62.375 69.36C64.365 68.9 65.495 68.03 66.295 67.02C66.965 66.19 67.345 65.05 67.475 64.19C66.865 64.19 63.565 64.19 62.815 64.19C62.355 64.19 61.885 64.22 61.625 64.24V62.82C61.925 62.86 62.485 62.91 62.815 62.91C63.565 62.91 66.885 62.91 67.445 62.91C67.645 62.91 67.965 62.9 68.225 62.83L69.215 63.46Z" fill="white"/>
<path d="M38.739 21H29V30.739" stroke="white" stroke-width="1.5" stroke-linecap="round" stroke-linejoin="round"/>
<path d="M29 39.261V49H38.739" stroke="white" stroke-width="1.5" stroke-linecap="round" stroke-linejoin="round"/>
<path d="M47.2607 21H56.9998V30.739" stroke="white" stroke-width="1.5" stroke-linecap="round" stroke-linejoin="round"/>
<path d="M56.9998 39.261V49H47.2607" stroke="white" stroke-width="1.5" stroke-linecap="round" stroke-linejoin="round"/>
<line x1="32.1846" y1="34.8586" x2="53.8148" y2="34.8586" stroke="white" stroke-width="1.5" stroke-linecap="round"/>
</svg>
