<svg width="21" height="20" viewBox="0 0 21 20" fill="none" xmlns="http://www.w3.org/2000/svg">
<g clip-path="url(#clip0_1663_578)">
<path d="M18.3727 1.3676H16.6175V0.697645C16.6175 0.312513 16.3049 0 15.9198 0C15.5347 0 15.2222 0.312513 15.2222 0.697645V1.3676H11.1632V0.697645C11.1632 0.312513 10.8507 0 10.4655 0C10.0804 0 9.76788 0.312513 9.76788 0.697645V1.3676H5.70803V0.697645C5.70803 0.312513 5.39552 0 5.01038 0C4.62525 0 4.31274 0.312513 4.31274 0.697645V1.3676H2.5586C1.14748 1.3676 0 2.51536 0 3.92591V17.442C0 18.8528 1.14748 20 2.55831 20H18.3727C19.7836 20 20.931 18.8525 20.931 17.442V3.92591C20.931 2.51536 19.7836 1.3676 18.3727 1.3676ZM19.5355 17.442C19.5355 18.0834 19.0141 18.6047 18.3727 18.6047H2.55831C1.9169 18.6047 1.39557 18.0834 1.39557 17.442V7.05048H19.5358V17.442H19.5355ZM19.5355 5.65519H1.39529V3.92591C1.39529 3.2845 1.91662 2.76317 2.55803 2.76317H4.31217V3.43312C4.31217 3.81826 4.62469 4.13077 5.00982 4.13077C5.39495 4.13077 5.70746 3.81826 5.70746 3.43312V2.76317H9.76731V3.43312C9.76731 3.81826 10.0798 4.13077 10.465 4.13077C10.8501 4.13077 11.1626 3.81826 11.1626 3.43312V2.76317H15.2216V3.43312C15.2216 3.81826 15.5341 4.13077 15.9192 4.13077C16.3044 4.13077 16.6169 3.81826 16.6169 3.43312V2.76317H18.3722C19.0136 2.76317 19.5349 3.2845 19.5349 3.92591V5.65519H19.5355Z" fill="black"/>
<path d="M4.21461 10.2626H6.24991C6.62684 10.2626 6.93229 9.95715 6.93229 9.58021C6.93229 9.20328 6.62684 8.89783 6.24991 8.89783H4.21461C3.83768 8.89783 3.53223 9.20328 3.53223 9.58021C3.53223 9.95715 3.83796 10.2626 4.21461 10.2626Z" fill="black"/>
<path d="M14.6809 10.2626H16.7162C17.0932 10.2626 17.3986 9.95715 17.3986 9.58021C17.3986 9.20328 17.0932 8.89783 16.7162 8.89783H14.6809C14.304 8.89783 13.9985 9.20328 13.9985 9.58021C13.9985 9.95715 14.304 10.2626 14.6809 10.2626Z" fill="black"/>
<path d="M9.44752 10.2626H11.4828C11.8598 10.2626 12.1652 9.95715 12.1652 9.58021C12.1652 9.20328 11.8598 8.89783 11.4828 8.89783H9.44752C9.07087 8.89783 8.76514 9.20328 8.76514 9.58021C8.76514 9.95715 9.07059 10.2626 9.44752 10.2626Z" fill="black"/>
<path d="M4.21461 13.4878H6.24991C6.62684 13.4878 6.93229 13.1824 6.93229 12.8054C6.93229 12.4285 6.62684 12.123 6.24991 12.123H4.21461C3.83768 12.123 3.53223 12.4285 3.53223 12.8054C3.53223 13.1824 3.83796 13.4878 4.21461 13.4878Z" fill="black"/>
<path d="M14.6809 13.4878H16.7162C17.0932 13.4878 17.3986 13.1824 17.3986 12.8054C17.3986 12.4285 17.0932 12.123 16.7162 12.123H14.6809C14.304 12.123 13.9985 12.4285 13.9985 12.8054C13.9985 13.1824 14.304 13.4878 14.6809 13.4878Z" fill="black"/>
<path d="M9.44752 13.4878H11.4828C11.8598 13.4878 12.1652 13.1824 12.1652 12.8054C12.1652 12.4285 11.8598 12.123 11.4828 12.123H9.44752C9.07087 12.123 8.76514 12.4285 8.76514 12.8054C8.76514 13.1824 9.07059 13.4878 9.44752 13.4878Z" fill="black"/>
<path d="M4.21461 16.7129H6.24991C6.62684 16.7129 6.93229 16.4075 6.93229 16.0305C6.93229 15.6536 6.62684 15.3481 6.24991 15.3481H4.21461C3.83768 15.3481 3.53223 15.6536 3.53223 16.0305C3.53223 16.4075 3.83796 16.7129 4.21461 16.7129Z" fill="black"/>
<path d="M14.6809 16.7129H16.7162C17.0932 16.7129 17.3986 16.4075 17.3986 16.0305C17.3986 15.6536 17.0932 15.3481 16.7162 15.3481H14.6809C14.304 15.3481 13.9985 15.6536 13.9985 16.0305C13.9985 16.4075 14.304 16.7129 14.6809 16.7129Z" fill="black"/>
<path d="M9.44752 16.7129H11.4828C11.8598 16.7129 12.1652 16.4075 12.1652 16.0305C12.1652 15.6536 11.8598 15.3481 11.4828 15.3481H9.44752C9.07087 15.3481 8.76514 15.6536 8.76514 16.0305C8.76514 16.4075 9.07059 16.7129 9.44752 16.7129Z" fill="black"/>
</g>
<defs>
<clipPath id="clip0_1663_578">
<rect width="20.931" height="20" fill="white"/>
</clipPath>
</defs>
</svg>
