<svg width="22" height="22" viewBox="0 0 22 22" fill="none" xmlns="http://www.w3.org/2000/svg">
<path d="M11.0001 0.9L10.9999 0.9C5.42545 0.907088 0.907088 5.42545 0.9 10.9999H0.899909L0.900086 11.0041C1.45627 24.3985 20.5473 24.3952 21.0999 11.0041L21.1 11.0041L21.1 10.9999C21.0929 5.42545 16.5746 0.907088 11.0001 0.9ZM11 19.8474C6.11554 19.8404 2.16072 15.8862 2.15263 11.002C2.64047 -0.737161 19.3595 -0.734342 19.8474 11.002C19.8393 15.8862 15.8845 19.8404 11 19.8474Z" fill="black" stroke="black" stroke-width="0.2"/>
<path d="M14.7691 7.28246L14.7691 7.28245L14.7678 7.28369L10.0631 11.9884L7.93381 9.85913L7.93381 9.85913L7.9332 9.85853C7.68576 9.61528 7.28913 9.6249 7.04793 9.87026L7.04792 9.87027C6.80968 10.1127 6.80968 10.5014 7.04792 10.7438L7.04791 10.7438L7.04853 10.7444L9.62046 13.3163L9.62106 13.3169C9.86699 13.5587 10.2592 13.5587 10.5051 13.3169L10.5057 13.3163L15.6531 8.16897L15.6531 8.16898L15.6543 8.16776C15.8964 7.91728 15.8877 7.52461 15.642 7.28309L15.642 7.28308L15.6413 7.28246C15.3991 7.04856 15.0113 7.04856 14.7691 7.28246Z" fill="black" stroke="black" stroke-width="0.2"/>
</svg>
