<svg width="33" height="30" viewBox="0 0 33 30" fill="none" xmlns="http://www.w3.org/2000/svg">
<g clip-path="url(#clip0_123_164)">
<path fill-rule="evenodd" clip-rule="evenodd" d="M27.5503 14.7163C26.9846 14.7163 26.6101 15.0567 26.6101 15.6166V28.0861H19.8343V23.0317C19.8343 22.5852 19.4598 22.1314 18.994 22.1314H14.1085C13.5423 22.1314 13.0679 22.5852 13.0679 23.0317V28.0861H6.39238V16.0631C6.39238 15.5033 5.92655 15.1627 5.45161 15.1627C4.88595 15.1627 4.51142 15.5033 4.51142 16.0631V29.0997C4.51142 29.5461 4.88595 30 5.45161 30H14.1083C14.5741 30 14.9493 29.5461 14.9493 29.0997V23.932H17.9617V29.0997C17.9617 29.5461 18.4281 30 18.9938 30H27.5501C28.0165 30 28.4909 29.5461 28.4909 29.0997V15.6166C28.4909 15.0567 28.0165 14.7163 27.5501 14.7163H27.5503ZM5.45956 1.55884C5.93489 1.55884 6.32569 2.02776 6.32569 2.59519V9.45789L15.7977 0.333055C15.9809 0.10626 16.2642 0 16.5468 0C16.7385 0 16.9302 0.106084 17.113 0.333055C22.6561 5.61436 26.5103 9.32167 32.7194 15.3898C33.0939 15.7303 33.0939 16.4036 32.7194 16.7366C32.5366 16.8501 32.3449 16.9634 32.0618 16.9634C31.7788 16.9634 31.4962 16.8501 31.4047 16.7366L16.5466 2.24733L1.59839 16.5097C1.22348 16.9634 0.657622 16.9634 0.283097 16.5097C0.0913766 16.4036 -0.00012207 16.1766 -0.00012207 15.9495C-0.00012207 15.7223 0.0911828 15.5031 0.283097 15.2763L4.58644 11.1299V2.59519C4.58644 2.02758 4.97745 1.55884 5.45956 1.55884Z" fill="black"/>
</g>
<defs>
<clipPath id="clip0_123_164">
<rect width="33" height="30" fill="white"/>
</clipPath>
</defs>
</svg>
