<svg width="30" height="30" viewBox="0 0 30 30" fill="none" xmlns="http://www.w3.org/2000/svg">
<g clip-path="url(#clip0_100_225)">
<path d="M15 0C23.2842 0 30 6.71581 30 15C30 17.6062 29.3353 20.0568 28.1662 22.1921C28.4535 23.9863 28.8761 26.5745 29.0351 27.547C29.0662 27.7373 28.9006 27.9015 28.7104 27.8688L23.94 27.0458C21.4433 28.9019 18.35 30.0002 15 30.0002C6.71581 30.0002 0 23.2844 0 15.0002C0 6.71603 6.71581 0 15 0Z" fill="black"/>
<path d="M13.566 6.72974C13.9333 6.3115 14.4748 6.05272 15.0907 6.00106L15.1036 6.0004C15.1247 6.00007 15.1458 5.9999 15.1669 6.00007C15.8325 6.00521 16.4673 6.29805 16.9088 6.80333C17.3588 7.3184 17.5672 8.00257 17.4809 8.68076L16.37 17.3936C16.3517 17.5899 16.3009 17.7738 16.219 17.94C16.0582 18.2663 15.7509 18.4691 15.3054 18.5428L15.291 18.5451L15.2639 18.5456C15.2584 18.5456 15.2531 18.5456 15.2478 18.5456C14.958 18.5456 14.6603 18.4475 14.4288 18.2751C14.1705 18.0825 14.0102 17.8145 13.9775 17.5196L13.0084 8.67096L13.0076 8.66166C12.9581 7.87019 13.1511 7.20213 13.5659 6.72974H13.566Z" fill="#FFFDFD"/>
<path d="M15.2184 19.5774C15.2322 19.577 15.2456 19.577 15.2593 19.577C16.4313 19.577 17.3951 20.507 17.4167 21.6682C17.4272 22.238 17.2121 22.7775 16.8111 23.1876C16.4108 23.5968 15.8732 23.828 15.297 23.8387C15.2832 23.839 15.2697 23.839 15.2561 23.839C14.0841 23.839 13.1202 22.9092 13.0986 21.7478C13.077 20.573 14.028 19.5993 15.2184 19.5774Z" fill="#FFFDFD"/>
</g>
<defs>
<clipPath id="clip0_100_225">
<rect width="30" height="30" fill="white" transform="matrix(-1 0 0 1 30 0)"/>
</clipPath>
</defs>
</svg>
