<svg width="26" height="35" viewBox="0 0 26 35" fill="none" xmlns="http://www.w3.org/2000/svg">
<g clip-path="url(#clip0_163_1557)">
<path d="M12.6262 25.8144C13.5988 25.8144 14.3873 25.0259 14.3873 24.0532C14.3873 23.0805 13.5988 22.292 12.6262 22.292C11.6535 22.292 10.865 23.0805 10.865 24.0532C10.865 25.0259 11.6535 25.8144 12.6262 25.8144Z" fill="black"/>
<path d="M24.4218 34.9814H0.834043C0.376064 34.9814 0 34.609 0 34.1473V16.6473C0 16.1856 0.37234 15.8133 0.834043 15.8133H24.4218C24.8798 15.8133 25.2558 16.1856 25.2558 16.6473V34.1473C25.2558 34.609 24.8835 34.9814 24.4218 34.9814ZM1.66809 33.317H23.5915V17.4814H1.66436V33.317H1.66809Z" fill="black"/>
<path d="M20.5235 16.4128C20.0655 16.4128 19.6895 16.0404 19.6895 15.5787V8.72766C19.6895 4.83298 16.5208 1.66436 12.6262 1.66436C8.73148 1.66436 5.56286 4.83298 5.56286 8.72766V15.5787C5.56286 16.0404 5.19052 16.4128 4.72882 16.4128C4.26712 16.4128 3.89478 16.0404 3.89478 15.5787V8.72766C3.8985 3.91702 7.81552 0 12.6262 0C17.4368 0 21.3538 3.91702 21.3538 8.72766V15.5787C21.3538 16.0404 20.9815 16.4128 20.5198 16.4128H20.5235Z" fill="black"/>
<path d="M12.626 30.1298C12.1681 30.1298 11.792 29.7575 11.792 29.2957V24.6192C11.792 24.1575 12.1643 23.7851 12.626 23.7851C13.0877 23.7851 13.4601 24.1575 13.4601 24.6192V29.2957C13.4601 29.7575 13.0877 30.1298 12.626 30.1298Z" fill="black"/>
</g>
<defs>
<clipPath id="clip0_163_1557">
<rect width="25.3191" height="35" fill="white"/>
</clipPath>
</defs>
</svg>
