<svg width="214" height="62" viewBox="0 0 214 62" fill="none" xmlns="http://www.w3.org/2000/svg">
<path d="M212.801 12H166.563C164.747 12 163.141 12.8555 162.114 14.1849C161.062 12.8555 159.456 12 157.653 12H133.198C132.54 12 132 12.5396 132 13.1977V53.8023C132 54.4604 132.54 55 133.198 55H157.653C159.469 55 161.075 54.1445 162.101 52.8151C163.141 54.1445 164.747 55 166.55 55H212.775C213.433 55 213.972 54.4604 213.972 53.8023V13.1977C213.986 12.5265 213.446 12 212.788 12H212.801ZM211.603 52.6045H166.563C164.773 52.6045 163.312 51.1436 163.312 49.3535V46.4974C163.312 45.8393 162.773 45.2997 162.114 45.2997C161.456 45.2997 160.917 45.8393 160.917 46.4974V49.3535C160.917 51.1436 159.456 52.6045 157.666 52.6045H134.409V14.4086H157.666C159.456 14.4086 160.917 15.8696 160.917 17.6596V20.1867C160.917 20.8448 161.456 21.3845 162.114 21.3845C162.773 21.3845 163.312 20.8448 163.312 20.1867V17.6596C163.312 15.8696 164.773 14.4086 166.563 14.4086L211.603 14.4086V52.6177V52.6045Z" fill="black"/>
<path d="M162.101 23.5299C161.443 23.5299 160.904 24.0695 160.904 24.7276V27.4126C160.904 28.0707 161.443 28.6104 162.101 28.6104C162.759 28.6104 163.299 28.0707 163.299 27.4126V24.7276C163.299 24.0695 162.759 23.5299 162.101 23.5299Z" fill="black"/>
<path d="M162.101 30.7952C161.443 30.7952 160.904 31.3348 160.904 31.9929V34.6779C160.904 35.336 161.443 35.8757 162.101 35.8757C162.759 35.8757 163.299 35.336 163.299 34.6779V31.9929C163.299 31.3216 162.759 30.7952 162.101 30.7952Z" fill="black"/>
<path d="M162.101 38.0343C161.443 38.0343 160.904 38.574 160.904 39.2321V41.9171C160.904 42.5752 161.443 43.1148 162.101 43.1148C162.759 43.1148 163.299 42.5752 163.299 41.9171V39.2321C163.299 38.574 162.759 38.0343 162.101 38.0343Z" fill="black"/>
<path d="M154.77 24.3721C154.257 23.9509 153.507 24.0299 153.085 24.5432L139.792 40.9298C139.371 41.4431 139.45 42.1933 139.963 42.6145C140.187 42.7856 140.463 42.8909 140.713 42.8909C141.069 42.8909 141.398 42.7461 141.648 42.4434L154.941 26.0568C155.362 25.5435 155.283 24.7933 154.77 24.3721Z" fill="black"/>
<path d="M142.398 31.5587C144.622 31.5587 146.439 29.7423 146.439 27.5179C146.439 25.2936 144.622 23.4772 142.398 23.4772C140.174 23.4772 138.357 25.2936 138.357 27.5179C138.357 29.7423 140.174 31.5587 142.398 31.5587ZM142.398 25.8859C143.293 25.8859 144.03 26.6229 144.03 27.5179C144.03 28.413 143.293 29.15 142.398 29.15C141.503 29.15 140.766 28.413 140.766 27.5179C140.766 26.6229 141.503 25.8859 142.398 25.8859Z" fill="black"/>
<path d="M152.296 35.4283C150.071 35.4283 148.255 37.2447 148.255 39.469C148.255 41.6934 150.071 43.5097 152.296 43.5097C154.52 43.5097 156.336 41.6934 156.336 39.469C156.336 37.2447 154.52 35.4283 152.296 35.4283ZM152.296 41.1011C151.401 41.1011 150.664 40.364 150.664 39.469C150.664 38.574 151.401 37.8369 152.296 37.8369C153.191 37.8369 153.928 38.574 153.928 39.469C153.928 40.364 153.191 41.1011 152.296 41.1011Z" fill="black"/>
<path d="M200.916 24.2405H194.058C194.335 23.6746 194.493 23.0428 194.493 22.3847C194.493 20.0287 192.584 18.1202 190.228 18.1202C189.031 18.1202 187.938 18.6204 187.175 19.4233C186.411 18.6204 185.319 18.1202 184.121 18.1202C181.765 18.1202 179.857 20.0287 179.857 22.3847C179.857 23.056 180.015 23.6877 180.291 24.2405H173.434C172.776 24.2405 172.236 24.7802 172.236 25.4383V33.4407C172.236 34.0988 172.776 34.6385 173.434 34.6385H174.631V44.7336C174.631 47.1686 176.606 49.1429 179.041 49.1429H195.309C197.744 49.1429 199.718 47.1686 199.718 44.7336V34.6385H200.916C201.574 34.6385 202.114 34.0988 202.114 33.4407V25.4383C202.114 24.767 201.587 24.2405 200.916 24.2405ZM175.829 32.243H174.631V26.636H183.41V32.243H175.829ZM183.41 46.7343H179.041C177.935 46.7343 177.04 45.8392 177.04 44.7336V34.6385H183.41V46.7343ZM182.252 22.3715C182.252 21.3449 183.081 20.5157 184.108 20.5157C185.135 20.5157 185.964 21.3449 185.964 22.3715V24.2274H184.108C183.081 24.2274 182.252 23.3982 182.252 22.3715ZM188.53 46.7343H185.806V26.636H188.53V46.7343ZM188.372 24.2274V22.3715C188.372 21.3449 189.202 20.5157 190.228 20.5157C191.255 20.5157 192.084 21.3449 192.084 22.3715C192.084 23.3982 191.255 24.2274 190.228 24.2274H188.372ZM197.309 44.7336C197.309 45.8392 196.414 46.7343 195.309 46.7343H190.939V34.6385H197.309V44.7336ZM199.718 32.243H190.939V26.636H199.718V32.243Z" fill="black"/>
<path d="M86.3666 49.9523C86.8971 49.8979 87.3358 49.4577 87.3542 48.9022C87.3546 48.8986 87.3548 48.8949 87.3548 48.8912V48.8659V22.6617C87.3548 22.0877 86.8798 21.6128 86.3058 21.6128H74.9044V14.3096H78.9545C79.2893 14.3096 79.5844 14.156 79.7678 13.9161C79.9489 13.6792 80.0325 13.3468 79.9764 13.0521L79.9764 13.0521L79.9758 13.0495L77.8502 3.34469L77.8501 3.3444C77.5363 1.93252 76.2688 0.9 74.8044 0.9H68.9461C67.4813 0.9 66.2141 1.94555 65.9004 3.3442L65.9003 3.34469L63.7746 13.0495L63.7745 13.0494L63.7739 13.053C63.7192 13.3535 63.7722 13.678 63.9871 13.9215C64.1929 14.1547 64.4973 14.3096 64.7959 14.3096H68.8461V21.6128H62.6196C62.0456 21.6128 61.5707 22.0877 61.5707 22.6617C61.5707 23.2357 62.0456 23.7107 62.6196 23.7107H85.2822V31.6339H71.8815C71.3075 31.6339 70.8326 32.1088 70.8326 32.6828C70.8326 33.2568 71.3075 33.7318 71.8815 33.7318H85.2822V41.6549H73.6909C73.1169 41.6549 72.6419 42.1299 72.6419 42.7039C72.6419 43.2779 73.1169 43.7529 73.6909 43.7529H78.3817C78.4193 43.7751 78.4573 43.7921 78.4917 43.8067C78.5044 43.812 78.5163 43.817 78.5276 43.8216C78.5565 43.8336 78.5815 43.8439 78.6061 43.8562C78.6127 43.8595 78.6196 43.8621 78.6268 43.8638C80.6346 44.3611 81.5506 45.5562 81.969 46.6448C82.3558 47.651 82.3185 48.568 82.31 48.7771C82.3094 48.7915 82.309 48.8026 82.3088 48.8101C82.2824 49.1104 82.3645 49.4059 82.5784 49.6198C82.7847 49.8261 83.0498 49.9528 83.3577 49.9528H86.3564V49.9533L86.3666 49.9523ZM67.9429 3.76717L67.9429 3.76712C68.0465 3.29516 68.4606 2.97263 68.9334 2.97263H74.7917C75.2641 2.97263 75.6904 3.31992 75.7819 3.76577L75.7819 3.76577L75.7822 3.76717L77.6407 12.2117H66.0844L67.9429 3.76717ZM70.9187 14.2843H72.8191V21.6128H70.9187V14.2843ZM84.3725 47.8422C84.2488 46.5953 83.7915 45.0124 82.588 43.7655H85.2695V47.8422H84.3725Z" fill="black" stroke="black" stroke-width="0.2" stroke-linejoin="round"/>
<mask id="path-10-outside-1_353_4580" maskUnits="userSpaceOnUse" x="0" y="7.61703" width="71" height="54" fill="black">
<rect fill="white" y="7.61703" width="71" height="54"/>
<path d="M1.93631 61H5.8081C6.30156 61 6.70645 60.6204 6.75706 60.1523C6.78237 59.8739 7.54154 53.2817 13.248 51.9785C13.2733 51.9785 13.2986 51.9532 13.3239 51.9532H57.9C57.9 51.9532 57.9507 51.9785 57.976 51.9785C63.6951 53.2817 64.4669 59.8612 64.4922 60.1523C64.5428 60.6457 64.9604 61 65.4412 61H69.3129C69.8317 61 70.2619 60.5698 70.2619 60.051V51.0042V39.2244C70.2619 37.3138 69.5533 35.4918 68.2754 34.0493C65.1375 30.5571 60.8102 27.7229 58.5959 26.4197C59.2792 25.7617 59.7094 24.8633 59.7094 23.8511C59.7094 22.0797 58.9502 20.3842 57.6976 19.2455V13.9819C57.6976 11.0337 55.2935 8.61703 52.3328 8.61703H18.9291C15.981 8.61703 13.5643 11.0211 13.5643 13.9819V19.2455C12.3117 20.3842 11.5525 22.0797 11.5525 23.8511C11.5525 24.8633 11.9827 25.7617 12.666 26.4197C10.4517 27.7609 6.14973 30.5698 2.9865 34.0493C1.70856 35.4665 1 37.3264 1 39.2244V51.0042V60.051C1 60.5698 1.40489 61 1.94897 61H1.93631ZM68.3766 50.0679H2.87263V43.9312H68.3893V50.0679H68.3766ZM4.98566 59.0894H2.85997V51.9405H8.99662C6.27625 54.1548 5.28933 57.5331 4.98566 59.0894ZM66.2509 59.0894C65.9473 57.5078 64.973 54.1548 62.2147 51.9405H68.3766V59.0894H66.2509ZM56.1666 25.4707H36.5673V24.1042C36.5673 21.3458 38.6676 19.0936 41.3374 18.9544H49.9034C49.9034 18.9544 53.016 18.8406 55.3821 19.9667C56.8498 20.6752 57.8115 22.2062 57.8115 23.8638C57.8115 24.7368 57.0776 25.4707 56.1792 25.4707H56.1666ZM18.9291 10.5023H52.3328C54.2434 10.5023 55.7997 12.0586 55.7997 13.9692V18.0561C53.1805 16.9679 50.1818 17.0439 49.8781 17.0439H41.2615C38.8574 17.1577 36.795 18.5496 35.6436 20.5361C34.5048 18.5496 32.4298 17.183 30.0257 17.0439H21.3838C21.0801 17.0439 18.0814 16.9679 15.4622 18.0561V13.9692C15.4622 12.0586 17.0186 10.5023 18.9291 10.5023ZM15.8545 19.9667C17.8157 19.043 20.2957 18.9544 21.0928 18.9544H29.8992C32.569 19.0936 34.6693 21.3585 34.6693 24.1042V25.4707H15.0953C14.197 25.4707 13.4631 24.7368 13.4631 23.8385C13.4631 22.1809 14.3868 20.6499 15.8671 19.9667H15.8545ZM4.40363 35.3146C8.11092 31.2024 13.7288 27.9506 14.7916 27.356C14.8676 27.356 14.9814 27.3813 15.0953 27.3813H56.2046C56.3184 27.3813 56.3943 27.3813 56.5082 27.356C57.5711 27.9506 63.2143 31.2024 66.8962 35.3146C67.8832 36.4028 68.4019 37.7946 68.4019 39.2117V41.9954H2.87263V39.2117C2.87263 37.7946 3.4167 36.4028 4.40363 35.3146Z"/>
</mask>
<path d="M1.93631 61H5.8081C6.30156 61 6.70645 60.6204 6.75706 60.1523C6.78237 59.8739 7.54154 53.2817 13.248 51.9785C13.2733 51.9785 13.2986 51.9532 13.3239 51.9532H57.9C57.9 51.9532 57.9507 51.9785 57.976 51.9785C63.6951 53.2817 64.4669 59.8612 64.4922 60.1523C64.5428 60.6457 64.9604 61 65.4412 61H69.3129C69.8317 61 70.2619 60.5698 70.2619 60.051V51.0042V39.2244C70.2619 37.3138 69.5533 35.4918 68.2754 34.0493C65.1375 30.5571 60.8102 27.7229 58.5959 26.4197C59.2792 25.7617 59.7094 24.8633 59.7094 23.8511C59.7094 22.0797 58.9502 20.3842 57.6976 19.2455V13.9819C57.6976 11.0337 55.2935 8.61703 52.3328 8.61703H18.9291C15.981 8.61703 13.5643 11.0211 13.5643 13.9819V19.2455C12.3117 20.3842 11.5525 22.0797 11.5525 23.8511C11.5525 24.8633 11.9827 25.7617 12.666 26.4197C10.4517 27.7609 6.14973 30.5698 2.9865 34.0493C1.70856 35.4665 1 37.3264 1 39.2244V51.0042V60.051C1 60.5698 1.40489 61 1.94897 61H1.93631ZM68.3766 50.0679H2.87263V43.9312H68.3893V50.0679H68.3766ZM4.98566 59.0894H2.85997V51.9405H8.99662C6.27625 54.1548 5.28933 57.5331 4.98566 59.0894ZM66.2509 59.0894C65.9473 57.5078 64.973 54.1548 62.2147 51.9405H68.3766V59.0894H66.2509ZM56.1666 25.4707H36.5673V24.1042C36.5673 21.3458 38.6676 19.0936 41.3374 18.9544H49.9034C49.9034 18.9544 53.016 18.8406 55.3821 19.9667C56.8498 20.6752 57.8115 22.2062 57.8115 23.8638C57.8115 24.7368 57.0776 25.4707 56.1792 25.4707H56.1666ZM18.9291 10.5023H52.3328C54.2434 10.5023 55.7997 12.0586 55.7997 13.9692V18.0561C53.1805 16.9679 50.1818 17.0439 49.8781 17.0439H41.2615C38.8574 17.1577 36.795 18.5496 35.6436 20.5361C34.5048 18.5496 32.4298 17.183 30.0257 17.0439H21.3838C21.0801 17.0439 18.0814 16.9679 15.4622 18.0561V13.9692C15.4622 12.0586 17.0186 10.5023 18.9291 10.5023ZM15.8545 19.9667C17.8157 19.043 20.2957 18.9544 21.0928 18.9544H29.8992C32.569 19.0936 34.6693 21.3585 34.6693 24.1042V25.4707H15.0953C14.197 25.4707 13.4631 24.7368 13.4631 23.8385C13.4631 22.1809 14.3868 20.6499 15.8671 19.9667H15.8545ZM4.40363 35.3146C8.11092 31.2024 13.7288 27.9506 14.7916 27.356C14.8676 27.356 14.9814 27.3813 15.0953 27.3813H56.2046C56.3184 27.3813 56.3943 27.3813 56.5082 27.356C57.5711 27.9506 63.2143 31.2024 66.8962 35.3146C67.8832 36.4028 68.4019 37.7946 68.4019 39.2117V41.9954H2.87263V39.2117C2.87263 37.7946 3.4167 36.4028 4.40363 35.3146Z" fill="black"/>
<path d="M1.93631 60.8C1.82586 60.8 1.73631 60.8895 1.73631 61C1.73631 61.1105 1.82586 61.2 1.93631 61.2V60.8ZM6.75706 60.1523L6.95593 60.1738L6.95624 60.1704L6.75706 60.1523ZM13.248 51.9785V51.7785C13.233 51.7785 13.2181 51.7802 13.2035 51.7835L13.248 51.9785ZM57.9 51.9532L57.9895 51.7743C57.9617 51.7604 57.9311 51.7532 57.9 51.7532V51.9532ZM57.976 51.9785L58.0204 51.7835C58.0058 51.7802 57.9909 51.7785 57.976 51.7785V51.9785ZM64.4922 60.1523L64.2929 60.1696L64.2932 60.1727L64.4922 60.1523ZM68.2754 34.0493L68.4251 33.9167L68.4242 33.9157L68.2754 34.0493ZM58.5959 26.4197L58.4572 26.2756C58.4122 26.319 58.39 26.3809 58.3973 26.4431C58.4046 26.5052 58.4406 26.5603 58.4945 26.592L58.5959 26.4197ZM57.6976 19.2455H57.4976C57.4976 19.3018 57.5214 19.3555 57.5631 19.3935L57.6976 19.2455ZM13.5643 19.2455L13.6989 19.3935C13.7405 19.3555 13.7643 19.3018 13.7643 19.2455H13.5643ZM12.666 26.4197L12.7696 26.5907C12.8227 26.5585 12.8579 26.5035 12.8647 26.4418C12.8716 26.3801 12.8494 26.3187 12.8047 26.2756L12.666 26.4197ZM2.9865 34.0493L2.83851 33.9148L2.83798 33.9154L2.9865 34.0493ZM1.94897 61.2C2.05942 61.2 2.14897 61.1105 2.14897 61C2.14897 60.8895 2.05942 60.8 1.94897 60.8V61.2ZM2.87263 50.0679H2.67263C2.67263 50.1784 2.76217 50.2679 2.87263 50.2679V50.0679ZM2.87263 43.9312V43.7312C2.76217 43.7312 2.67263 43.8208 2.67263 43.9312H2.87263ZM68.3893 43.9312H68.5893C68.5893 43.8208 68.4997 43.7312 68.3893 43.7312V43.9312ZM68.3893 50.0679V50.2679C68.4997 50.2679 68.5893 50.1784 68.5893 50.0679H68.3893ZM4.98566 59.0894V59.2894C5.08135 59.2894 5.16363 59.2216 5.18196 59.1277L4.98566 59.0894ZM2.85997 59.0894H2.65997C2.65997 59.1999 2.74952 59.2894 2.85997 59.2894V59.0894ZM2.85997 51.9405V51.7405C2.74952 51.7405 2.65997 51.8301 2.65997 51.9405H2.85997ZM8.99662 51.9405L9.12288 52.0956C9.18851 52.0422 9.21342 51.9533 9.18507 51.8735C9.15672 51.7938 9.08125 51.7405 8.99662 51.7405V51.9405ZM66.2509 59.0894L66.0545 59.1271C66.0726 59.2213 66.155 59.2894 66.2509 59.2894V59.0894ZM62.2147 51.9405V51.7405C62.1298 51.7405 62.0542 51.7941 62.026 51.8742C61.9978 51.9542 62.0233 52.0434 62.0895 52.0965L62.2147 51.9405ZM68.3766 51.9405H68.5766C68.5766 51.8301 68.4871 51.7405 68.3766 51.7405V51.9405ZM68.3766 59.0894V59.2894C68.4871 59.2894 68.5766 59.1999 68.5766 59.0894H68.3766ZM36.5673 25.4707H36.3673C36.3673 25.5811 36.4568 25.6707 36.5673 25.6707V25.4707ZM41.3374 18.9544V18.7542L41.327 18.7547L41.3374 18.9544ZM49.9034 18.9544V19.1546L49.9107 19.1543L49.9034 18.9544ZM55.3821 19.9667L55.4691 19.7866L55.4681 19.7861L55.3821 19.9667ZM55.7997 18.0561L55.7229 18.2408C55.7846 18.2664 55.8551 18.2595 55.9107 18.2224C55.9663 18.1853 55.9997 18.1229 55.9997 18.0561H55.7997ZM41.2615 17.0439V16.8436L41.252 16.8441L41.2615 17.0439ZM35.6436 20.5361L35.4701 20.6355C35.5057 20.6976 35.5716 20.7359 35.6431 20.7361C35.7146 20.7362 35.7808 20.6982 35.8166 20.6364L35.6436 20.5361ZM30.0257 17.0439L30.0373 16.8439H30.0257V17.0439ZM15.4622 18.0561H15.2622C15.2622 18.1229 15.2956 18.1853 15.3512 18.2224C15.4068 18.2595 15.4773 18.2664 15.539 18.2408L15.4622 18.0561ZM15.8545 19.9667L15.7693 19.7857C15.6846 19.8256 15.6389 19.919 15.6593 20.0103C15.6798 20.1017 15.7609 20.1667 15.8545 20.1667V19.9667ZM29.8992 18.9544L29.9096 18.7544H29.8992V18.9544ZM34.6693 25.4707V25.6707C34.7798 25.6707 34.8693 25.5811 34.8693 25.4707H34.6693ZM15.8671 19.9667L15.951 20.1483C16.0362 20.1089 16.0826 20.0155 16.0625 19.9238C16.0423 19.832 15.9611 19.7667 15.8671 19.7667V19.9667ZM4.40363 35.3146L4.55177 35.449L4.55217 35.4486L4.40363 35.3146ZM14.7916 27.356V27.156C14.7575 27.156 14.7238 27.1647 14.694 27.1814L14.7916 27.356ZM56.5082 27.356L56.6059 27.1814C56.563 27.1574 56.5128 27.1501 56.4648 27.1607L56.5082 27.356ZM66.8962 35.3146L66.7472 35.448L66.7481 35.449L66.8962 35.3146ZM68.4019 41.9954V42.1954C68.5124 42.1954 68.6019 42.1058 68.6019 41.9954H68.4019ZM2.87263 41.9954H2.67263C2.67263 42.1058 2.76217 42.1954 2.87263 42.1954V41.9954ZM1.93631 61.2H5.8081V60.8H1.93631V61.2ZM5.8081 61.2C6.40544 61.2 6.8945 60.7417 6.95591 60.1737L6.55822 60.1308C6.5184 60.4991 6.19768 60.8 5.8081 60.8V61.2ZM6.95624 60.1704C6.96766 60.0448 7.16004 58.3537 8.05163 56.5378C8.94186 54.7247 10.518 52.8071 13.2925 52.1735L13.2035 51.7835C10.2715 52.4531 8.61486 54.4832 7.69257 56.3616C6.77163 58.2372 6.57178 59.9813 6.55789 60.1341L6.95624 60.1704ZM13.248 52.1785C13.2871 52.1785 13.3184 52.1688 13.3372 52.1618C13.3551 52.1551 13.371 52.1469 13.3754 52.1447C13.3836 52.1406 13.3804 52.1424 13.3751 52.1444C13.3691 52.1467 13.3503 52.1532 13.3239 52.1532V51.7532C13.2848 51.7532 13.2535 51.7628 13.2347 51.7699C13.2168 51.7766 13.2009 51.7847 13.1965 51.7869C13.1883 51.7911 13.1915 51.7892 13.1968 51.7873C13.2029 51.785 13.2216 51.7785 13.248 51.7785V52.1785ZM13.3239 52.1532H57.9V51.7532H13.3239V52.1532ZM57.9 51.9532C57.8106 52.1321 57.8106 52.1321 57.8106 52.1321C57.8106 52.1321 57.8107 52.1321 57.8107 52.1321C57.8107 52.1321 57.8107 52.1321 57.8108 52.1322C57.8108 52.1322 57.8109 52.1322 57.8109 52.1322C57.8111 52.1323 57.8112 52.1324 57.8113 52.1324C57.8116 52.1326 57.812 52.1328 57.8124 52.1329C57.8132 52.1333 57.8141 52.1338 57.8153 52.1344C57.8177 52.1355 57.8208 52.137 57.8245 52.1387C57.8319 52.1421 57.8423 52.1468 57.8542 52.1515C57.8658 52.1562 57.8813 52.1619 57.8985 52.1668C57.9126 52.1709 57.9417 52.1785 57.976 52.1785V51.7785C57.9885 51.7785 57.9975 51.7799 58.0012 51.7806C58.0054 51.7814 58.008 51.7821 58.0084 51.7822C58.0089 51.7824 58.007 51.7818 58.0028 51.7801C57.9989 51.7786 57.9951 51.7769 57.9921 51.7755C57.9907 51.7749 57.9897 51.7744 57.9892 51.7742C57.9889 51.774 57.9888 51.774 57.9889 51.774C57.9889 51.774 57.9889 51.774 57.989 51.7741C57.9891 51.7741 57.9891 51.7741 57.9892 51.7742C57.9893 51.7742 57.9893 51.7742 57.9893 51.7742C57.9894 51.7742 57.9894 51.7742 57.9894 51.7743C57.9894 51.7743 57.9894 51.7743 57.9894 51.7743C57.9894 51.7743 57.9895 51.7743 57.9 51.9532ZM57.9315 52.1735C60.7127 52.8072 62.2951 54.7221 63.1899 56.5335C64.0862 58.3479 64.2816 60.0389 64.2929 60.1696L64.6914 60.1349C64.6775 59.9746 64.4743 58.2303 63.5486 56.3564C62.6214 54.4795 60.9584 52.453 58.0204 51.7835L57.9315 52.1735ZM64.2932 60.1727C64.3548 60.7727 64.8624 61.2 65.4412 61.2V60.8C65.0583 60.8 64.7308 60.5187 64.6911 60.1318L64.2932 60.1727ZM65.4412 61.2H69.3129V60.8H65.4412V61.2ZM69.3129 61.2C69.9422 61.2 70.4619 60.6803 70.4619 60.051H70.0619C70.0619 60.4593 69.7213 60.8 69.3129 60.8V61.2ZM70.4619 60.051V51.0042H70.0619V60.051H70.4619ZM70.4619 51.0042V39.2244H70.0619V51.0042H70.4619ZM70.4619 39.2244C70.4619 37.2635 69.7345 35.3946 68.4251 33.9167L68.1257 34.182C69.3722 35.5889 70.0619 37.3641 70.0619 39.2244H70.4619ZM68.4242 33.9157C65.2658 30.4007 60.9177 27.5541 58.6974 26.2473L58.4945 26.592C60.7027 27.8917 65.0092 30.7136 68.1266 34.183L68.4242 33.9157ZM58.7347 26.5637C59.4535 25.8715 59.9094 24.9225 59.9094 23.8511H59.5094C59.5094 24.8042 59.1049 25.6519 58.4572 26.2756L58.7347 26.5637ZM59.9094 23.8511C59.9094 22.024 59.1269 20.2746 57.8321 19.0975L57.5631 19.3935C58.7735 20.4939 59.5094 22.1354 59.5094 23.8511H59.9094ZM57.8976 19.2455V13.9819H57.4976V19.2455H57.8976ZM57.8976 13.9819C57.8976 10.9236 55.4043 8.41703 52.3328 8.41703V8.81703C55.1828 8.81703 57.4976 11.1439 57.4976 13.9819H57.8976ZM52.3328 8.41703H18.9291V8.81703H52.3328V8.41703ZM18.9291 8.41703C15.8709 8.41703 13.3643 10.9103 13.3643 13.9819H13.7643C13.7643 11.1318 16.0912 8.81703 18.9291 8.81703V8.41703ZM13.3643 13.9819V19.2455H13.7643V13.9819H13.3643ZM13.4298 19.0975C12.135 20.2746 11.3525 22.024 11.3525 23.8511H11.7525C11.7525 22.1354 12.4884 20.4939 13.6989 19.3935L13.4298 19.0975ZM11.3525 23.8511C11.3525 24.9225 11.8084 25.8715 12.5272 26.5637L12.8047 26.2756C12.157 25.6519 11.7525 24.8042 11.7525 23.8511H11.3525ZM12.5623 26.2486C10.3443 27.5921 6.02189 30.4131 2.83852 33.9148L3.13449 34.1839C6.27756 30.7265 10.5591 27.9297 12.7696 26.5907L12.5623 26.2486ZM2.83798 33.9154C1.5267 35.3695 0.8 37.2773 0.8 39.2244H1.2C1.2 37.3756 1.89042 35.5634 3.13503 34.1833L2.83798 33.9154ZM0.8 39.2244V51.0042H1.2V39.2244H0.8ZM0.8 51.0042V60.051H1.2V51.0042H0.8ZM0.8 60.051C0.8 60.6768 1.29096 61.2 1.94897 61.2V60.8C1.51883 60.8 1.2 60.4629 1.2 60.051H0.8ZM1.94897 60.8H1.93631V61.2H1.94897V60.8ZM68.3766 49.8679H2.87263V50.2679H68.3766V49.8679ZM3.07263 50.0679V43.9312H2.67263V50.0679H3.07263ZM2.87263 44.1312H68.3893V43.7312H2.87263V44.1312ZM68.1893 43.9312V50.0679H68.5893V43.9312H68.1893ZM68.3893 49.8679H68.3766V50.2679H68.3893V49.8679ZM4.98566 58.8894H2.85997V59.2894H4.98566V58.8894ZM3.05997 59.0894V51.9405H2.65997V59.0894H3.05997ZM2.85997 52.1405H8.99662V51.7405H2.85997V52.1405ZM8.87037 51.7854C6.09527 54.0442 5.09604 57.4794 4.78936 59.0511L5.18196 59.1277C5.48262 57.5868 6.45723 54.2654 9.12288 52.0956L8.87037 51.7854ZM66.4474 59.0517C66.1406 57.454 65.1538 54.0435 62.3399 51.7846L62.0895 52.0965C64.7922 54.2661 65.754 57.5616 66.0545 59.1271L66.4474 59.0517ZM62.2147 52.1405H68.3766V51.7405H62.2147V52.1405ZM68.1766 51.9405V59.0894H68.5766V51.9405H68.1766ZM68.3766 58.8894H66.2509V59.2894H68.3766V58.8894ZM56.1666 25.2707H36.5673V25.6707H56.1666V25.2707ZM36.7673 25.4707V24.1042H36.3673V25.4707H36.7673ZM36.7673 24.1042C36.7673 21.4481 38.7884 19.2876 41.3478 19.1542L41.327 18.7547C38.5469 18.8997 36.3673 21.2436 36.3673 24.1042H36.7673ZM41.3374 19.1544H49.9034V18.7544H41.3374V19.1544ZM49.9034 18.9544C49.9107 19.1543 49.9107 19.1543 49.9107 19.1543C49.9107 19.1543 49.9107 19.1543 49.9107 19.1543C49.9108 19.1543 49.9109 19.1543 49.911 19.1543C49.9113 19.1543 49.9117 19.1543 49.9124 19.1543C49.9137 19.1542 49.9157 19.1541 49.9185 19.1541C49.924 19.1539 49.9325 19.1537 49.9437 19.1534C49.9662 19.1528 49.9999 19.1522 50.0438 19.1517C50.1317 19.1508 50.2604 19.1508 50.4225 19.1542C50.7469 19.161 51.2043 19.1817 51.7347 19.2372C52.7987 19.3484 54.1426 19.5983 55.2962 20.1473L55.4681 19.7861C54.2555 19.209 52.8601 18.9527 51.7763 18.8394C51.2328 18.7825 50.7641 18.7613 50.4309 18.7543C50.2643 18.7508 50.1314 18.7508 50.0397 18.7518C49.9939 18.7522 49.9584 18.7529 49.9342 18.7535C49.922 18.7538 49.9127 18.7541 49.9063 18.7542C49.9032 18.7543 49.9007 18.7544 49.899 18.7545C49.8981 18.7545 49.8975 18.7545 49.897 18.7545C49.8967 18.7546 49.8965 18.7546 49.8964 18.7546C49.8963 18.7546 49.8962 18.7546 49.8962 18.7546C49.8962 18.7546 49.8961 18.7546 49.9034 18.9544ZM55.2952 20.1468C56.6932 20.8217 57.6115 22.2823 57.6115 23.8638H58.0115C58.0115 22.1302 57.0065 20.5288 55.4691 19.7866L55.2952 20.1468ZM57.6115 23.8638C57.6115 24.6243 56.9692 25.2707 56.1792 25.2707V25.6707C57.186 25.6707 58.0115 24.8493 58.0115 23.8638H57.6115ZM56.1792 25.2707H56.1666V25.6707H56.1792V25.2707ZM18.9291 10.7023H52.3328V10.3023H18.9291V10.7023ZM52.3328 10.7023C54.1329 10.7023 55.5997 12.1691 55.5997 13.9692H55.9997C55.9997 11.9482 54.3538 10.3023 52.3328 10.3023V10.7023ZM55.5997 13.9692V18.0561H55.9997V13.9692H55.5997ZM55.8764 17.8714C53.2151 16.7658 50.1772 16.8439 49.8781 16.8439V17.2439C50.1863 17.2439 53.1459 17.1701 55.7229 18.2408L55.8764 17.8714ZM49.8781 16.8439H41.2615V17.2439H49.8781V16.8439ZM41.252 16.8441C38.7741 16.9615 36.653 18.3958 35.4706 20.4358L35.8166 20.6364C36.9371 18.7033 38.9407 17.354 41.271 17.2436L41.252 16.8441ZM35.8171 20.4366C34.6462 18.3939 32.5116 16.9874 30.0373 16.8442L30.0142 17.2435C32.348 17.3786 34.3635 18.7052 35.4701 20.6355L35.8171 20.4366ZM30.0257 16.8439H21.3838V17.2439H30.0257V16.8439ZM21.3838 16.8439C21.0847 16.8439 18.0468 16.7658 15.3855 17.8714L15.539 18.2408C18.116 17.1701 21.0756 17.2439 21.3838 17.2439V16.8439ZM15.6622 18.0561V13.9692H15.2622V18.0561H15.6622ZM15.6622 13.9692C15.6622 12.1691 17.129 10.7023 18.9291 10.7023V10.3023C16.9081 10.3023 15.2622 11.9482 15.2622 13.9692H15.6622ZM15.9397 20.1476C17.8583 19.244 20.3 19.1544 21.0928 19.1544V18.7544C20.2913 18.7544 17.7731 18.842 15.7693 19.7857L15.9397 20.1476ZM21.0928 19.1544H29.8992V18.7544H21.0928V19.1544ZM29.8888 19.1542C32.4479 19.2876 34.4693 21.4605 34.4693 24.1042H34.8693C34.8693 21.2565 32.69 18.8997 29.9096 18.7547L29.8888 19.1542ZM34.4693 24.1042V25.4707H34.8693V24.1042H34.4693ZM34.6693 25.2707H15.0953V25.6707H34.6693V25.2707ZM15.0953 25.2707C14.3074 25.2707 13.6631 24.6264 13.6631 23.8385H13.2631C13.2631 24.8473 14.0865 25.6707 15.0953 25.6707V25.2707ZM13.6631 23.8385C13.6631 22.2534 14.5463 20.7966 15.951 20.1483L15.7833 19.7851C14.2273 20.5033 13.2631 22.1084 13.2631 23.8385H13.6631ZM15.8671 19.7667H15.8545V20.1667H15.8671V19.7667ZM4.55217 35.4486C8.23566 31.3628 13.828 28.1243 14.8893 27.5305L14.694 27.1814C13.6296 27.777 7.98619 31.0421 4.25508 35.1807L4.55217 35.4486ZM14.7916 27.556C14.8143 27.556 14.846 27.56 14.9052 27.5672C14.9575 27.5735 15.0251 27.5813 15.0953 27.5813V27.1813C15.0517 27.1813 15.0054 27.1764 14.9533 27.1701C14.9081 27.1646 14.845 27.156 14.7916 27.156V27.556ZM15.0953 27.5813H56.2046V27.1813H15.0953V27.5813ZM56.2046 27.5813C56.3193 27.5813 56.4145 27.5817 56.5516 27.5512L56.4648 27.1607C56.3742 27.1809 56.3175 27.1813 56.2046 27.1813V27.5813ZM56.4106 27.5305C57.4725 28.1247 63.0894 31.3628 66.7472 35.448L67.0452 35.1812C63.3391 31.042 57.6696 27.7766 56.6059 27.1814L56.4106 27.5305ZM66.7481 35.449C67.7011 36.4998 68.2019 37.8435 68.2019 39.2117H68.6019C68.6019 37.7457 68.0652 36.3058 67.0444 35.1803L66.7481 35.449ZM68.2019 39.2117V41.9954H68.6019V39.2117H68.2019ZM68.4019 41.7954H2.87263V42.1954H68.4019V41.7954ZM3.07263 41.9954V39.2117H2.67263V41.9954H3.07263ZM3.07263 39.2117C3.07263 37.8459 3.59714 36.5015 4.55177 35.449L4.25548 35.1803C3.23626 36.304 2.67263 37.7434 2.67263 39.2117H3.07263Z" fill="black" mask="url(#path-10-outside-1_353_4580)"/>
<path d="M74.159 28.4935C74.7384 28.4935 75.208 28.0238 75.208 27.4445C75.208 26.8652 74.7384 26.3955 74.159 26.3955C73.5797 26.3955 73.1101 26.8652 73.1101 27.4445C73.1101 28.0238 73.5797 28.4935 74.159 28.4935Z" fill="black" stroke="black" stroke-width="0.2" stroke-linejoin="round"/>
<path d="M74.159 38.9575C74.7384 38.9575 75.208 38.4878 75.208 37.9085C75.208 37.3292 74.7384 36.8595 74.159 36.8595C73.5797 36.8595 73.1101 37.3292 73.1101 37.9085C73.1101 38.4878 73.5797 38.9575 74.159 38.9575Z" fill="black" stroke="black" stroke-width="0.2" stroke-linejoin="round"/>
</svg>
