<svg width="238" height="43" viewBox="0 0 238 43" fill="none" xmlns="http://www.w3.org/2000/svg">
<g filter="url(#filter0_d_377_3231)">
<path d="M64.5256 8.42277C64.5256 8.83664 64.3075 9.05476 63.8657 9.05476H55.6945V18.7863H64.8164C65.2527 18.7863 65.4764 19.0044 65.4764 19.4463V19.4686C65.4764 19.9049 65.2583 20.1286 64.8164 20.1286H55.6945V27.7628C55.6945 28.1991 55.4764 28.4228 55.0346 28.4228H53.8657C53.4294 28.4228 53.2057 28.2047 53.2057 27.7628V20.1286H44.0838C43.6475 20.1286 43.4238 19.9105 43.4238 19.4686V19.4463C43.4238 19.01 43.6419 18.7863 44.0838 18.7863H53.2057V9.05476H45.0346C44.5983 9.05476 44.3746 8.83664 44.3746 8.39481C44.3746 8.00331 44.5927 7.78519 45.0346 7.78519H63.8601C64.3019 7.78519 64.52 8.00331 64.52 8.41718L64.5256 8.42277ZM47.9932 10.8389C49.067 12.472 50.0178 14.0324 50.8232 15.5704C51.0413 15.9619 50.9462 16.2527 50.5547 16.4709L49.822 16.8624C49.4305 17.0581 49.1397 16.9574 48.9216 16.5715C47.9708 14.7427 47.0424 13.1823 46.2147 11.84C45.9686 11.4765 46.0692 11.1577 46.4328 10.9619L47.0927 10.5984C47.4563 10.4026 47.7751 10.4753 47.9932 10.8445V10.8389ZM62.8925 11.8624C62.1878 13.3501 61.2091 14.9608 59.9898 16.6666C59.7437 17.0078 59.4305 17.0581 59.0894 16.8624L58.4574 16.4988C58.0659 16.2807 57.9932 15.9619 58.2393 15.5984C59.1901 14.2058 60.0905 12.623 60.8735 10.9395C61.0413 10.5481 61.3601 10.425 61.7516 10.6208L62.5793 11.0123C62.9428 11.18 63.0938 11.4765 62.8981 11.868L62.8925 11.8624Z" fill="#231815"/>
<path d="M69.4811 9.64204C69.0392 9.66441 68.7987 9.47425 68.7484 9.03242C68.726 8.69126 68.9162 8.47313 69.358 8.44517C72.1377 8.19909 74.9677 7.76284 78.0381 7.10289C78.4296 7.03018 78.7205 7.1756 78.8435 7.56709C78.9386 7.95859 78.7708 8.22705 78.3569 8.32213C77.3334 8.56821 76.2093 8.78633 74.9677 8.95412V13.8814H78.5247C78.9665 13.8814 79.1847 14.0995 79.1847 14.5414C79.1847 14.9329 78.9665 15.151 78.5247 15.151H75.2081C77.0594 17.9306 78.2786 19.8098 78.8882 20.783C79.1064 21.1241 79.056 21.415 78.7428 21.6834L78.1556 22.1476C77.792 22.4385 77.4509 22.3658 77.2272 21.9519C76.6399 20.8054 75.7898 19.4183 74.9621 18.0984V27.7573C74.9621 28.1935 74.7439 28.4172 74.3021 28.4172H73.3737C72.9319 28.4172 72.7137 28.1991 72.7137 27.7573V19.6364C71.9811 21.2472 71.0079 22.83 69.716 24.4127C69.4251 24.7763 69.084 24.7763 68.7876 24.3904L68.4464 23.9262C68.2003 23.6074 68.2003 23.3165 68.4464 22.9977C70.1802 20.7326 71.5169 18.0705 72.3502 15.1454H69.0113C68.5694 15.1454 68.3513 14.9273 68.3513 14.4854C68.3513 14.0939 68.5694 13.8758 69.0113 13.8758H72.7193V9.31765C71.7686 9.41273 70.6947 9.53577 69.4755 9.63645L69.4811 9.64204ZM89.3804 27.1141H80.141C79.7048 27.1141 79.4811 26.896 79.4811 26.4541V9.95524C79.4811 9.519 79.6992 9.29528 80.141 9.29528H89.3804C89.8222 9.29528 90.0404 9.5134 90.0404 9.95524V26.4541C90.0404 26.8904 89.8222 27.1141 89.3804 27.1141ZM87.6019 10.6152H81.8692V25.6376H87.6019V10.6152Z" fill="#231815"/>
<path d="M103.206 7.84116C102.11 9.96084 100.767 12.2036 99.1343 14.5973C102.865 14.4016 106.791 14.1107 110.913 13.7416C109.839 12.5224 108.888 11.4989 108.061 10.6711C107.77 10.3523 107.77 10.0112 108.133 9.74272L108.575 9.42393C108.894 9.17785 109.207 9.20581 109.503 9.49664C111.847 11.7617 113.72 13.887 115.281 15.7886C115.549 16.1297 115.527 16.4485 115.208 16.717L114.649 17.1812C114.308 17.472 113.989 17.4497 113.72 17.1085C113.088 16.3031 112.501 15.5984 111.964 14.9608C105.773 15.5928 99.8223 15.962 94.1903 16.1297C93.7764 16.1297 93.5079 15.934 93.5079 15.5201V15.4978C93.5079 15.0615 93.7037 14.7931 94.1399 14.7931C95.1131 14.7707 95.9184 14.7707 96.5057 14.7204C98.0158 12.5727 99.5314 9.93847 101.041 6.99105C101.237 6.62751 101.528 6.50447 101.92 6.64988L102.87 6.99105C103.284 7.13646 103.407 7.45525 103.212 7.84675L103.206 7.84116ZM112.205 28.1208H96.8189C96.3771 28.1208 96.1589 27.9027 96.1589 27.4608V18.9597C96.1589 18.5235 96.3771 18.2998 96.8189 18.2998H112.205C112.641 18.2998 112.865 18.5179 112.865 18.9597V27.4608C112.865 27.8971 112.647 28.1208 112.205 28.1208ZM110.398 19.5917H98.6198V26.717H110.398V19.5917Z" fill="#231815"/>
<path d="M129.537 27.4218H128.491C128.027 27.4218 127.759 27.1757 127.759 26.6891V12.8412H119.906C119.442 12.8412 119.174 12.6231 119.174 12.1813C119.174 11.7394 119.442 11.5213 119.906 11.5213H127.731V8.20475C127.731 7.71817 127.977 7.47209 128.463 7.42175H129.537C130.001 7.42175 130.27 7.69021 130.27 8.15441V11.5213H138.29C138.776 11.5213 139.023 11.7394 139.023 12.1813C139.023 12.6231 138.776 12.8412 138.29 12.8412H130.27V26.6891C130.27 27.1533 130.024 27.4218 129.537 27.4218ZM119.442 23.4005C120.952 21.4486 122.004 19.424 122.759 17.1086C122.904 16.6723 123.223 16.4989 123.659 16.594L123.978 16.6667C124.42 16.7618 124.61 17.103 124.515 17.5448C123.978 20.1063 122.932 22.4218 121.394 24.7372C121.125 25.1511 120.762 25.2014 120.37 24.9329L119.587 24.4184C119.174 24.1499 119.123 23.7864 119.442 23.3949V23.4005ZM136.707 24.1332C135.779 21.6947 134.783 19.575 133.049 17.6455C132.731 17.2819 132.708 16.8904 133.1 16.5996L133.195 16.5269C133.558 16.2584 133.877 16.2361 134.218 16.5493C136.265 18.4285 137.63 20.5985 138.922 23.132C139.14 23.5459 139.017 23.915 138.581 24.1052L137.652 24.5191C137.216 24.7148 136.869 24.5918 136.702 24.1276L136.707 24.1332Z" fill="#231815"/>
<path d="M147.166 27.7348C146.774 27.9529 146.433 27.8802 146.215 27.5391C145.969 27.1979 146.069 26.8791 146.483 26.6107C150.337 23.9988 151.774 19.9552 151.847 15.3691H143.435C142.949 15.3691 142.68 15.123 142.703 14.6867C142.725 14.2505 142.971 14.0044 143.435 14.0044H161.651C162.138 14.0044 162.384 14.2505 162.384 14.6867C162.384 15.123 162.138 15.3691 161.651 15.3691H154.654C154.582 20.3411 151.97 25.0503 147.171 27.7292L147.166 27.7348ZM146.069 9.00999C146.069 8.59612 146.338 8.35004 146.802 8.35004H158.212C158.676 8.35004 158.944 8.59612 158.944 9.00999C158.944 9.44623 158.698 9.69232 158.212 9.69232H146.802C146.338 9.69232 146.069 9.44623 146.069 9.00999Z" fill="#231815"/>
<path d="M170.689 11.6164C170.348 17.3714 168.983 22.1477 164.52 26.1745C164.179 26.4933 163.816 26.4653 163.519 26.1745C163.2 25.8837 163.2 25.5649 163.519 25.2014C167.104 21.0571 167.786 16.9128 168.005 11.594C168.027 11.1074 168.273 10.8613 168.737 10.8613H169.979C170.465 10.8613 170.712 11.1298 170.684 11.6164H170.689ZM173.15 25.028V8.6913C173.15 8.20472 173.418 7.95863 173.883 7.95863H175.007C175.471 7.95863 175.739 8.20472 175.739 8.6913V23.9542C178.933 21.8792 181.472 18.9542 183.665 15.3971C183.933 14.9832 184.252 14.8602 184.638 15.1063C185.001 15.3244 185.102 15.6656 184.884 16.0794C182.882 20.0056 180.029 23.8087 175.376 26.3423C175.012 26.5381 174.716 26.5157 174.375 26.3199L173.67 25.9061C173.307 25.6879 173.156 25.4419 173.156 25.028H173.15Z" fill="#231815"/>
<path d="M208.676 8.76402C208.676 9.20026 208.458 9.42398 208.016 9.42398H199.503L199.599 15.3748H207.132C207.568 15.3748 207.792 15.5929 207.792 16.0347V16.0571C207.792 16.4933 207.574 16.717 207.132 16.717H199.671C200.477 21.0067 203.525 24.396 208.206 26.4206C208.62 26.594 208.743 26.9072 208.525 27.2987L208.402 27.5168C208.206 27.8804 207.915 27.981 207.524 27.8356C203.133 26.0795 199.867 23.0817 198.329 19.7428C196.769 23.0593 193.43 26.0571 188.989 27.8356C188.597 27.981 188.307 27.8859 188.111 27.5168L187.988 27.2987C187.77 26.9072 187.893 26.594 188.307 26.4206C192.988 24.396 196.036 21.0067 196.841 16.717H189.38C188.939 16.717 188.72 16.4989 188.72 16.0571V16.0347C188.72 15.5985 188.939 15.3748 189.38 15.3748H197.015V9.42398H188.502C188.061 9.42398 187.842 9.20585 187.842 8.76402C187.842 8.32219 188.061 8.10406 188.502 8.10406H208.01C208.446 8.10406 208.67 8.32219 208.67 8.76402H208.676Z" fill="#231815"/>
<path d="M219.99 11.4485V11.7897C219.99 12.0805 219.968 12.3042 219.845 12.595C219.213 14.2785 218.407 15.8613 217.356 17.3713C218.379 18.4955 219.28 19.5414 219.867 20.3467C220.113 20.6879 220.035 21.0067 219.722 21.2751L219.33 21.6163C219.011 21.9071 218.67 21.8344 218.402 21.4933C217.96 20.8836 217.401 20.2013 216.819 19.5917V27.7628C216.819 28.1991 216.601 28.4228 216.159 28.4228H215.281C214.839 28.4228 214.621 28.2047 214.621 27.7628V20.1566C213.916 20.7438 213.111 21.3534 212.182 21.9854C211.791 22.2539 211.478 22.1308 211.304 21.6946L211.159 21.3031C211.014 20.9396 211.137 20.6711 211.45 20.425C214.207 18.4228 216.304 15.6935 217.641 12.1588H212.104C211.662 12.1588 211.444 11.9407 211.444 11.4988V11.4485C211.444 11.0123 211.662 10.7886 212.104 10.7886H214.52V7.61741C214.52 7.18117 214.738 6.95746 215.18 6.95746H216.254C216.69 6.95746 216.914 7.17558 216.914 7.61741V10.7886H219.33C219.766 10.7886 219.99 11.0067 219.99 11.4485ZM233.888 10.5481V21.9742C233.888 22.4105 233.67 22.6342 233.228 22.6342H228.374V27.7628C228.374 28.1991 228.156 28.4228 227.714 28.4228H226.618C226.176 28.4228 225.958 28.2047 225.958 27.7628V22.6342H221.176C220.74 22.6342 220.516 22.4161 220.516 21.9742V10.5481C220.516 10.1118 220.734 9.88811 221.176 9.88811H225.958V7.62301C225.958 7.18677 226.176 6.96305 226.618 6.96305H227.714C228.15 6.96305 228.374 7.18117 228.374 7.62301V9.88811H233.228C233.665 9.88811 233.888 10.1062 233.888 10.5481ZM225.963 11.1801H222.865V15.4698H225.963V11.1801ZM225.963 16.717H222.865V21.2024H225.963V16.717ZM231.5 11.1801H228.379V15.4698H231.5V11.1801ZM231.5 16.717H228.379V21.2024H231.5V16.717Z" fill="#231815"/>
<path d="M10.2018 22.3323L9.16156 22.7629L8.68617 21.6164L9.72644 21.1801L9.55865 20.7775L6.89087 21.8848L7.05865 22.2875L8.30586 21.773L8.78125 22.9195L7.53405 23.4397L7.70183 23.8423L10.3696 22.735L10.2018 22.3323Z" fill="black"/>
<path d="M10.3982 25.5482L10.7394 25.3188L10.1074 24.3904L10.6778 23.9989L11.3322 24.9553L11.6678 24.7204L10.7729 23.4061L8.38477 25.0336L9.28521 26.3479L9.62078 26.1186L8.97201 25.1623L9.7662 24.6197L10.3982 25.5482Z" fill="black"/>
<path d="M12.2098 25.3295L10.0957 27.294L10.3927 27.6136L12.5067 25.6491L12.2098 25.3295Z" fill="black"/>
<path d="M16.0922 28.4229L15.7007 28.1544L13.9501 29.2898L14.5094 27.1589L12.6861 28.4173L13.1615 26.3983L12.77 26.1298L12.0374 29.3569L13.8382 28.1097L13.2846 30.2182L16.0922 28.4229Z" fill="black"/>
<path d="M14.8501 30.9172L15.2919 31.0794L15.84 30.5313L16.9977 30.962L17.0369 31.7226L17.4843 31.8904L17.2606 28.5347L14.8557 30.9116L14.8501 30.9172ZM16.1476 30.2125L16.9083 29.4463L16.9698 30.5145L16.1476 30.2069V30.2125Z" fill="black"/>
<path d="M19.8956 29.463C19.739 29.3791 19.5153 29.3176 19.23 29.2785L18.6316 29.189L18.2065 32.0469L18.7994 32.1364C19.0902 32.1811 19.3195 32.1867 19.4817 32.1588C19.6607 32.1308 19.8341 32.0581 20.0074 31.9462C20.3542 31.7225 20.5611 31.387 20.6282 30.9507C20.6954 30.5145 20.6003 30.1397 20.343 29.8266C20.2144 29.67 20.069 29.5525 19.9012 29.4686L19.8956 29.463ZM20.192 30.878C20.1473 31.1912 20.0018 31.4261 19.7614 31.5883C19.6439 31.6666 19.5153 31.7169 19.381 31.7393C19.2468 31.7617 19.0846 31.7561 18.8889 31.7281L18.6931 31.7002L18.9951 29.6532L19.1909 29.6811C19.56 29.7371 19.8229 29.8657 19.9851 30.067C20.164 30.2908 20.2312 30.5648 20.1864 30.878H20.192Z" fill="black"/>
<path d="M20.9294 32.4162L21.3992 32.3938L21.6845 31.6779L22.9205 31.6108L23.2617 32.2931L23.7371 32.2708L22.199 29.2786L20.935 32.4162H20.9294ZM22.7192 31.2081L21.8411 31.2529L22.2382 30.2518L22.7192 31.2081Z" fill="black"/>
<path d="M24.4232 29.1423L23.9971 29.2358L24.6153 32.0547L25.0414 31.9612L24.4232 29.1423Z" fill="black"/>
<path d="M27.6124 27.9139L28.1157 28.9262L26.9972 29.4799L26.4938 28.4676L26.1079 28.6577L27.3887 31.2472L27.7802 31.0515L27.1817 29.8434L28.2947 29.2897L28.8931 30.5034L29.2846 30.3076L28.0039 27.7181L27.6124 27.9139Z" fill="black"/>
<path d="M30.6332 26.1521C30.2193 26.1186 29.8557 26.2304 29.537 26.4989C29.2182 26.7673 29.0392 27.1085 29 27.5224C28.9609 27.9362 29.0728 28.2998 29.3356 28.613C29.632 28.9653 30.0012 29.1499 30.4318 29.1555C30.8233 29.1611 31.1645 29.0436 31.4497 28.8031C31.7741 28.5291 31.9531 28.1879 31.9922 27.774C32.0314 27.3602 31.9195 26.9966 31.651 26.6779C31.3826 26.3647 31.047 26.1857 30.6276 26.1521H30.6332ZM31.1924 28.4843C30.9799 28.6633 30.7226 28.7416 30.4262 28.7248C30.1298 28.7081 29.8781 28.5738 29.6712 28.3277C29.4754 28.0928 29.3915 27.8356 29.4139 27.5391C29.4363 27.2483 29.5649 27.0022 29.7942 26.8065C30.0235 26.6107 30.2864 26.5268 30.5772 26.5548C30.8681 26.5828 31.1141 26.7114 31.3099 26.9463C31.5056 27.1812 31.5951 27.4441 31.5727 27.7405C31.5504 28.0369 31.4217 28.2774 31.1868 28.4732L31.1924 28.4843Z" fill="black"/>
<path d="M32.25 24.2114L31.9256 23.9597L30.8462 25.3467L31.1706 25.5984L31.5733 25.0727L33.5308 26.5995L33.7992 26.2528L31.8417 24.7315L32.25 24.2114Z" fill="black"/>
<path d="M34.5986 24.2842L33.7485 23.8311L34.2742 22.8412L33.9162 22.6455L33.3849 23.641L32.7753 23.311L33.3178 22.2931L32.9543 22.0974L32.2048 23.5067L34.7552 24.8658L35.5046 23.4564L35.1411 23.2663L34.5986 24.2842Z" fill="black"/>
<path d="M35.9692 21.0011L35.7007 21.8065L33.3517 21.0179L33.2119 21.4317L35.9524 22.349L36.3607 21.1297L35.9692 21.0011Z" fill="black"/>
<path d="M21.5 0C11.8523 0 4 7.85235 4 17.5C4 27.1476 11.8523 35 21.5 35C31.1477 35 39 27.1476 39 17.5C39 7.85235 31.1532 0 21.5 0ZM21.5 34.3904C12.1879 34.3904 4.61521 26.8121 4.61521 17.5C4.61521 8.18792 12.1879 0.615213 21.5 0.615213C30.8121 0.615213 38.3904 8.19351 38.3904 17.5056C38.3904 26.8177 30.8121 34.396 21.5 34.396V34.3904Z" fill="black"/>
<path d="M10.4319 17.5336C10.4487 17.528 10.4599 17.5168 10.4711 17.5112C10.5438 17.4721 10.6165 17.4329 10.6892 17.3938C10.7228 17.377 10.7563 17.3546 10.7843 17.3379C10.8514 17.2987 10.9241 17.254 10.9912 17.2148C11.0248 17.1925 11.0583 17.1701 11.0919 17.1477C11.159 17.1086 11.2205 17.0638 11.282 17.0191C11.3212 16.9911 11.3548 16.9687 11.3939 16.9408C11.4498 16.896 11.5113 16.8569 11.5673 16.8121C11.6064 16.7786 11.6456 16.7506 11.6903 16.7171C11.7407 16.6779 11.791 16.6332 11.8413 16.594C11.8861 16.5549 11.9308 16.5157 11.9756 16.4766C12.0203 16.4374 12.0594 16.4039 12.1042 16.3647C12.1545 16.3144 12.2049 16.2696 12.2552 16.2193C12.2888 16.1857 12.3167 16.1578 12.3503 16.1298C12.4286 16.0459 12.5069 15.9676 12.5796 15.8837C13.0326 15.3636 13.3626 14.7819 13.5807 14.1835C13.6087 14.0996 13.631 14.0213 13.6534 13.943C13.6534 13.9262 13.6646 13.9095 13.6646 13.8927C13.6814 13.8144 13.6926 13.7361 13.7037 13.6634C13.7037 13.6522 13.7037 13.641 13.7037 13.6242C13.7093 13.5515 13.7149 13.4844 13.7149 13.4173C13.7149 13.4061 13.7149 13.3949 13.7149 13.3781C13.7149 13.3054 13.7093 13.2327 13.6982 13.16C13.6982 13.1432 13.6982 13.1321 13.6926 13.1153C13.6814 13.0426 13.6702 12.9755 13.6478 12.9027C13.631 12.8356 13.6031 12.7629 13.5807 12.7014C13.5807 12.6902 13.5695 12.6734 13.5639 12.6623C13.536 12.6007 13.508 12.5336 13.4744 12.4721C13.4744 12.4609 13.4633 12.4553 13.4577 12.4441C13.4241 12.3882 13.3905 12.3323 13.357 12.2819C13.3514 12.2708 13.3458 12.2652 13.3402 12.254C13.3011 12.198 13.2563 12.1477 13.2116 12.0974C13.2004 12.0862 13.1948 12.075 13.1836 12.0694C13.1389 12.0191 13.0885 11.9743 13.0382 11.9296C12.9879 11.8849 12.9319 11.8401 12.876 11.801C12.8648 11.7898 12.8536 11.7842 12.8424 11.7786C12.7865 11.7394 12.7306 11.7059 12.6691 11.6723C12.6579 11.6723 12.6523 11.6667 12.6411 11.6611C12.5852 11.6332 12.5292 11.6052 12.4677 11.5828C12.4565 11.5828 12.4454 11.5717 12.4342 11.5717C12.3726 11.5493 12.3055 11.5269 12.2384 11.5101C12.2216 11.5101 12.2105 11.5045 12.1937 11.4989C12.1266 11.4822 12.0594 11.471 11.9923 11.4598H11.9811C11.9084 11.4486 11.8357 11.4486 11.7686 11.4486C11.7574 11.4486 11.7518 11.4486 11.7407 11.4486C11.7351 11.4486 11.7239 11.4486 11.7183 11.4486C11.6456 11.4486 11.5729 11.4486 11.5002 11.4598C11.489 11.4598 11.4778 11.4598 11.4666 11.4598C11.3995 11.471 11.3268 11.4822 11.2597 11.4989C11.2485 11.4989 11.2317 11.5045 11.2205 11.5101C11.1478 11.5269 11.0695 11.5549 10.9968 11.5828C10.98 11.5884 10.9633 11.594 10.9465 11.5996C10.8682 11.6332 10.7899 11.6667 10.7116 11.7059C10.6165 11.7562 10.5214 11.8177 10.4263 11.8737C9.96773 12.1533 9.54267 12.5057 9.16795 12.9363C7.96549 14.3233 7.15453 16.6444 7.61873 18.1768C8.46325 18.3054 9.48674 18.037 10.4319 17.5504V17.5336Z" fill="black"/>
<path d="M14.011 11.8065C14.5423 12.5615 14.6598 13.5235 14.3354 14.4463C14.0781 15.1622 13.6922 15.8165 13.1889 16.4038C12.5177 17.1812 11.6117 17.8467 10.6665 18.3054C11.2146 19.9273 12.171 21.6667 13.7538 23.2494C17.1039 26.5995 21.7851 28.6577 21.7851 28.6577C21.7851 28.6577 26.4663 26.5995 29.8164 23.2494C31.3992 21.6667 32.3555 19.9273 32.9036 18.3054C31.9585 17.8411 31.0524 17.1812 30.3813 16.4038C29.8779 15.8221 29.492 15.1622 29.2347 14.4463C28.9048 13.5291 29.0222 12.5671 29.5591 11.8065C30.0793 11.0682 30.9238 10.632 31.8242 10.632C32.1151 10.632 32.4059 10.6767 32.6855 10.7662C31.6508 8.736 29.7045 7.20916 26.964 7.15323C26.8019 7.15323 26.6676 7.15323 26.5558 7.1756C24.313 7.29864 22.5233 8.73041 22.3891 11.4933L22.0423 12.3881C22.1822 10.2684 22.0591 8.79752 22.0591 8.77515C22.0479 8.6633 21.964 8.5794 21.8354 8.59059C21.7236 8.60177 21.6397 8.70245 21.6508 8.8143C21.6508 8.83108 21.7795 10.4027 21.6117 12.6286L21.1699 11.4989C21.0356 8.736 19.2459 7.30424 17.0032 7.18119C16.8913 7.16441 16.7571 7.15323 16.5949 7.15882C13.86 7.21475 11.9137 8.7416 10.8734 10.7718C11.1531 10.6823 11.4439 10.6376 11.7347 10.6376C12.6352 10.6376 13.4797 11.0794 13.9998 11.8121L14.011 11.8065ZM24.7605 9.65882C25.0457 9.65882 25.2806 9.89372 25.2806 10.179C25.2806 10.4642 25.0457 10.6991 24.7605 10.6991C24.4752 10.6991 24.2403 10.4642 24.2403 10.179C24.2403 9.89372 24.4752 9.65882 24.7605 9.65882ZM18.8097 9.65882C19.0949 9.65882 19.3298 9.89372 19.3298 10.179C19.3298 10.4642 19.0949 10.6991 18.8097 10.6991C18.5244 10.6991 18.2895 10.4642 18.2895 10.179C18.2895 9.89372 18.5244 9.65882 18.8097 9.65882ZM18.709 11.8177C20.0904 11.6834 21.2258 12.5056 21.6061 12.8188C21.5614 13.3445 21.5054 13.8982 21.4215 14.4799C21.4048 14.5917 21.4831 14.698 21.5949 14.7092C21.6061 14.7092 21.6117 14.7092 21.6229 14.7092C21.7236 14.7092 21.813 14.6365 21.8242 14.5358C21.9137 13.9206 21.9752 13.3277 22.0144 12.774C22.4338 12.4385 23.53 11.6834 24.8611 11.8121C27.0591 12.0246 27.7638 13.9429 27.7694 14.8602C27.7694 16.0123 27.3947 17.5615 25.6497 19.3065C23.9048 21.0514 21.7851 21.9127 21.7851 21.9127C21.7851 21.9127 19.6654 21.0514 17.9204 19.3065C16.1755 17.5615 15.8007 16.0123 15.8007 14.8602C15.8007 13.9429 16.511 12.0246 18.709 11.8121V11.8177Z" fill="black"/>
<path d="M32.5682 11.5604C32.4955 11.5324 32.4172 11.51 32.3445 11.4877C32.3333 11.4877 32.3165 11.4821 32.3054 11.4765C32.2382 11.4597 32.1655 11.4485 32.0984 11.4373C32.0872 11.4373 32.076 11.4373 32.0649 11.4373C31.9922 11.4261 31.9194 11.4261 31.8467 11.4261C31.8411 11.4261 31.83 11.4261 31.8244 11.4261C31.8132 11.4261 31.8076 11.4261 31.7964 11.4261C31.7237 11.4261 31.651 11.4261 31.5839 11.4373H31.5727C31.5056 11.4485 31.4385 11.4597 31.3713 11.4765C31.3546 11.4765 31.3434 11.4821 31.3266 11.4877C31.2595 11.5044 31.1924 11.5268 31.1309 11.5492C31.1197 11.5492 31.1085 11.5604 31.0973 11.5604C31.0414 11.5827 30.9799 11.6107 30.9239 11.6387C30.9127 11.6387 30.9071 11.6443 30.896 11.6499C30.8344 11.6834 30.7785 11.717 30.7226 11.7561C30.7114 11.7617 30.7002 11.7729 30.689 11.7785C30.6331 11.8176 30.5772 11.8624 30.5268 11.9071C30.4765 11.9519 30.4262 11.9966 30.3814 12.047C30.3702 12.0581 30.3646 12.0693 30.3535 12.0749C30.3087 12.1253 30.264 12.1756 30.2248 12.2315C30.2192 12.2427 30.2136 12.2483 30.208 12.2595C30.1745 12.3098 30.1409 12.3657 30.1074 12.4217C30.1074 12.4329 30.0962 12.4385 30.0906 12.4496C30.057 12.5112 30.0291 12.5727 30.0011 12.6398C29.9955 12.651 29.9899 12.6678 29.9843 12.6789C29.9564 12.7461 29.934 12.8132 29.9172 12.8803C29.9004 12.9474 29.8837 13.0201 29.8725 13.0928C29.8725 13.1096 29.8725 13.1208 29.8669 13.1376C29.8557 13.2103 29.8501 13.283 29.8501 13.3557C29.8501 13.3669 29.8501 13.378 29.8501 13.3948C29.8501 13.4619 29.8501 13.5346 29.8613 13.6018C29.8613 13.6129 29.8613 13.6241 29.8613 13.6409C29.8725 13.7192 29.8837 13.7919 29.9004 13.8702C29.9004 13.887 29.906 13.9038 29.9116 13.9206C29.934 13.9989 29.9564 14.0827 29.9843 14.161C30.2024 14.7651 30.5324 15.3411 30.9854 15.8613C31.0582 15.9452 31.1365 16.0291 31.2147 16.1074C31.2427 16.1409 31.2763 16.1689 31.3098 16.1968C31.3602 16.2472 31.4105 16.2975 31.4608 16.3423C31.5 16.3814 31.5447 16.4206 31.5895 16.4541C31.6342 16.4933 31.679 16.5324 31.7237 16.5716C31.774 16.6107 31.8244 16.6555 31.8747 16.6946C31.9139 16.7282 31.953 16.7561 31.9977 16.7897C32.0537 16.8344 32.1152 16.8736 32.1711 16.9183C32.2103 16.9463 32.2438 16.9742 32.283 16.9966C32.3445 17.0414 32.4116 17.0805 32.4731 17.1253C32.5067 17.1476 32.5403 17.17 32.5738 17.1924C32.6409 17.2371 32.7136 17.2763 32.7807 17.3154C32.8143 17.3322 32.8479 17.3546 32.8758 17.3713C32.9485 17.4105 33.0212 17.4496 33.0939 17.4888C33.1051 17.4944 33.1219 17.5056 33.1331 17.5112C34.0839 17.9977 35.1018 18.2662 35.9463 18.1376C36.4049 16.6051 35.5939 14.2841 34.3971 12.8971C34.0224 12.4664 33.5973 12.1141 33.1387 11.8344C33.0436 11.7785 32.9485 11.717 32.8535 11.6666C32.7752 11.6275 32.6969 11.5939 32.6186 11.5604C32.6018 11.5548 32.585 11.5492 32.5682 11.5436V11.5604Z" fill="black"/>
<path d="M21.8472 5.90049C21.8584 5.17901 21.5005 4.31212 20.8741 3.5459C20.2477 2.78527 19.4591 2.26514 18.7544 2.13651C18.7432 2.85798 19.1012 3.72487 19.7276 4.49109C20.354 5.25172 21.1425 5.77185 21.8472 5.90049Z" fill="black"/>
<path d="M19.8452 6.67221C20.4156 6.67221 20.9358 6.48764 21.2546 6.17444C20.9358 5.86125 20.4156 5.67668 19.8396 5.67668C19.2691 5.67668 18.749 5.86125 18.4302 6.17444C18.749 6.48764 19.2691 6.67221 19.8452 6.67221Z" fill="black"/>
<path d="M23.7712 5.53126C24.2466 5.20688 24.5654 4.74827 24.6325 4.28406C24.1795 4.18339 23.6314 4.31203 23.1616 4.63641C22.6862 4.96079 22.3674 5.41941 22.3003 5.88361C22.7533 5.98428 23.3014 5.85565 23.7768 5.53126H23.7712Z" fill="black"/>
<path d="M21.2651 6.6667C20.9072 7.15887 20.9184 7.77968 21.2931 8.05373C21.472 8.18236 21.7069 8.21592 21.9586 8.14321C22.2159 8.07051 22.4508 7.89713 22.6242 7.65664C22.9821 7.16447 22.9709 6.54366 22.5962 6.26961C22.4788 6.18013 22.3333 6.14098 22.1879 6.14098C21.8691 6.14098 21.5112 6.33113 21.2651 6.6667Z" fill="black"/>
</g>
<defs>
<filter id="filter0_d_377_3231" x="0" y="0" width="237.888" height="43" filterUnits="userSpaceOnUse" color-interpolation-filters="sRGB">
<feFlood flood-opacity="0" result="BackgroundImageFix"/>
<feColorMatrix in="SourceAlpha" type="matrix" values="0 0 0 0 0 0 0 0 0 0 0 0 0 0 0 0 0 0 127 0" result="hardAlpha"/>
<feOffset dy="4"/>
<feGaussianBlur stdDeviation="2"/>
<feComposite in2="hardAlpha" operator="out"/>
<feColorMatrix type="matrix" values="0 0 0 0 0 0 0 0 0 0 0 0 0 0 0 0 0 0 0.25 0"/>
<feBlend mode="normal" in2="BackgroundImageFix" result="effect1_dropShadow_377_3231"/>
<feBlend mode="normal" in="SourceGraphic" in2="effect1_dropShadow_377_3231" result="shape"/>
</filter>
</defs>
</svg>
