<svg width="181" height="35" viewBox="0 0 181 35" fill="none" xmlns="http://www.w3.org/2000/svg">
    <path d="M60.5258 8.42281C60.5258 8.83668 60.3077 9.0548 59.8659 9.0548H51.6947V18.7863H60.8167C61.2529 18.7863 61.4766 19.0045 61.4766 19.4463V19.4687C61.4766 19.9049 61.2585 20.1286 60.8167 20.1286H51.6947V27.7629C51.6947 28.1991 51.4766 28.4228 51.0348 28.4228H49.8659C49.4296 28.4228 49.2059 28.2047 49.2059 27.7629V20.1286H40.084C39.6477 20.1286 39.424 19.9105 39.424 19.4687V19.4463C39.424 19.0101 39.6422 18.7863 40.084 18.7863H49.2059V9.0548H41.0348C40.5985 9.0548 40.3748 8.83668 40.3748 8.39484C40.3748 8.00335 40.5929 7.78522 41.0348 7.78522H59.8603C60.3021 7.78522 60.5202 8.00335 60.5202 8.41722L60.5258 8.42281ZM43.9934 10.8389C45.0672 12.472 46.018 14.0324 46.8234 15.5705C47.0415 15.962 46.9464 16.2528 46.5549 16.4709L45.8222 16.8624C45.4307 17.0582 45.1399 16.9575 44.9218 16.5716C43.971 14.7427 43.0426 13.1823 42.2149 11.84C41.9688 11.4765 42.0695 11.1577 42.433 10.962L43.0929 10.5984C43.4565 10.4027 43.7753 10.4754 43.9934 10.8445V10.8389ZM58.8927 11.8624C58.188 13.3501 57.2093 14.9608 55.99 16.6667C55.7439 17.0078 55.4307 17.0582 55.0896 16.8624L54.4576 16.4989C54.0661 16.2808 53.9934 15.962 54.2395 15.5984C55.1903 14.2058 56.0907 12.623 56.8737 10.9396C57.0415 10.5481 57.3603 10.425 57.7518 10.6208L58.5795 11.0123C58.943 11.1801 59.0941 11.4765 58.8983 11.868L58.8927 11.8624Z" fill="#231815"/>
    <path d="M65.4811 9.64205C65.0392 9.66442 64.7987 9.47426 64.7484 9.03243C64.726 8.69126 64.9162 8.47314 65.358 8.44518C68.1377 8.19909 70.9677 7.76285 74.0381 7.1029C74.4296 7.03019 74.7205 7.1756 74.8435 7.5671C74.9386 7.9586 74.7708 8.22706 74.3569 8.32214C73.3334 8.56822 72.2093 8.78634 70.9677 8.95413V13.8814H74.5247C74.9665 13.8814 75.1847 14.0995 75.1847 14.5414C75.1847 14.9329 74.9665 15.151 74.5247 15.151H71.2081C73.0594 17.9306 74.2786 19.8098 74.8882 20.783C75.1064 21.1242 75.056 21.415 74.7428 21.6834L74.1556 22.1476C73.792 22.4385 73.4509 22.3658 73.2272 21.9519C72.6399 20.8054 71.7898 19.4183 70.9621 18.0984V27.7573C70.9621 28.1935 70.7439 28.4172 70.3021 28.4172H69.3737C68.9319 28.4172 68.7137 28.1991 68.7137 27.7573V19.6365C67.9811 21.2472 67.0079 22.83 65.716 24.4127C65.4251 24.7763 65.084 24.7763 64.7876 24.3904L64.4464 23.9262C64.2003 23.6074 64.2003 23.3165 64.4464 22.9978C66.1802 20.7327 67.5169 18.0705 68.3502 15.1454H65.0113C64.5694 15.1454 64.3513 14.9273 64.3513 14.4854C64.3513 14.0939 64.5694 13.8758 65.0113 13.8758H68.7193V9.31766C67.7686 9.41274 66.6947 9.53578 65.4755 9.63645L65.4811 9.64205ZM85.3804 27.1141H76.141C75.7048 27.1141 75.4811 26.896 75.4811 26.4541V9.95525C75.4811 9.519 75.6992 9.29529 76.141 9.29529H85.3804C85.8222 9.29529 86.0404 9.51341 86.0404 9.95525V26.4541C86.0404 26.8904 85.8222 27.1141 85.3804 27.1141ZM83.6019 10.6152H77.8692V25.6376H83.6019V10.6152Z" fill="#231815"/>
    <path d="M99.2059 7.84116C98.1097 9.96084 96.7674 12.2036 95.1343 14.5973C98.8648 14.4016 102.791 14.1107 106.913 13.7416C105.839 12.5224 104.888 11.4989 104.061 10.6711C103.77 10.3523 103.77 10.0112 104.133 9.74272L104.575 9.42393C104.894 9.17785 105.207 9.20581 105.503 9.49664C107.847 11.7617 109.72 13.887 111.281 15.7886C111.549 16.1297 111.527 16.4485 111.208 16.717L110.649 17.1812C110.308 17.472 109.989 17.4497 109.72 17.1085C109.088 16.3031 108.501 15.5984 107.964 14.9608C101.773 15.5928 95.8223 15.962 90.1903 16.1297C89.7764 16.1297 89.5079 15.934 89.5079 15.5201V15.4978C89.5079 15.0615 89.7037 14.7931 90.1399 14.7931C91.1131 14.7707 91.9184 14.7707 92.5057 14.7204C94.0158 12.5727 95.5314 9.93847 97.0415 6.99105C97.2372 6.62751 97.5281 6.50447 97.9196 6.64988L98.8704 6.99105C99.2842 7.13646 99.4073 7.45525 99.2115 7.84675L99.2059 7.84116ZM108.205 28.1208H92.8189C92.3771 28.1208 92.1589 27.9027 92.1589 27.4608V18.9597C92.1589 18.5235 92.3771 18.2998 92.8189 18.2998H108.205C108.641 18.2998 108.865 18.5179 108.865 18.9597V27.4608C108.865 27.8971 108.647 28.1208 108.205 28.1208ZM106.398 19.5917H94.6198V26.717H106.398V19.5917Z" fill="#231815"/>
    <path d="M125.537 27.4217H124.491C124.027 27.4217 123.759 27.1756 123.759 26.689V12.8412H115.906C115.442 12.8412 115.173 12.623 115.173 12.1812C115.173 11.7394 115.442 11.5212 115.906 11.5212H123.731V8.20469C123.731 7.71811 123.977 7.47203 124.463 7.42169H125.537C126.001 7.42169 126.27 7.69015 126.27 8.15435V11.5212H134.29C134.776 11.5212 135.022 11.7394 135.022 12.1812C135.022 12.623 134.776 12.8412 134.29 12.8412H126.27V26.689C126.27 27.1532 126.024 27.4217 125.537 27.4217ZM115.442 23.4004C116.952 21.4485 118.003 19.4239 118.759 17.1085C118.904 16.6723 119.223 16.4989 119.659 16.594L119.978 16.6667C120.42 16.7617 120.61 17.1029 120.515 17.5447C119.978 20.1063 118.932 22.4217 117.394 24.7371C117.125 25.151 116.762 25.2013 116.37 24.9329L115.587 24.4183C115.173 24.1499 115.123 23.7863 115.442 23.3948V23.4004ZM132.707 24.1331C131.779 21.6946 130.783 19.5749 129.049 17.6454C128.731 17.2819 128.708 16.8904 129.1 16.5995L129.195 16.5268C129.558 16.2584 129.877 16.236 130.218 16.5492C132.265 18.4284 133.63 20.5984 134.922 23.132C135.14 23.5459 135.017 23.915 134.581 24.1051L133.652 24.519C133.216 24.7148 132.869 24.5917 132.701 24.1275L132.707 24.1331Z" fill="#231815"/>
    <path d="M143.166 27.7349C142.774 27.953 142.433 27.8803 142.215 27.5391C141.969 27.198 142.069 26.8792 142.483 26.6107C146.337 23.9989 147.774 19.9553 147.847 15.3691H139.435C138.949 15.3691 138.68 15.123 138.703 14.6868C138.725 14.2506 138.971 14.0045 139.435 14.0045H157.651C158.138 14.0045 158.384 14.2506 158.384 14.6868C158.384 15.123 158.138 15.3691 157.651 15.3691H150.654C150.582 20.3412 147.97 25.0503 143.171 27.7293L143.166 27.7349ZM142.069 9.01006C142.069 8.59619 142.338 8.35011 142.802 8.35011H154.211C154.676 8.35011 154.944 8.59619 154.944 9.01006C154.944 9.44631 154.698 9.69239 154.211 9.69239H142.802C142.338 9.69239 142.069 9.44631 142.069 9.01006Z" fill="#231815"/>
    <path d="M166.689 11.6163C166.348 17.3714 164.983 22.1476 160.52 26.1745C160.179 26.4933 159.816 26.4653 159.519 26.1745C159.2 25.8837 159.2 25.5649 159.519 25.2013C163.104 21.057 163.786 16.9128 164.005 11.594C164.027 11.1074 164.273 10.8613 164.737 10.8613H165.979C166.465 10.8613 166.712 11.1298 166.684 11.6163H166.689ZM169.15 25.028V8.69127C169.15 8.2047 169.418 7.95861 169.883 7.95861H171.007C171.471 7.95861 171.739 8.2047 171.739 8.69127V23.9541C174.933 21.8792 177.472 18.9541 179.665 15.3971C179.933 14.9832 180.252 14.8602 180.638 15.1063C181.001 15.3244 181.102 15.6655 180.884 16.0794C178.882 20.0056 176.029 23.8087 171.376 26.3423C171.012 26.538 170.716 26.5157 170.375 26.3199L169.67 25.906C169.307 25.6879 169.156 25.4418 169.156 25.028H169.15Z" fill="#231815"/>
    <path d="M6.20245 22.3322L5.16218 22.7629L4.68679 21.6163L5.72706 21.1801L5.55927 20.7774L2.89149 21.8848L3.05927 22.2875L4.30648 21.7729L4.78187 22.9195L3.53466 23.4396L3.70245 23.8423L6.37023 22.7349L6.20245 22.3322Z" fill="black"/>
    <path d="M6.39822 25.5481L6.73938 25.3188L6.10739 24.3904L6.67786 23.9989L7.33222 24.9553L7.66779 24.7204L6.77294 23.4061L4.3848 25.0336L5.28524 26.3479L5.62081 26.1186L4.97204 25.1622L5.76623 24.6197L6.39822 25.5481Z" fill="black"/>
    <path d="M8.2103 25.3295L6.09624 27.294L6.3932 27.6135L8.50725 25.649L8.2103 25.3295Z" fill="black"/>
    <path d="M12.0917 28.4228L11.7002 28.1544L9.94968 29.2897L10.509 27.1589L8.6857 28.4172L9.16109 26.3982L8.76959 26.1298L8.03693 29.3568L9.83782 28.1096L9.28413 30.2181L12.0917 28.4228Z" fill="black"/>
    <path d="M10.8501 30.9172L11.2919 31.0794L11.84 30.5313L12.9978 30.962L13.0369 31.7226L13.4843 31.8904L13.2606 28.5347L10.8557 30.9116L10.8501 30.9172ZM12.1477 30.2125L12.9083 29.4463L12.9698 30.5145L12.1477 30.2069V30.2125Z" fill="black"/>
    <path d="M15.8949 29.4631C15.7383 29.3792 15.5146 29.3177 15.2293 29.2785L14.6309 29.189L14.2058 32.047L14.7987 32.1365C15.0895 32.1812 15.3188 32.1868 15.481 32.1588C15.66 32.1309 15.8333 32.0582 16.0067 31.9463C16.3535 31.7226 16.5604 31.387 16.6275 30.9508C16.6946 30.5145 16.5996 30.1398 16.3423 29.8266C16.2137 29.67 16.0682 29.5526 15.9005 29.4687L15.8949 29.4631ZM16.1913 30.8781C16.1465 31.1913 16.0011 31.4262 15.7606 31.5884C15.6432 31.6667 15.5146 31.717 15.3803 31.7394C15.2461 31.7617 15.0839 31.7561 14.8882 31.7282L14.6924 31.7002L14.9944 29.6532L15.1902 29.6812C15.5593 29.7371 15.8222 29.8658 15.9843 30.0671C16.1633 30.2908 16.2304 30.5649 16.1857 30.8781H16.1913Z" fill="black"/>
    <path d="M16.9295 32.4161L17.3993 32.3937L17.6846 31.6779L18.9206 31.6107L19.2617 32.2931L19.7371 32.2707L18.1991 29.2785L16.9351 32.4161H16.9295ZM18.7192 31.2081L17.8412 31.2528L18.2383 30.2517L18.7192 31.2081Z" fill="black"/>
    <path d="M20.4232 29.1422L19.9971 29.2357L20.6153 32.0546L21.0414 31.9612L20.4232 29.1422Z" fill="black"/>
    <path d="M23.613 27.9139L24.1163 28.9262L22.9978 29.4799L22.4944 28.4676L22.1085 28.6577L23.3893 31.2472L23.7808 31.0515L23.1823 29.8434L24.2953 29.2897L24.8937 30.5034L25.2852 30.3076L24.0045 27.7181L23.613 27.9139Z" fill="black"/>
    <path d="M26.6331 26.1521C26.2192 26.1186 25.8557 26.2304 25.5369 26.4989C25.2181 26.7673 25.0391 27.1085 25 27.5224C24.9608 27.9362 25.0727 28.2998 25.3356 28.613C25.632 28.9653 26.0011 29.1499 26.4318 29.1555C26.8233 29.1611 27.1644 29.0436 27.4497 28.8031C27.774 28.5291 27.953 28.1879 27.9922 27.7741C28.0313 27.3602 27.9195 26.9967 27.651 26.6779C27.3825 26.3647 27.047 26.1857 26.6275 26.1521H26.6331ZM27.1924 28.4843C26.9799 28.6633 26.7226 28.7416 26.4262 28.7248C26.1297 28.7081 25.8781 28.5738 25.6711 28.3277C25.4754 28.0928 25.3915 27.8356 25.4139 27.5392C25.4362 27.2483 25.5649 27.0022 25.7942 26.8065C26.0235 26.6107 26.2863 26.5269 26.5772 26.5548C26.868 26.5828 27.1141 26.7114 27.3098 26.9463C27.5056 27.1812 27.5951 27.4441 27.5727 27.7405C27.5503 28.0369 27.4217 28.2774 27.1868 28.4732L27.1924 28.4843Z" fill="black"/>
    <path d="M28.2494 24.2114L27.925 23.9597L26.8456 25.3467L27.17 25.5984L27.5727 25.0727L29.5302 26.5995L29.7986 26.2528L27.8411 24.7315L28.2494 24.2114Z" fill="black"/>
    <path d="M30.5984 24.2841L29.7483 23.8311L30.274 22.8412L29.9161 22.6454L29.3848 23.6409L28.7752 23.311L29.3177 22.2931L28.9541 22.0973L28.2047 23.5067L30.755 24.8658L31.5045 23.4564L31.1409 23.2662L30.5984 24.2841Z" fill="black"/>
    <path d="M31.9687 21.0011L31.7002 21.8065L29.3512 21.0179L29.2114 21.4318L31.9519 22.349L32.3602 21.1298L31.9687 21.0011Z" fill="black"/>
    <path d="M17.5 0C7.85235 0 0 7.85235 0 17.5C0 27.1476 7.85235 35 17.5 35C27.1477 35 35 27.1476 35 17.5C35 7.85235 27.1532 0 17.5 0ZM17.5 34.3904C8.18792 34.3904 0.615213 26.8121 0.615213 17.5C0.615213 8.18792 8.18792 0.615213 17.5 0.615213C26.8121 0.615213 34.3904 8.19351 34.3904 17.5056C34.3904 26.8177 26.8121 34.396 17.5 34.396V34.3904Z" fill="black"/>
    <path d="M6.43176 17.5336C6.44853 17.528 6.45972 17.5168 6.47091 17.5112C6.54361 17.472 6.61632 17.4329 6.68903 17.3937C6.72258 17.377 6.75614 17.3546 6.78411 17.3378C6.85122 17.2987 6.92393 17.2539 6.99104 17.2148C7.0246 17.1924 7.05815 17.17 7.09171 17.1477C7.15883 17.1085 7.22035 17.0638 7.28187 17.019C7.32102 16.9911 7.35458 16.9687 7.39372 16.9407C7.44965 16.896 7.51117 16.8568 7.5671 16.8121C7.60625 16.7785 7.6454 16.7506 7.69015 16.717C7.74048 16.6779 7.79082 16.6331 7.84115 16.594C7.8859 16.5548 7.93064 16.5157 7.97538 16.4765C8.02012 16.4374 8.05927 16.4038 8.10402 16.3647C8.15435 16.3143 8.20469 16.2696 8.25502 16.2192C8.28858 16.1857 8.31654 16.1577 8.3501 16.1298C8.4284 16.0459 8.5067 15.9676 8.57941 15.8837C9.03243 15.3635 9.3624 14.7819 9.58052 14.1835C9.60849 14.0996 9.63086 14.0213 9.65323 13.943C9.65323 13.9262 9.66442 13.9094 9.66442 13.8926C9.6812 13.8143 9.69238 13.736 9.70357 13.6633C9.70357 13.6521 9.70357 13.6409 9.70357 13.6242C9.70916 13.5515 9.71475 13.4843 9.71475 13.4172C9.71475 13.406 9.71475 13.3949 9.71475 13.3781C9.71475 13.3054 9.70916 13.2327 9.69798 13.16C9.69798 13.1432 9.69798 13.132 9.69238 13.1152C9.6812 13.0425 9.67001 12.9754 9.64764 12.9027C9.63086 12.8356 9.6029 12.7629 9.58052 12.7013C9.58052 12.6902 9.56934 12.6734 9.56375 12.6622C9.53578 12.6007 9.50782 12.5336 9.47426 12.472C9.47426 12.4609 9.46308 12.4553 9.45748 12.4441C9.42393 12.3881 9.39037 12.3322 9.35681 12.2819C9.35122 12.2707 9.34563 12.2651 9.34003 12.2539C9.30088 12.198 9.25614 12.1477 9.2114 12.0973C9.20021 12.0861 9.19462 12.0749 9.18343 12.0694C9.13869 12.019 9.08836 11.9743 9.03802 11.9295C8.98768 11.8848 8.93176 11.8401 8.87583 11.8009C8.86464 11.7897 8.85346 11.7841 8.84227 11.7785C8.78634 11.7394 8.73041 11.7058 8.66889 11.6723C8.65771 11.6723 8.65211 11.6667 8.64093 11.6611C8.585 11.6331 8.52907 11.6052 8.46755 11.5828C8.45636 11.5828 8.44518 11.5716 8.43399 11.5716C8.37247 11.5492 8.30536 11.5269 8.23824 11.5101C8.22147 11.5101 8.21028 11.5045 8.1935 11.4989C8.12639 11.4821 8.05927 11.4709 7.99216 11.4597H7.98097C7.90827 11.4486 7.83556 11.4486 7.76845 11.4486C7.75726 11.4486 7.75167 11.4486 7.74048 11.4486C7.73489 11.4486 7.7237 11.4486 7.71811 11.4486C7.6454 11.4486 7.5727 11.4486 7.49999 11.4597C7.4888 11.4597 7.47762 11.4597 7.46643 11.4597C7.39932 11.4709 7.32661 11.4821 7.2595 11.4989C7.24831 11.4989 7.23153 11.5045 7.22035 11.5101C7.14764 11.5269 7.06934 11.5548 6.99663 11.5828C6.97985 11.5884 6.96308 11.594 6.9463 11.5996C6.868 11.6331 6.7897 11.6667 6.7114 11.7058C6.61632 11.7562 6.52124 11.8177 6.42616 11.8736C5.96755 12.1532 5.54249 12.5056 5.16777 12.9362C3.96531 14.3233 3.15435 16.6443 3.61856 18.1767C4.46308 18.3054 5.48657 18.0369 6.43176 17.5503V17.5336Z" fill="black"/>
    <path d="M10.0112 11.8065C10.5425 12.5615 10.66 13.5235 10.3356 14.4463C10.0783 15.1622 9.69239 15.8165 9.18904 16.4038C8.51789 17.1812 7.61185 17.8467 6.66666 18.3054C7.21476 19.9273 8.17114 21.6667 9.75391 23.2494C13.104 26.5995 17.7852 28.6577 17.7852 28.6577C17.7852 28.6577 22.4664 26.5995 25.8166 23.2494C27.3993 21.6667 28.3557 19.9273 28.9038 18.3054C27.9586 17.8412 27.0526 17.1812 26.3814 16.4038C25.8781 15.8221 25.4922 15.1622 25.2349 14.4463C24.9049 13.5291 25.0224 12.5671 25.5593 11.8065C26.0794 11.0682 26.9239 10.632 27.8244 10.632C28.1152 10.632 28.406 10.6767 28.6857 10.7662C27.651 8.73601 25.7047 7.20916 22.9642 7.15324C22.802 7.15324 22.6678 7.15324 22.5559 7.17561C20.3132 7.29865 18.5235 8.73042 18.3893 11.4933L18.0425 12.3881C18.1823 10.2684 18.0593 8.79753 18.0593 8.77516C18.0481 8.6633 17.9642 8.57941 17.8356 8.5906C17.7237 8.60178 17.6398 8.70245 17.651 8.81431C17.651 8.83109 17.7796 10.4027 17.6119 12.6286L17.17 11.4989C17.0358 8.73601 15.2461 7.30424 13.0034 7.1812C12.8915 7.16442 12.7573 7.15324 12.5951 7.15883C9.86018 7.21476 7.91387 8.7416 6.8736 10.7718C7.15324 10.6823 7.44407 10.6376 7.7349 10.6376C8.63534 10.6376 9.47986 11.0794 10 11.8121L10.0112 11.8065ZM20.7606 9.65883C21.0459 9.65883 21.2808 9.89373 21.2808 10.179C21.2808 10.4642 21.0459 10.6991 20.7606 10.6991C20.4754 10.6991 20.2405 10.4642 20.2405 10.179C20.2405 9.89373 20.4754 9.65883 20.7606 9.65883ZM14.8098 9.65883C15.0951 9.65883 15.33 9.89373 15.33 10.179C15.33 10.4642 15.0951 10.6991 14.8098 10.6991C14.5246 10.6991 14.2897 10.4642 14.2897 10.179C14.2897 9.89373 14.5246 9.65883 14.8098 9.65883ZM14.7092 11.8177C16.0906 11.6834 17.2259 12.5056 17.6063 12.8188C17.5615 13.3445 17.5056 13.8982 17.4217 14.4799C17.4049 14.5917 17.4832 14.698 17.5951 14.7092C17.6063 14.7092 17.6119 14.7092 17.623 14.7092C17.7237 14.7092 17.8132 14.6365 17.8244 14.5358C17.9139 13.9206 17.9754 13.3277 18.0145 12.774C18.434 12.4385 19.5302 11.6834 20.8613 11.8121C23.0593 12.0246 23.764 13.9429 23.7696 14.8602C23.7696 16.0123 23.3949 17.5615 21.6499 19.3065C19.9049 21.0514 17.7852 21.9127 17.7852 21.9127C17.7852 21.9127 15.6655 21.0514 13.9206 19.3065C12.1756 17.5615 11.8009 16.0123 11.8009 14.8602C11.8009 13.9429 12.5112 12.0246 14.7092 11.8121V11.8177Z" fill="black"/>
    <path d="M28.5682 11.5604C28.4955 11.5324 28.4172 11.5101 28.3445 11.4877C28.3333 11.4877 28.3165 11.4821 28.3054 11.4765C28.2382 11.4597 28.1655 11.4485 28.0984 11.4374C28.0872 11.4374 28.076 11.4374 28.0649 11.4374C27.9922 11.4262 27.9194 11.4262 27.8467 11.4262C27.8411 11.4262 27.83 11.4262 27.8244 11.4262C27.8132 11.4262 27.8076 11.4262 27.7964 11.4262C27.7237 11.4262 27.651 11.4262 27.5839 11.4374H27.5727C27.5056 11.4485 27.4385 11.4597 27.3713 11.4765C27.3546 11.4765 27.3434 11.4821 27.3266 11.4877C27.2595 11.5045 27.1924 11.5268 27.1309 11.5492C27.1197 11.5492 27.1085 11.5604 27.0973 11.5604C27.0414 11.5828 26.9799 11.6107 26.9239 11.6387C26.9127 11.6387 26.9071 11.6443 26.896 11.6499C26.8344 11.6834 26.7785 11.717 26.7226 11.7561C26.7114 11.7617 26.7002 11.7729 26.689 11.7785C26.6331 11.8177 26.5772 11.8624 26.5268 11.9072C26.4765 11.9519 26.4262 11.9966 26.3814 12.047C26.3702 12.0582 26.3646 12.0693 26.3535 12.0749C26.3087 12.1253 26.264 12.1756 26.2248 12.2315C26.2192 12.2427 26.2136 12.2483 26.208 12.2595C26.1745 12.3098 26.1409 12.3658 26.1074 12.4217C26.1074 12.4329 26.0962 12.4385 26.0906 12.4497C26.057 12.5112 26.0291 12.5727 26.0011 12.6398C25.9955 12.651 25.9899 12.6678 25.9843 12.679C25.9564 12.7461 25.934 12.8132 25.9172 12.8803C25.9004 12.9474 25.8837 13.0201 25.8725 13.0928C25.8725 13.1096 25.8725 13.1208 25.8669 13.1376C25.8557 13.2103 25.8501 13.283 25.8501 13.3557C25.8501 13.3669 25.8501 13.3781 25.8501 13.3949C25.8501 13.462 25.8501 13.5347 25.8613 13.6018C25.8613 13.613 25.8613 13.6242 25.8613 13.6409C25.8725 13.7192 25.8837 13.7919 25.9004 13.8702C25.9004 13.887 25.906 13.9038 25.9116 13.9206C25.934 13.9989 25.9564 14.0828 25.9843 14.1611C26.2024 14.7651 26.5324 15.3412 26.9854 15.8613C27.0582 15.9452 27.1365 16.0291 27.2147 16.1074C27.2427 16.1409 27.2763 16.1689 27.3098 16.1969C27.3602 16.2472 27.4105 16.2975 27.4608 16.3423C27.5 16.3814 27.5447 16.4206 27.5895 16.4541C27.6342 16.4933 27.679 16.5324 27.7237 16.5716C27.774 16.6107 27.8244 16.6555 27.8747 16.6946C27.9139 16.7282 27.953 16.7561 27.9977 16.7897C28.0537 16.8344 28.1152 16.8736 28.1711 16.9183C28.2103 16.9463 28.2438 16.9743 28.283 16.9966C28.3445 17.0414 28.4116 17.0805 28.4731 17.1253C28.5067 17.1476 28.5403 17.17 28.5738 17.1924C28.6409 17.2371 28.7136 17.2763 28.7807 17.3154C28.8143 17.3322 28.8479 17.3546 28.8758 17.3714C28.9485 17.4105 29.0212 17.4497 29.0939 17.4888C29.1051 17.4944 29.1219 17.5056 29.1331 17.5112C30.0839 17.9978 31.1018 18.2662 31.9463 18.1376C32.4049 16.6051 31.5939 14.2841 30.3971 12.8971C30.0224 12.4664 29.5973 12.1141 29.1387 11.8344C29.0436 11.7785 28.9485 11.717 28.8535 11.6667C28.7752 11.6275 28.6969 11.594 28.6186 11.5604C28.6018 11.5548 28.585 11.5492 28.5682 11.5436V11.5604Z" fill="black"/>
    <path d="M17.8468 5.90045C17.8579 5.17897 17.5 4.31208 16.8736 3.54586C16.2472 2.78524 15.4586 2.2651 14.7539 2.13647C14.7427 2.85794 15.1007 3.72483 15.7271 4.49105C16.3535 5.25168 17.1421 5.77181 17.8468 5.90045Z" fill="black"/>
    <path d="M15.8445 6.67226C16.415 6.67226 16.9351 6.4877 17.2539 6.1745C16.9351 5.8613 16.415 5.67673 15.8389 5.67673C15.2684 5.67673 14.7483 5.8613 14.4295 6.1745C14.7483 6.4877 15.2684 6.67226 15.8445 6.67226Z" fill="black"/>
    <path d="M19.7707 5.53131C20.2461 5.20693 20.5649 4.74832 20.632 4.28411C20.179 4.18344 19.6309 4.31207 19.1611 4.63646C18.6857 4.96084 18.3669 5.41946 18.2998 5.88366C18.7528 5.98433 19.3009 5.8557 19.7763 5.53131H19.7707Z" fill="black"/>
    <path d="M17.2651 6.66667C16.9072 7.15884 16.9183 7.77965 17.2931 8.0537C17.472 8.18233 17.7069 8.21589 17.9586 8.14318C18.2159 8.07048 18.4508 7.8971 18.6242 7.65661C18.9821 7.16444 18.9709 6.54363 18.5962 6.26958C18.4787 6.1801 18.3333 6.14095 18.1879 6.14095C17.8691 6.14095 17.5112 6.3311 17.2651 6.66667Z" fill="black"/>
</svg>
