<svg width="230" height="35" viewBox="0 0 230 35" fill="none" xmlns="http://www.w3.org/2000/svg">
<path d="M60.5256 8.42277C60.5256 8.83664 60.3075 9.05476 59.8657 9.05476H51.6945V18.7863H60.8164C61.2527 18.7863 61.4764 19.0044 61.4764 19.4463V19.4686C61.4764 19.9049 61.2583 20.1286 60.8164 20.1286H51.6945V27.7628C51.6945 28.1991 51.4764 28.4228 51.0346 28.4228H49.8657C49.4294 28.4228 49.2057 28.2047 49.2057 27.7628V20.1286H40.0838C39.6475 20.1286 39.4238 19.9105 39.4238 19.4686V19.4463C39.4238 19.01 39.6419 18.7863 40.0838 18.7863H49.2057V9.05476H41.0346C40.5983 9.05476 40.3746 8.83664 40.3746 8.39481C40.3746 8.00331 40.5927 7.78519 41.0346 7.78519H59.8601C60.3019 7.78519 60.52 8.00331 60.52 8.41718L60.5256 8.42277ZM43.9932 10.8389C45.067 12.472 46.0178 14.0324 46.8232 15.5704C47.0413 15.9619 46.9462 16.2527 46.5547 16.4709L45.822 16.8624C45.4305 17.0581 45.1397 16.9574 44.9216 16.5715C43.9708 14.7427 43.0424 13.1823 42.2147 11.84C41.9686 11.4765 42.0692 11.1577 42.4328 10.9619L43.0927 10.5984C43.4563 10.4026 43.7751 10.4753 43.9932 10.8445V10.8389ZM58.8925 11.8624C58.1878 13.3501 57.2091 14.9608 55.9898 16.6666C55.7437 17.0078 55.4305 17.0581 55.0894 16.8624L54.4574 16.4988C54.0659 16.2807 53.9932 15.9619 54.2393 15.5984C55.1901 14.2058 56.0905 12.623 56.8735 10.9395C57.0413 10.5481 57.3601 10.425 57.7516 10.6208L58.5793 11.0123C58.9428 11.18 59.0938 11.4765 58.8981 11.868L58.8925 11.8624Z" fill="#231815"/>
<path d="M65.481 9.64204C65.0391 9.66441 64.7986 9.47425 64.7483 9.03242C64.7259 8.69126 64.9161 8.47313 65.3579 8.44517C68.1376 8.19909 70.9675 7.76284 74.038 7.10289C74.4295 7.03018 74.7203 7.1756 74.8434 7.56709C74.9385 7.95859 74.7707 8.22705 74.3568 8.32213C73.3333 8.56821 72.2091 8.78633 70.9675 8.95412V13.8814H74.5246C74.9664 13.8814 75.1845 14.0995 75.1845 14.5414C75.1845 14.9329 74.9664 15.151 74.5246 15.151H71.208C73.0593 17.9306 74.2785 19.8098 74.8881 20.783C75.1062 21.1241 75.0559 21.415 74.7427 21.6834L74.1555 22.1476C73.7919 22.4385 73.4508 22.3658 73.227 21.9519C72.6398 20.8054 71.7897 19.4183 70.9619 18.0984V27.7573C70.9619 28.1935 70.7438 28.4172 70.302 28.4172H69.3736C68.9317 28.4172 68.7136 28.1991 68.7136 27.7573V19.6364C67.981 21.2472 67.0078 22.83 65.7159 24.4127C65.425 24.7763 65.0839 24.7763 64.7874 24.3904L64.4463 23.9262C64.2002 23.6074 64.2002 23.3165 64.4463 22.9977C66.1801 20.7326 67.5168 18.0705 68.3501 15.1454H65.0112C64.5693 15.1454 64.3512 14.9273 64.3512 14.4854C64.3512 14.0939 64.5693 13.8758 65.0112 13.8758H68.7192V9.31765C67.7684 9.41273 66.6946 9.53577 65.4754 9.63645L65.481 9.64204ZM85.3803 27.1141H76.1409C75.7047 27.1141 75.481 26.896 75.481 26.4541V9.95524C75.481 9.519 75.6991 9.29528 76.1409 9.29528H85.3803C85.8221 9.29528 86.0402 9.5134 86.0402 9.95524V26.4541C86.0402 26.8904 85.8221 27.1141 85.3803 27.1141ZM83.6018 10.6152H77.8691V25.6376H83.6018V10.6152Z" fill="#231815"/>
<path d="M99.2058 7.84116C98.1096 9.96084 96.7673 12.2036 95.1342 14.5973C98.8646 14.4016 102.791 14.1107 106.913 13.7416C105.839 12.5224 104.888 11.4989 104.06 10.6711C103.77 10.3523 103.77 10.0112 104.133 9.74272L104.575 9.42393C104.894 9.17785 105.207 9.20581 105.503 9.49664C107.847 11.7617 109.72 13.887 111.281 15.7886C111.549 16.1297 111.527 16.4485 111.208 16.717L110.649 17.1812C110.308 17.472 109.989 17.4497 109.72 17.1085C109.088 16.3031 108.501 15.5984 107.964 14.9608C101.773 15.5928 95.8221 15.962 90.1901 16.1297C89.7763 16.1297 89.5078 15.934 89.5078 15.5201V15.4978C89.5078 15.0615 89.7036 14.7931 90.1398 14.7931C91.113 14.7707 91.9183 14.7707 92.5056 14.7204C94.0156 12.5727 95.5313 9.93847 97.0414 6.99105C97.2371 6.62751 97.528 6.50447 97.9195 6.64988L98.8702 6.99105C99.2841 7.13646 99.4071 7.45525 99.2114 7.84675L99.2058 7.84116ZM108.205 28.1208H92.8188C92.3769 28.1208 92.1588 27.9027 92.1588 27.4608V18.9597C92.1588 18.5235 92.3769 18.2998 92.8188 18.2998H108.205C108.641 18.2998 108.865 18.5179 108.865 18.9597V27.4608C108.865 27.8971 108.647 28.1208 108.205 28.1208ZM106.398 19.5917H94.6197V26.717H106.398V19.5917Z" fill="#231815"/>
<path d="M125.537 27.4218H124.491C124.027 27.4218 123.759 27.1757 123.759 26.6891V12.8412H115.906C115.442 12.8412 115.174 12.6231 115.174 12.1813C115.174 11.7394 115.442 11.5213 115.906 11.5213H123.731V8.20475C123.731 7.71817 123.977 7.47209 124.463 7.42175H125.537C126.001 7.42175 126.27 7.69021 126.27 8.15441V11.5213H134.29C134.776 11.5213 135.023 11.7394 135.023 12.1813C135.023 12.6231 134.776 12.8412 134.29 12.8412H126.27V26.6891C126.27 27.1533 126.024 27.4218 125.537 27.4218ZM115.442 23.4005C116.952 21.4486 118.004 19.424 118.759 17.1086C118.904 16.6723 119.223 16.4989 119.659 16.594L119.978 16.6667C120.42 16.7618 120.61 17.103 120.515 17.5448C119.978 20.1063 118.932 22.4218 117.394 24.7372C117.125 25.1511 116.762 25.2014 116.37 24.9329L115.587 24.4184C115.174 24.1499 115.123 23.7864 115.442 23.3949V23.4005ZM132.707 24.1332C131.779 21.6947 130.783 19.575 129.049 17.6455C128.731 17.2819 128.708 16.8904 129.1 16.5996L129.195 16.5269C129.558 16.2584 129.877 16.2361 130.218 16.5493C132.265 18.4285 133.63 20.5985 134.922 23.132C135.14 23.5459 135.017 23.915 134.581 24.1052L133.652 24.5191C133.216 24.7148 132.869 24.5918 132.702 24.1276L132.707 24.1332Z" fill="#231815"/>
<path d="M143.166 27.7348C142.774 27.9529 142.433 27.8802 142.215 27.5391C141.969 27.1979 142.069 26.8791 142.483 26.6107C146.337 23.9988 147.774 19.9552 147.847 15.3691H139.435C138.949 15.3691 138.68 15.123 138.702 14.6867C138.725 14.2505 138.971 14.0044 139.435 14.0044H157.651C158.138 14.0044 158.384 14.2505 158.384 14.6867C158.384 15.123 158.138 15.3691 157.651 15.3691H150.654C150.582 20.3411 147.97 25.0503 143.171 27.7292L143.166 27.7348ZM142.069 9.00999C142.069 8.59612 142.338 8.35004 142.802 8.35004H154.211C154.676 8.35004 154.944 8.59612 154.944 9.00999C154.944 9.44623 154.698 9.69232 154.211 9.69232H142.802C142.338 9.69232 142.069 9.44623 142.069 9.00999Z" fill="#231815"/>
<path d="M166.689 11.6164C166.348 17.3714 164.983 22.1477 160.52 26.1745C160.179 26.4933 159.816 26.4653 159.519 26.1745C159.2 25.8837 159.2 25.5649 159.519 25.2014C163.104 21.0571 163.786 16.9128 164.005 11.594C164.027 11.1074 164.273 10.8613 164.737 10.8613H165.979C166.465 10.8613 166.712 11.1298 166.684 11.6164H166.689ZM169.15 25.028V8.6913C169.15 8.20472 169.418 7.95863 169.883 7.95863H171.007C171.471 7.95863 171.739 8.20472 171.739 8.6913V23.9542C174.933 21.8792 177.472 18.9542 179.665 15.3971C179.933 14.9832 180.252 14.8602 180.638 15.1063C181.001 15.3244 181.102 15.6656 180.884 16.0794C178.882 20.0056 176.029 23.8087 171.376 26.3423C171.012 26.5381 170.716 26.5157 170.375 26.3199L169.67 25.9061C169.307 25.6879 169.156 25.4419 169.156 25.028H169.15Z" fill="#231815"/>
<path d="M204.676 8.76402C204.676 9.20026 204.458 9.42398 204.016 9.42398H195.503L195.598 15.3748H203.132C203.568 15.3748 203.792 15.5929 203.792 16.0347V16.0571C203.792 16.4933 203.574 16.717 203.132 16.717H195.671C196.477 21.0067 199.525 24.396 204.206 26.4206C204.62 26.594 204.743 26.9072 204.525 27.2987L204.402 27.5168C204.206 27.8804 203.915 27.981 203.523 27.8356C199.133 26.0795 195.867 23.0817 194.329 19.7428C192.768 23.0593 189.43 26.0571 184.989 27.8356C184.597 27.981 184.306 27.8859 184.111 27.5168L183.988 27.2987C183.77 26.9072 183.893 26.594 184.307 26.4206C188.988 24.396 192.036 21.0067 192.841 16.717H185.38C184.938 16.717 184.72 16.4989 184.72 16.0571V16.0347C184.72 15.5985 184.938 15.3748 185.38 15.3748H193.015V9.42398H184.502C184.06 9.42398 183.842 9.20585 183.842 8.76402C183.842 8.32219 184.06 8.10406 184.502 8.10406H204.01C204.446 8.10406 204.67 8.32219 204.67 8.76402H204.676Z" fill="#231815"/>
<path d="M215.99 11.4485V11.7897C215.99 12.0805 215.968 12.3042 215.845 12.595C215.213 14.2785 214.407 15.8613 213.356 17.3713C214.379 18.4955 215.28 19.5414 215.867 20.3467C216.113 20.6879 216.035 21.0067 215.722 21.2751L215.33 21.6163C215.011 21.9071 214.67 21.8344 214.402 21.4933C213.96 20.8836 213.4 20.2013 212.819 19.5917V27.7628C212.819 28.1991 212.601 28.4228 212.159 28.4228H211.281C210.839 28.4228 210.621 28.2047 210.621 27.7628V20.1566C209.916 20.7438 209.111 21.3534 208.182 21.9854C207.791 22.2539 207.478 22.1308 207.304 21.6946L207.159 21.3031C207.013 20.9396 207.137 20.6711 207.45 20.425C210.207 18.4228 212.304 15.6935 213.641 12.1588H208.104C207.662 12.1588 207.444 11.9407 207.444 11.4988V11.4485C207.444 11.0123 207.662 10.7886 208.104 10.7886H210.52V7.61741C210.52 7.18117 210.738 6.95746 211.18 6.95746H212.254C212.69 6.95746 212.914 7.17558 212.914 7.61741V10.7886H215.33C215.766 10.7886 215.99 11.0067 215.99 11.4485ZM229.888 10.5481V21.9742C229.888 22.4105 229.67 22.6342 229.228 22.6342H224.374V27.7628C224.374 28.1991 224.156 28.4228 223.714 28.4228H222.617C222.176 28.4228 221.958 28.2047 221.958 27.7628V22.6342H217.176C216.739 22.6342 216.516 22.4161 216.516 21.9742V10.5481C216.516 10.1118 216.734 9.88811 217.176 9.88811H221.958V7.62301C221.958 7.18677 222.176 6.96305 222.617 6.96305H223.714C224.15 6.96305 224.374 7.18117 224.374 7.62301V9.88811H229.228C229.664 9.88811 229.888 10.1062 229.888 10.5481ZM221.963 11.1801H218.865V15.4698H221.963V11.1801ZM221.963 16.717H218.865V21.2024H221.963V16.717ZM227.5 11.1801H224.379V15.4698H227.5V11.1801ZM227.5 16.717H224.379V21.2024H227.5V16.717Z" fill="#231815"/>
<path d="M6.20183 22.3323L5.16156 22.7629L4.68617 21.6164L5.72644 21.1801L5.55865 20.7775L2.89087 21.8848L3.05865 22.2875L4.30586 21.773L4.78125 22.9195L3.53405 23.4397L3.70183 23.8423L6.36962 22.735L6.20183 22.3323Z" fill="black"/>
<path d="M6.39819 25.5482L6.73935 25.3188L6.10736 24.3904L6.67783 23.9989L7.33219 24.9553L7.66776 24.7204L6.77291 23.4061L4.38477 25.0336L5.28521 26.3479L5.62078 26.1186L4.97201 25.1623L5.7662 24.6197L6.39819 25.5482Z" fill="black"/>
<path d="M8.20975 25.3295L6.0957 27.294L6.39266 27.6136L8.50671 25.6491L8.20975 25.3295Z" fill="black"/>
<path d="M12.0922 28.4229L11.7007 28.1544L9.95011 29.2898L10.5094 27.1589L8.68612 28.4173L9.16151 26.3983L8.77002 26.1298L8.03735 29.3569L9.83825 28.1097L9.28456 30.2182L12.0922 28.4229Z" fill="black"/>
<path d="M10.8501 30.9172L11.2919 31.0794L11.84 30.5313L12.9977 30.962L13.0369 31.7226L13.4843 31.8904L13.2606 28.5347L10.8557 30.9116L10.8501 30.9172ZM12.1476 30.2125L12.9083 29.4463L12.9698 30.5145L12.1476 30.2069V30.2125Z" fill="black"/>
<path d="M15.8956 29.463C15.739 29.3791 15.5153 29.3176 15.23 29.2785L14.6316 29.189L14.2065 32.0469L14.7994 32.1364C15.0902 32.1811 15.3195 32.1867 15.4817 32.1588C15.6607 32.1308 15.8341 32.0581 16.0074 31.9462C16.3542 31.7225 16.5611 31.387 16.6282 30.9507C16.6954 30.5145 16.6003 30.1397 16.343 29.8266C16.2144 29.67 16.069 29.5525 15.9012 29.4686L15.8956 29.463ZM16.192 30.878C16.1473 31.1912 16.0018 31.4261 15.7614 31.5883C15.6439 31.6666 15.5153 31.7169 15.381 31.7393C15.2468 31.7617 15.0846 31.7561 14.8889 31.7281L14.6931 31.7002L14.9951 29.6532L15.1909 29.6811C15.56 29.7371 15.8229 29.8657 15.9851 30.067C16.164 30.2908 16.2312 30.5648 16.1864 30.878H16.192Z" fill="black"/>
<path d="M16.9294 32.4162L17.3992 32.3938L17.6845 31.6779L18.9205 31.6108L19.2617 32.2931L19.7371 32.2708L18.199 29.2786L16.935 32.4162H16.9294ZM18.7192 31.2081L17.8411 31.2529L18.2382 30.2518L18.7192 31.2081Z" fill="black"/>
<path d="M20.4232 29.1423L19.9971 29.2358L20.6153 32.0547L21.0414 31.9612L20.4232 29.1423Z" fill="black"/>
<path d="M23.6124 27.9139L24.1157 28.9262L22.9972 29.4799L22.4938 28.4676L22.1079 28.6577L23.3887 31.2472L23.7802 31.0515L23.1817 29.8434L24.2947 29.2897L24.8931 30.5034L25.2846 30.3076L24.0039 27.7181L23.6124 27.9139Z" fill="black"/>
<path d="M26.6332 26.1521C26.2193 26.1186 25.8557 26.2304 25.537 26.4989C25.2182 26.7673 25.0392 27.1085 25 27.5224C24.9609 27.9362 25.0728 28.2998 25.3356 28.613C25.632 28.9653 26.0012 29.1499 26.4318 29.1555C26.8233 29.1611 27.1645 29.0436 27.4497 28.8031C27.7741 28.5291 27.9531 28.1879 27.9922 27.774C28.0314 27.3602 27.9195 26.9966 27.651 26.6779C27.3826 26.3647 27.047 26.1857 26.6276 26.1521H26.6332ZM27.1924 28.4843C26.9799 28.6633 26.7226 28.7416 26.4262 28.7248C26.1298 28.7081 25.8781 28.5738 25.6712 28.3277C25.4754 28.0928 25.3915 27.8356 25.4139 27.5391C25.4363 27.2483 25.5649 27.0022 25.7942 26.8065C26.0235 26.6107 26.2864 26.5268 26.5772 26.5548C26.8681 26.5828 27.1141 26.7114 27.3099 26.9463C27.5056 27.1812 27.5951 27.4441 27.5727 27.7405C27.5504 28.0369 27.4217 28.2774 27.1868 28.4732L27.1924 28.4843Z" fill="black"/>
<path d="M28.25 24.2114L27.9256 23.9597L26.8462 25.3467L27.1706 25.5984L27.5733 25.0727L29.5308 26.5995L29.7992 26.2528L27.8417 24.7315L28.25 24.2114Z" fill="black"/>
<path d="M30.5986 24.2842L29.7485 23.8311L30.2742 22.8412L29.9162 22.6455L29.3849 23.641L28.7753 23.311L29.3178 22.2931L28.9543 22.0974L28.2048 23.5067L30.7552 24.8658L31.5046 23.4564L31.1411 23.2663L30.5986 24.2842Z" fill="black"/>
<path d="M31.9692 21.0011L31.7007 21.8065L29.3517 21.0179L29.2119 21.4317L31.9524 22.349L32.3607 21.1297L31.9692 21.0011Z" fill="black"/>
<path d="M17.5 0C7.85235 0 0 7.85235 0 17.5C0 27.1476 7.85235 35 17.5 35C27.1477 35 35 27.1476 35 17.5C35 7.85235 27.1532 0 17.5 0ZM17.5 34.3904C8.18792 34.3904 0.615213 26.8121 0.615213 17.5C0.615213 8.18792 8.18792 0.615213 17.5 0.615213C26.8121 0.615213 34.3904 8.19351 34.3904 17.5056C34.3904 26.8177 26.8121 34.396 17.5 34.396V34.3904Z" fill="black"/>
<path d="M6.43193 17.5336C6.44871 17.528 6.4599 17.5168 6.47108 17.5112C6.54379 17.4721 6.6165 17.4329 6.6892 17.3938C6.72276 17.377 6.75632 17.3546 6.78428 17.3379C6.85139 17.2987 6.9241 17.254 6.99122 17.2148C7.02477 17.1925 7.05833 17.1701 7.09189 17.1477C7.159 17.1086 7.22052 17.0638 7.28204 17.0191C7.32119 16.9911 7.35475 16.9687 7.3939 16.9408C7.44983 16.896 7.51135 16.8569 7.56728 16.8121C7.60643 16.7786 7.64558 16.7506 7.69032 16.7171C7.74066 16.6779 7.79099 16.6332 7.84133 16.594C7.88607 16.5549 7.93081 16.5157 7.97556 16.4766C8.0203 16.4374 8.05945 16.4039 8.10419 16.3647C8.15453 16.3144 8.20486 16.2696 8.2552 16.2193C8.28875 16.1857 8.31672 16.1578 8.35028 16.1298C8.42858 16.0459 8.50688 15.9676 8.57958 15.8837C9.0326 15.3636 9.36258 14.7819 9.5807 14.1835C9.60866 14.0996 9.63104 14.0213 9.65341 13.943C9.65341 13.9262 9.66459 13.9095 9.66459 13.8927C9.68137 13.8144 9.69256 13.7361 9.70374 13.6634C9.70374 13.6522 9.70374 13.641 9.70374 13.6242C9.70934 13.5515 9.71493 13.4844 9.71493 13.4173C9.71493 13.4061 9.71493 13.3949 9.71493 13.3781C9.71493 13.3054 9.70934 13.2327 9.69815 13.16C9.69815 13.1432 9.69815 13.1321 9.69256 13.1153C9.68137 13.0426 9.67019 12.9755 9.64782 12.9027C9.63104 12.8356 9.60307 12.7629 9.5807 12.7014C9.5807 12.6902 9.56952 12.6734 9.56392 12.6623C9.53596 12.6007 9.50799 12.5336 9.47444 12.4721C9.47444 12.4609 9.46325 12.4553 9.45766 12.4441C9.4241 12.3882 9.39054 12.3323 9.35699 12.2819C9.35139 12.2708 9.3458 12.2652 9.34021 12.254C9.30106 12.198 9.25632 12.1477 9.21157 12.0974C9.20039 12.0862 9.1948 12.075 9.18361 12.0694C9.13887 12.0191 9.08853 11.9743 9.0382 11.9296C8.98786 11.8849 8.93193 11.8401 8.876 11.801C8.86482 11.7898 8.85363 11.7842 8.84245 11.7786C8.78652 11.7394 8.73059 11.7059 8.66907 11.6723C8.65788 11.6723 8.65229 11.6667 8.6411 11.6611C8.58518 11.6332 8.52925 11.6052 8.46773 11.5828C8.45654 11.5828 8.44535 11.5717 8.43417 11.5717C8.37265 11.5493 8.30553 11.5269 8.23842 11.5101C8.22164 11.5101 8.21045 11.5045 8.19368 11.4989C8.12656 11.4822 8.05945 11.471 7.99233 11.4598H7.98115C7.90844 11.4486 7.83573 11.4486 7.76862 11.4486C7.75744 11.4486 7.75184 11.4486 7.74066 11.4486C7.73506 11.4486 7.72388 11.4486 7.71829 11.4486C7.64558 11.4486 7.57287 11.4486 7.50016 11.4598C7.48898 11.4598 7.47779 11.4598 7.46661 11.4598C7.39949 11.471 7.32679 11.4822 7.25967 11.4989C7.24849 11.4989 7.23171 11.5045 7.22052 11.5101C7.14782 11.5269 7.06952 11.5549 6.99681 11.5828C6.98003 11.5884 6.96325 11.594 6.94647 11.5996C6.86817 11.6332 6.78987 11.6667 6.71157 11.7059C6.6165 11.7562 6.52142 11.8177 6.42634 11.8737C5.96773 12.1533 5.54267 12.5057 5.16795 12.9363C3.96549 14.3233 3.15453 16.6444 3.61873 18.1768C4.46325 18.3054 5.48674 18.037 6.43193 17.5504V17.5336Z" fill="black"/>
<path d="M10.011 11.8065C10.5423 12.5615 10.6598 13.5235 10.3354 14.4463C10.0781 15.1622 9.69223 15.8165 9.18888 16.4038C8.51773 17.1812 7.61169 17.8467 6.6665 18.3054C7.2146 19.9273 8.17098 21.6667 9.75375 23.2494C13.1039 26.5995 17.7851 28.6577 17.7851 28.6577C17.7851 28.6577 22.4663 26.5995 25.8164 23.2494C27.3992 21.6667 28.3555 19.9273 28.9036 18.3054C27.9585 17.8411 27.0524 17.1812 26.3813 16.4038C25.8779 15.8221 25.492 15.1622 25.2347 14.4463C24.9048 13.5291 25.0222 12.5671 25.5591 11.8065C26.0793 11.0682 26.9238 10.632 27.8242 10.632C28.1151 10.632 28.4059 10.6767 28.6855 10.7662C27.6508 8.736 25.7045 7.20916 22.964 7.15323C22.8019 7.15323 22.6676 7.15323 22.5558 7.1756C20.313 7.29864 18.5233 8.73041 18.3891 11.4933L18.0423 12.3881C18.1822 10.2684 18.0591 8.79752 18.0591 8.77515C18.0479 8.6633 17.964 8.5794 17.8354 8.59059C17.7236 8.60177 17.6397 8.70245 17.6508 8.8143C17.6508 8.83108 17.7795 10.4027 17.6117 12.6286L17.1699 11.4989C17.0356 8.736 15.2459 7.30424 13.0032 7.18119C12.8913 7.16441 12.7571 7.15323 12.5949 7.15882C9.86002 7.21475 7.91371 8.7416 6.87344 10.7718C7.15308 10.6823 7.44391 10.6376 7.73474 10.6376C8.63518 10.6376 9.4797 11.0794 9.99984 11.8121L10.011 11.8065ZM20.7605 9.65882C21.0457 9.65882 21.2806 9.89372 21.2806 10.179C21.2806 10.4642 21.0457 10.6991 20.7605 10.6991C20.4752 10.6991 20.2403 10.4642 20.2403 10.179C20.2403 9.89372 20.4752 9.65882 20.7605 9.65882ZM14.8097 9.65882C15.0949 9.65882 15.3298 9.89372 15.3298 10.179C15.3298 10.4642 15.0949 10.6991 14.8097 10.6991C14.5244 10.6991 14.2895 10.4642 14.2895 10.179C14.2895 9.89372 14.5244 9.65882 14.8097 9.65882ZM14.709 11.8177C16.0904 11.6834 17.2258 12.5056 17.6061 12.8188C17.5614 13.3445 17.5054 13.8982 17.4215 14.4799C17.4048 14.5917 17.4831 14.698 17.5949 14.7092C17.6061 14.7092 17.6117 14.7092 17.6229 14.7092C17.7236 14.7092 17.813 14.6365 17.8242 14.5358C17.9137 13.9206 17.9752 13.3277 18.0144 12.774C18.4338 12.4385 19.53 11.6834 20.8611 11.8121C23.0591 12.0246 23.7638 13.9429 23.7694 14.8602C23.7694 16.0123 23.3947 17.5615 21.6497 19.3065C19.9048 21.0514 17.7851 21.9127 17.7851 21.9127C17.7851 21.9127 15.6654 21.0514 13.9204 19.3065C12.1755 17.5615 11.8007 16.0123 11.8007 14.8602C11.8007 13.9429 12.511 12.0246 14.709 11.8121V11.8177Z" fill="black"/>
<path d="M28.5682 11.5604C28.4955 11.5324 28.4172 11.51 28.3445 11.4877C28.3333 11.4877 28.3165 11.4821 28.3054 11.4765C28.2382 11.4597 28.1655 11.4485 28.0984 11.4373C28.0872 11.4373 28.076 11.4373 28.0649 11.4373C27.9922 11.4261 27.9194 11.4261 27.8467 11.4261C27.8411 11.4261 27.83 11.4261 27.8244 11.4261C27.8132 11.4261 27.8076 11.4261 27.7964 11.4261C27.7237 11.4261 27.651 11.4261 27.5839 11.4373H27.5727C27.5056 11.4485 27.4385 11.4597 27.3713 11.4765C27.3546 11.4765 27.3434 11.4821 27.3266 11.4877C27.2595 11.5044 27.1924 11.5268 27.1309 11.5492C27.1197 11.5492 27.1085 11.5604 27.0973 11.5604C27.0414 11.5827 26.9799 11.6107 26.9239 11.6387C26.9127 11.6387 26.9071 11.6443 26.896 11.6499C26.8344 11.6834 26.7785 11.717 26.7226 11.7561C26.7114 11.7617 26.7002 11.7729 26.689 11.7785C26.6331 11.8176 26.5772 11.8624 26.5268 11.9071C26.4765 11.9519 26.4262 11.9966 26.3814 12.047C26.3702 12.0581 26.3646 12.0693 26.3535 12.0749C26.3087 12.1253 26.264 12.1756 26.2248 12.2315C26.2192 12.2427 26.2136 12.2483 26.208 12.2595C26.1745 12.3098 26.1409 12.3657 26.1074 12.4217C26.1074 12.4329 26.0962 12.4385 26.0906 12.4496C26.057 12.5112 26.0291 12.5727 26.0011 12.6398C25.9955 12.651 25.9899 12.6678 25.9843 12.6789C25.9564 12.7461 25.934 12.8132 25.9172 12.8803C25.9004 12.9474 25.8837 13.0201 25.8725 13.0928C25.8725 13.1096 25.8725 13.1208 25.8669 13.1376C25.8557 13.2103 25.8501 13.283 25.8501 13.3557C25.8501 13.3669 25.8501 13.378 25.8501 13.3948C25.8501 13.4619 25.8501 13.5346 25.8613 13.6018C25.8613 13.6129 25.8613 13.6241 25.8613 13.6409C25.8725 13.7192 25.8837 13.7919 25.9004 13.8702C25.9004 13.887 25.906 13.9038 25.9116 13.9206C25.934 13.9989 25.9564 14.0827 25.9843 14.161C26.2024 14.7651 26.5324 15.3411 26.9854 15.8613C27.0582 15.9452 27.1365 16.0291 27.2147 16.1074C27.2427 16.1409 27.2763 16.1689 27.3098 16.1968C27.3602 16.2472 27.4105 16.2975 27.4608 16.3423C27.5 16.3814 27.5447 16.4206 27.5895 16.4541C27.6342 16.4933 27.679 16.5324 27.7237 16.5716C27.774 16.6107 27.8244 16.6555 27.8747 16.6946C27.9139 16.7282 27.953 16.7561 27.9977 16.7897C28.0537 16.8344 28.1152 16.8736 28.1711 16.9183C28.2103 16.9463 28.2438 16.9742 28.283 16.9966C28.3445 17.0414 28.4116 17.0805 28.4731 17.1253C28.5067 17.1476 28.5403 17.17 28.5738 17.1924C28.6409 17.2371 28.7136 17.2763 28.7807 17.3154C28.8143 17.3322 28.8479 17.3546 28.8758 17.3713C28.9485 17.4105 29.0212 17.4496 29.0939 17.4888C29.1051 17.4944 29.1219 17.5056 29.1331 17.5112C30.0839 17.9977 31.1018 18.2662 31.9463 18.1376C32.4049 16.6051 31.5939 14.2841 30.3971 12.8971C30.0224 12.4664 29.5973 12.1141 29.1387 11.8344C29.0436 11.7785 28.9485 11.717 28.8535 11.6666C28.7752 11.6275 28.6969 11.5939 28.6186 11.5604C28.6018 11.5548 28.585 11.5492 28.5682 11.5436V11.5604Z" fill="black"/>
<path d="M17.8472 5.90049C17.8584 5.17901 17.5005 4.31212 16.8741 3.5459C16.2477 2.78527 15.4591 2.26514 14.7544 2.13651C14.7432 2.85798 15.1012 3.72487 15.7276 4.49109C16.354 5.25172 17.1425 5.77185 17.8472 5.90049Z" fill="black"/>
<path d="M15.8452 6.67221C16.4156 6.67221 16.9358 6.48764 17.2546 6.17444C16.9358 5.86125 16.4156 5.67668 15.8396 5.67668C15.2691 5.67668 14.749 5.86125 14.4302 6.17444C14.749 6.48764 15.2691 6.67221 15.8452 6.67221Z" fill="black"/>
<path d="M19.7712 5.53126C20.2466 5.20688 20.5654 4.74827 20.6325 4.28406C20.1795 4.18339 19.6314 4.31203 19.1616 4.63641C18.6862 4.96079 18.3674 5.41941 18.3003 5.88361C18.7533 5.98428 19.3014 5.85565 19.7768 5.53126H19.7712Z" fill="black"/>
<path d="M17.2651 6.6667C16.9072 7.15887 16.9184 7.77968 17.2931 8.05373C17.472 8.18236 17.7069 8.21592 17.9586 8.14321C18.2159 8.07051 18.4508 7.89713 18.6242 7.65664C18.9821 7.16447 18.9709 6.54366 18.5962 6.26961C18.4788 6.18013 18.3333 6.14098 18.1879 6.14098C17.8691 6.14098 17.5112 6.33113 17.2651 6.6667Z" fill="black"/>
</svg>
