<svg width="28" height="20" viewBox="0 0 28 20" fill="none" xmlns="http://www.w3.org/2000/svg">
<g clip-path="url(#clip0_123_185)">
<path fill-rule="evenodd" clip-rule="evenodd" d="M2.01311 3.44734V16.0567L9.18947 9.75199L2.01311 3.44734ZM24.1573 2.10897H3.92704L14.0434 10.9964L24.1585 2.10897H24.1573ZM25.9603 16.0567V3.44734L18.7839 9.75199L25.9603 16.0567ZM17.125 11.2091L14.59 13.4356C14.25 13.7349 13.714 13.7287 13.3739 13.4306L10.8448 11.2091L3.24105 17.8898H24.7276L17.1238 11.2091H17.125ZM1.38143 0H26.5931C27.3535 0 27.9746 0.650628 27.9746 1.44721V18.5528C27.9746 19.3494 27.3535 20 26.5931 20H1.38143C0.621054 20 0 19.3494 0 18.5528V1.44721C0 0.650628 0.621054 0 1.38143 0Z" fill="black"/>
</g>
<defs>
<clipPath id="clip0_123_185">
<rect width="28" height="20" fill="white"/>
</clipPath>
</defs>
</svg>
