<?xml version="1.0" encoding="UTF-8" standalone="no"?>
<svg
   xmlns:dc="http://purl.org/dc/elements/1.1/"
   xmlns:cc="http://creativecommons.org/ns#"
   xmlns:rdf="http://www.w3.org/1999/02/22-rdf-syntax-ns#"
   xmlns:svg="http://www.w3.org/2000/svg"
   xmlns="http://www.w3.org/2000/svg"
   viewBox="0 0 26.933594 26.604492"
   height="26.604492"
   width="26.933594"
   xml:space="preserve"
   id="svg2"
   version="1.1"><metadata
     id="metadata8"><rdf:RDF><cc:Work
         rdf:about=""><dc:format>image/svg+xml</dc:format><dc:type
           rdf:resource="http://purl.org/dc/dcmitype/StillImage" /></cc:Work></rdf:RDF></metadata><defs
     id="defs6" /><g
     transform="matrix(1.3333333,0,0,-1.3333333,0,26.604492)"
     id="g10"><g
       id="g12"><g
         transform="translate(0.100098,-5.887451)"
         id="g14"><path
           id="path16"
           style="fill:#000000;fill-opacity:1;fill-rule:nonzero;stroke:none"
           d="m 0,15.872523 -0.100063,0.0015 9e-5,-0.0039 z m 20,0.01014 0.100056,-0.0023 -7.1e-5,0.004 z m -19.327475,-0.0034 -0.100057,0.0023 7.2e-5,-0.0041 z m 18.648192,0.0068 0.100067,-0.0017 -9.5e-5,0.0041 -0.09997,-0.0023 z m -9.324096,9.954681 c -2.389587,0 -4.886549,-0.780411 -6.800821,-2.418409 -1.91646,-1.639872 -3.24298,-4.134449 -3.295788,-7.548244 l 0.199976,-0.0031 c 0.051957,3.358764 1.354704,5.798286 3.225841,7.399375 1.873325,1.602963 4.322291,2.370371 6.670792,2.370371 v 0.200001 z M -0.099973,15.870192 C 0.210613,2.555956 19.796238,2.560326 20.099974,15.880383 l -0.199948,0.0046 C 19.602209,2.824465 0.40446,2.822075 0.099973,15.874856 l -0.199946,-0.0047 z m 20.199958,0.01422 c -0.05962,3.415393 -1.387813,5.907397 -3.304302,7.544301 -1.914302,1.635035 -4.409563,2.412014 -6.799062,2.412014 v -0.200001 c 2.348588,0 4.795875,-0.764082 6.66917,-2.364092 1.871109,-1.598144 3.175561,-4.035167 3.234224,-7.395713 l 0.19997,0.0035 z M 9.996621,6.793747 c -2.186335,0 -4.465505,0.712524 -6.210404,2.202724 -1.742719,1.488337 -2.958431,3.757252 -3.013708,6.884579 L 0.57254,15.877516 C 0.628788,12.695278 1.868297,10.371425 3.656332,8.844385 5.442186,7.319208 7.769302,6.593746 9.996621,6.593746 Z m -9.224123,9.083225 c 0.280863,12.154005 18.164027,12.15123 18.448245,0.0067 l 0.199946,0.0047 C 19.130388,28.292715 0.859448,28.296698 0.572551,15.881593 l 0.199947,-0.0046 z m 18.448234,0.01078 c -0.0536,-3.130725 -1.2685,-5.401304 -3.011194,-6.890456 C 14.464659,7.506278 12.184662,6.793746 9.996621,6.793746 V 6.593745 c 2.228992,0 4.55697,0.725455 6.342845,2.251503 1.788057,1.527915 3.026693,3.853484 3.081236,7.039081 l -0.19997,0.0034 z" /></g><g
         transform="translate(0.100098,-5.887451)"
         id="g18"><path
           id="path20"
           style="fill:#000000;fill-opacity:1;fill-rule:nonzero;stroke:none"
           d="M 9.996621,25.740723 C 5.258533,25.740723 0.104765,22.645082 0,15.872523 0.307536,2.689016 19.699223,2.692396 20,15.882662 19.881718,22.6586 14.734708,25.740723 9.996621,25.740723 Z m 0,-19.046976 c -4.413654,0 -9.212572,2.875972 -9.324096,9.185536 0.283879,12.284554 18.360932,12.281177 18.648192,0.0068 C 19.212572,9.569719 14.413653,6.693747 9.996621,6.693747 Z" /></g></g><g
       id="g22"><g
         transform="translate(3.576172,2.550781)"
         id="g24"><path
           id="path26"
           style="fill:#000000;fill-opacity:1;fill-rule:nonzero;stroke:none"
           d="m 10.842854,12.365093 -0.09676,-0.02526 0.0672,-0.257392 0.118991,0.237925 -0.08944,0.04473 z m -2.656304,2.173031 -0.00375,0.09998 -0.00314,-2.16e-4 0.00688,-0.09976 z m -0.331193,-0.682663 -0.019895,-0.098 0.12138,-0.02464 -0.00149,0.123847 -0.099993,-0.0012 z m -1.368705,0.135182 h -0.1 v -0.100739 l 0.100735,7.41e-4 -7.35e-4,0.1 z m -0.675904,-1.426158 0.1,-0.01387 v 0.01387 z M 5.65529,9.854109 5.724401,9.780791 l 0.00786,0.00948 z m -0.966543,-1.490368 0.10013,0.00231 -4.42e-4,0.00558 -0.099688,-0.0079 z M 4.837446,1.922377 4.737473,1.920069 4.737692,1.91055 4.739705,1.901243 Z M 4.681988,1.205917 4.75339,1.134516 4.761831,1.145708 Z M 3.89456,1.145086 3.821249,1.077075 l 0.00619,-0.00668 0.0073,-0.00545 0.05982,0.080135 z m -0.185874,1.395741 0.099912,-0.00491 6e-5,0.00254 z M 3.843867,8.242079 3.74403,8.250122 3.743895,8.24445 Z m -0.946265,1.503885 0.069805,0.072193 -0.00717,0.00576 z m -0.172356,0.882055 0.098058,0.01961 -0.198015,-0.01667 0.099957,-0.0029 z m 0,3.484286 0.1,-0.0071 v 0.0071 z m -0.675904,-1.879013 0.067407,-0.07387 0.032593,0.02974 v 0.04412 h -0.1 z m -2.000676,-5.42413 0.09988,0.00719 -6.55e-4,0.00523 z M 3.015884,1.905478 3.115742,1.900143 3.118909,1.959419 3.068387,1.990586 Z M 3.407909,0.678713 3.329237,0.616081 3.336669,0.608536 Z M 4.259548,0.3509 4.261761,0.451244 4.253178,0.450696 Z M 5.354512,0.999766 5.372228,1.098185 5.300058,1.111176 5.265973,1.04625 Z M 7.90943,1.040322 8.005527,1.067986 7.979749,1.15753 7.888611,1.138131 Z M 8.32511,0.509737 8.376765,0.595376 8.375498,0.596115 Z M 9.872931,1.357995 H 9.77278 l 3.01e-4,-0.00548 z m 0,0.446096 L 9.826696,1.892761 9.772931,1.864727 V 1.804091 Z m 0.973303,10.567761 0.06119,0.07909 -0.09622,0.07444 -0.05442,-0.108804 0.08944,-0.04473 z M 0.717811,6.869993 0.817636,6.87747 0.817087,6.882007 Z m 1.328151,4.413654 h 0.1 v 0.271278 l -0.176074,-0.206373 0.076074,-0.0649 z m 0,-0.645488 0.099976,-0.0023 9e-6,4.88e-4 -0.099985,0.0018 z m 0.412302,-1.41264 0.070523,0.071427 -0.00668,0.00554 z M 3.167963,8.279253 3.068159,8.288943 3.067989,8.281553 Z M 3.039541,2.682769 2.980484,2.602071 3.135119,2.488904 l 0.0044,0.191571 -0.099974,0.00229 z m 6.55627,10.672523 v 0.1 H 9.360214 l 0.163665,-0.169468 0.071932,0.06947 z m 0.740114,-5.126733 0.09969,-0.00853 1.75e-4,0.00341 -0.09987,0.00512 z m -0.01014,-2.254138 0.09977,0.0068 -6.4e-5,8.33e-4 -0.09971,-0.00763 z m -0.138561,-0.408923 0.07372,-0.067572 2.79e-4,3.05e-4 z M 8.534639,5.325553 H 8.43464 V 5.221539 l 0.103933,0.00409 -0.00393,0.099923 z m 0,8.523149 0.00754,0.09972 -0.107541,0.0081 v -0.107849 h 0.099999 z m 1.064549,-0.49341 v -0.1 h 0.239415 l -0.168287,0.170291 -0.071128,-0.07029 z m -4.07232,-11.706658 -0.1,0.00333 V 1.648634 Z M 5.51335,1.952791 5.412775,1.950471 5.414227,1.939575 Z m -0.148699,6.444745 0.100332,0.00231 -9.11e-4,0.00843 z M 5.895236,9.14779 5.847254,9.235527 5.837111,9.22998 5.8285,9.222263 Z m 0.591416,3.382899 0.1,-0.0044 v 0.0044 z m 0,0.777291 -7.35e-4,0.1 -0.099265,-7.29e-4 v -0.09927 z m 1.368705,-0.152079 h 0.1 v 0.07937 l -0.0773,0.01802 z m 0,-11.443055 0.022832,-0.097359 0.077168,0.018097 V 1.712846 Z M 5.526868,1.641876 h -0.1 V 1.557467 L 5.510079,1.543296 Z m 3.66678,-0.294019 0.099786,0.00654 -0.199786,-0.00654 z m -0.662387,0.00338 0.1,-0.00813 v 0.00813 z m 0,3.295032 0.00156,0.099988 -0.101563,0.00159 V 4.646272 h 0.1 z M 9.193648,4.63613 h 0.1 V 4.737658 L 9.192133,4.736118 9.193643,4.636129 Z m 3.126057,2.169652 -0.09927,0.012985 -3.89e-4,-0.00468 0.09965,-0.00831 z M 9.869553,2.584763 H 9.769552 V 2.394917 l 0.156561,0.107378 z m 0,2.118958 -0.00941,0.099556 -0.09059,-0.00856 V 4.703724 h 0.100001 z m 1.125379,1.341669 0.09965,0.00843 -1.19e-4,0.00123 -0.09953,-0.00965 z m 0.02366,5.214601 0.07651,0.06439 -0.213199,0.253348 0.03732,-0.329008 0.09936,0.01127 z m -0.07898,1.130365 c -0.172629,0.661169 -0.484375,1.237399 -0.944456,1.642006 -0.461734,0.406061 -1.066685,0.633633 -1.812348,0.605692 l 0.00749,-0.19986 c 0.697393,0.02613 1.251618,-0.185634 1.672783,-0.556018 0.422819,-0.371837 0.717697,-0.909158 0.883021,-1.542346 l 0.193512,0.05053 z M 8.179669,14.637887 C 8.065294,14.629999 7.972973,14.595726 7.903198,14.534849 7.833902,14.474391 7.796324,14.395947 7.775867,14.316895 7.755639,14.238731 7.750826,14.154904 7.750553,14.077013 c -2.58e-4,-0.0732 0.00407,-0.161428 0.00481,-0.222756 l 0.199986,0.0024 c -9.51e-4,0.07892 -0.00507,0.142769 -0.0048,0.219642 2.53e-4,0.07218 0.00495,0.13642 0.018936,0.190479 0.01376,0.05317 0.035113,0.09111 0.065195,0.117358 0.029604,0.02583 0.077111,0.04859 0.158747,0.05422 z M 7.875252,13.953463 c -0.455863,0.09254 -0.922395,0.140609 -1.389335,0.137176 l 0.00147,-0.199994 c 0.452289,0.0033 0.904986,-0.04323 1.348075,-0.133184 z m -1.2886,0.03718 v 0.212909 h -0.2 v -0.212909 z m 0,0.212909 c 0,0.241102 -0.19685,0.437952 -0.437952,0.437952 v -0.2 c 0.130645,0 0.237952,-0.107307 0.237952,-0.237952 z M 6.1487,14.641504 c -0.241102,0 -0.437952,-0.19685 -0.437952,-0.437952 h 0.2 c 0,0.130645 0.107306,0.237952 0.237952,0.237952 z M 5.710748,14.203552 v -1.639067 h 0.2 v 1.639067 z m 9.48e-4,-1.625326 C 5.690049,12.422183 5.69226,12.197206 5.700774,11.949358 5.709464,11.696394 5.724707,11.420185 5.731904,11.143332 5.739058,10.868078 5.737833,10.60248 5.714168,10.381397 5.689864,10.15435 5.643753,9.996855 5.578314,9.917942 L 5.732266,9.790276 c 0.106916,0.128929 0.156278,0.341067 0.180766,0.569833 0.025126,0.23473 0.026012,0.511123 0.018804,0.78842 -0.00717,0.275699 -0.022761,0.562602 -0.03118,0.807695 -0.00859,0.250208 -0.00976,0.458233 0.00914,0.594519 l -0.198103,0.02748 z M 5.586698,9.926876 C 5.389528,9.74102 5.122025,9.527775 4.919983,9.28281 4.713687,9.032688 4.559239,8.732325 4.589059,8.355844 l 0.199376,0.015793 c -0.024252,0.306183 0.098421,0.556682 0.285839,0.783917 0.191673,0.232392 0.434477,0.423 0.649608,0.625788 z M 4.588774,8.361433 4.737473,1.920069 4.937419,1.924685 4.788721,8.366049 Z M 4.739705,1.901243 C 4.787795,1.678827 4.73963,1.448443 4.602145,1.266127 L 4.761831,1.145708 C 4.935261,1.375692 4.995242,1.665757 4.935188,1.94351 Z M 4.611277,1.276628 C 4.432736,1.098086 4.153659,1.076464 3.954379,1.225222 L 3.83474,1.064951 C 4.115353,0.85548 4.505421,0.887929 4.752698,1.135207 Z M 3.96787,1.213098 C 3.917629,1.267254 3.878038,1.347118 3.849201,1.450416 3.820548,1.553054 3.80423,1.672555 3.796239,1.799799 3.780204,2.055119 3.798289,2.326962 3.808566,2.535915 L 3.608807,2.545739 C 3.598806,2.342391 3.579716,2.056614 3.596632,1.787263 3.605116,1.652172 3.622805,1.517575 3.656567,1.396638 3.690145,1.27636 3.741379,1.163169 3.821249,1.077075 Z M 3.808658,2.538457 3.943839,8.239708 3.743895,8.24445 3.608715,2.543198 Z M 3.943544,8.234048 C 3.974972,8.62412 3.826312,8.925926 3.623278,9.176157 3.425937,9.419372 3.161021,9.630357 2.967114,9.817854 L 2.828089,9.674076 C 3.043104,9.466169 3.280047,9.28175 3.467971,9.050142 3.650202,8.82555 3.770214,8.573116 3.74419,8.250109 Z M 2.960241,9.823915 C 2.897292,9.874499 2.855786,9.974825 2.835809,10.127711 2.816317,10.276886 2.820093,10.451361 2.825203,10.62508 l -0.199914,0.0059 C 2.62026,10.459967 2.615588,10.269453 2.637495,10.101799 2.658917,9.937855 2.708658,9.769508 2.834963,9.668014 Z m -0.333053,0.784493 c 3.13e-4,-0.0016 0.00191,-0.0099 0.00605,-0.01971 0.00281,-0.0061 0.01281,-0.02204 0.020792,-0.03123 0.018352,-0.01476 0.072255,-0.03 0.104798,-0.02428 0.021049,0.01036 0.04691,0.03459 0.053553,0.04475 0.00312,0.0059 0.00728,0.01578 0.00859,0.01967 0.00218,0.0069 0.00312,0.01261 0.00341,0.01437 0.00117,0.0071 0.0015,0.01421 0.0016,0.01602 3.62e-4,0.0068 6.26e-4,0.01653 8.45e-4,0.02781 4.49e-4,0.02316 7.93e-4,0.05813 0.00105,0.102898 5.23e-4,0.08972 7.21e-4,0.220575 6.95e-4,0.379046 -5.3e-5,0.317016 -0.001,0.745378 -0.00206,1.178148 -0.00106,0.432835 -0.00222,0.870086 -0.00269,1.205067 -2.37e-4,0.167501 -3.03e-4,0.309314 -9.9e-5,0.412166 1.02e-4,0.05145 2.72e-4,0.09299 5.19e-4,0.123057 1.24e-4,0.01506 2.66e-4,0.02703 4.24e-4,0.03585 1.77e-4,0.0099 3.42e-4,0.01333 3.28e-4,0.01313 L 2.6255,14.11943 C 2.62347,14.09096 2.62335,13.851778 2.62382,13.520695 c 4.75e-4,-0.335116 0.00164,-0.772526 0.00269,-1.205271 0.00106,-0.43281 0.00201,-0.860945 0.00206,-1.177694 2.6e-5,-0.158412 -1.72e-4,-0.28876 -6.91e-4,-0.377847 -2.61e-4,-0.04464 -6e-4,-0.07847 -0.00102,-0.100189 -2.16e-4,-0.01116 -4.33e-4,-0.01792 -6.03e-4,-0.02113 -1.7e-4,-0.0032 -1.18e-4,4.31e-4 7.63e-4,0.0058 2.17e-4,0.0013 0.00108,0.0067 0.00319,0.01335 0.00127,0.0038 0.0054,0.01356 0.00848,0.0194 0.00661,0.01009 0.032428,0.03429 0.05344,0.04463 0.032505,0.0057 0.086369,-0.0095 0.104683,-0.02424 0.00794,-0.0092 0.017904,-0.02504 0.020676,-0.03104 0.00406,-0.0096 0.00558,-0.01767 0.00581,-0.01884 l -0.196116,-0.03922 z m 0.198058,3.503897 c 0,0.241102 -0.19685,0.437952 -0.437952,0.437952 v -0.2 c 0.130645,0 0.237952,-0.107307 0.237952,-0.237952 z m -0.437952,0.437952 c -0.241102,0 -0.437952,-0.19685 -0.437952,-0.437952 h 0.2 c 0,0.130645 0.107307,0.237952 0.237952,0.237952 z M 1.949342,14.112305 v -1.879013 h 0.2 v 1.879013 z M 1.981935,12.307158 C 0.450695,10.909816 -0.30806,8.853313 -0.050559,6.796738 l 0.19845,0.024848 c -0.249427,1.99209 0.485567,3.984253 1.968858,5.33784 z M -0.051076,6.801978 C 0.096541,4.752511 1.215713,2.898499 2.963381,1.82037 L 3.068387,1.990586 C 1.375704,3.034796 0.29143,4.830667 0.148408,6.816346 Z M 2.916027,1.910814 C 2.89107,1.443756 3.037265,0.983724 3.329674,0.616429 l 0.15647,0.124568 C 3.224312,1.069884 3.093386,1.481766 3.115742,1.900143 Z M 3.336669,0.608536 C 3.57962,0.361904 3.91867,0.228938 4.265918,0.251102 L 4.253178,0.450696 C 3.965076,0.432307 3.682295,0.542666 3.47915,0.74889 Z M 4.257342,0.250924 C 4.755506,0.239935 5.212778,0.514667 5.443052,0.953283 L 5.265973,1.04625 C 5.070427,0.673782 4.68282,0.441586 4.261753,0.450875 Z M 5.336797,0.901348 C 6.194437,0.746973 7.076061,0.760698 7.930248,0.942513 L 7.888611,1.138131 C 7.059796,0.961717 6.204348,0.948403 5.372228,1.098185 Z M 7.813332,1.012657 C 7.884796,0.764417 8.050157,0.554357 8.274723,0.423359 L 8.375498,0.596115 C 8.194522,0.701684 8.062485,0.870131 8.005527,1.067986 Z M 8.273461,0.424109 C 8.626096,0.211408 9.061157,0.226179 9.400604,0.400031 9.742097,0.57493 9.997273,0.916959 9.972781,1.363472 L 9.773081,1.352518 C 9.792522,0.998085 9.593154,0.723352 9.309434,0.578042 9.02367,0.431685 8.662854,0.422802 8.37676,0.595366 Z m 1.69947,0.933886 v 0.446096 h -0.2 V 1.357995 Z M 9.919166,1.715422 c 1.89079,0.9859 2.97681,3.021528 3.173474,5.126258 0.196669,2.104776 -0.494036,4.300799 -2.185213,5.609263 L 10.785041,12.292761 C 12.409173,11.036169 13.085485,8.914854 12.893507,6.860286 12.701526,4.805671 11.64324,2.839948 9.826696,1.892761 Z m 0.83763,10.70116 -0.0034,-0.0068 0.178877,-0.08946 0.0034,0.0068 z M 0.817087,6.882007 c -0.189291,1.564141 0.282297,3.138105 1.30495,4.336734 L 1.969888,11.348552 C 0.910757,10.107168 0.422561,8.477346 0.618535,6.857979 Z m 1.128875,4.40164 c 0,-0.18815 0.00338,-0.455539 1.6e-5,-0.643703 l 0.199969,-0.0036 c 0.0034,0.190341 1.5e-5,0.463675 1.5e-5,0.647273 h -0.2 z m 2.6e-5,-0.643217 C 1.940956,10.418999 1.93442,10.145394 1.986725,9.880766 2.039407,9.61423 2.153216,9.348619 2.394422,9.14855 l 0.127684,0.153937 c -0.194753,0.16154 -0.292163,0.3792 -0.339177,0.617059 -0.047391,0.239764 -0.042098,0.491676 -0.036992,0.71634 l -0.199949,0.0045 z M 2.388005,9.15436 C 2.456807,9.086428 2.539331,9.013706 2.619466,8.941238 2.7009,8.867596 2.781619,8.792694 2.852536,8.71612 2.999542,8.557388 3.080756,8.415866 3.068431,8.288916 L 3.267495,8.269589 C 3.288965,8.49073 3.148821,8.69054 2.999274,8.852017 2.921914,8.935549 2.835558,9.015472 2.753613,9.089577 2.67037,9.164857 2.593211,9.232809 2.528522,9.296679 Z M 3.067989,8.281548 2.939568,2.685063 3.139515,2.680475 3.267937,8.276958 Z M 3.098599,2.763467 C 1.77387,3.732943 0.940396,5.237061 0.817532,6.877462 L 0.61809,6.862524 C 0.745311,5.16396 1.608356,3.606235 2.980484,2.602071 Z m 6.42528,10.522357 c 0.450819,-0.466806 0.657772,-1.256174 0.735208,-2.180348 0.07706,-0.91971 0.02436,-1.947679 -0.02303,-2.871794 l 0.199738,-0.010244 c 0.04724,0.921103 0.10099,1.96309 0.02259,2.898737 -0.07802,0.931183 -0.288439,1.782571 -0.790645,2.302586 z m 0.71241,-5.048737 C 10.171618,7.48146 10.168215,6.722422 10.226079,5.966784 l 0.199416,0.015272 c -0.05704,0.74487 -0.05368,1.493097 0.01007,2.237977 l -0.199272,0.017054 z m -0.01027,-2.269469 c 0.0084,-0.123456 -0.03098,-0.244864 -0.112786,-0.334852 l 0.147988,-0.134535 c 0.120963,0.13306 0.176194,0.30905 0.164334,0.482991 z M 10.113511,5.633071 C 10.057599,5.572076 9.965033,5.524249 9.837941,5.490084 9.712215,5.456285 9.562992,5.438545 9.404994,5.430056 9.247449,5.42159 9.085058,5.422483 8.933461,5.424541 8.783718,5.426572 8.641449,5.429835 8.530707,5.425475 L 8.538575,5.22563 C 8.642433,5.22972 8.776863,5.22665 8.930748,5.22456 9.08278,5.2225 9.250949,5.22149 9.415726,5.23034 c 0.164323,0.00883 0.329183,0.027631 0.474136,0.066597 0.143587,0.0386 0.278293,0.099763 0.37108,0.200985 L 10.113511,5.633067 Z M 8.634642,5.325553 v 8.523149 h -0.2 V 5.325553 Z M 8.5271,13.748987 c 0.378001,-0.02859 0.733957,-0.193802 1.000962,-0.463986 l 0.142256,0.140582 c -0.300755,0.304335 -0.70181,0.490591 -1.128135,0.522835 z M 9.59919,13.455292 H 9.59581 v -0.2 H 9.59919 Z M 5.626812,1.645303 C 5.630339,1.7511 5.626856,1.858131 5.612473,1.966007 L 5.414227,1.939575 C 5.42688,1.84468 5.430156,1.74894 5.426923,1.651965 Z M 5.613324,1.955098 5.464624,8.399843 5.264678,8.395229 5.413377,1.950484 Z M 5.464072,8.408284 C 5.455097,8.4913 5.499774,8.59301 5.599778,8.715873 5.697365,8.835766 5.830428,8.95544 5.961972,9.073317 L 5.8285,9.222263 C 5.699821,9.106954 5.554073,8.976542 5.444665,8.842127 5.337673,8.71068 5.247169,8.553857 5.265231,8.386787 Z m 0.479145,0.651769 c 0.24363,0.133235 0.398494,0.354861 0.496097,0.619224 0.097131,0.263084 0.140021,0.574704 0.156919,0.900044 0.016929,0.325924 0.008,0.672342 -0.00176,1.006071 -0.00981,0.335579 -0.020397,0.657288 -0.00792,0.940903 l -0.199807,0.0088 c -0.01287,-0.292592 -0.00191,-0.62271 0.00781,-0.955536 0.00978,-0.334677 0.018385,-0.673245 0.00194,-0.989853 C 6.380028,10.272505 6.338641,9.984049 6.251693,9.748548 6.165218,9.514326 6.036203,9.338859 5.847254,9.235527 Z m 0.643435,3.470636 v 0.777291 h -0.2 v -0.777291 z m -0.099265,0.677293 c 0.451777,0.0033 0.903524,-0.04651 1.34527,-0.149471 l 0.0454,0.194779 c -0.457205,0.106567 -0.924688,0.158123 -1.39214,0.154686 z m 1.26797,-0.05208 V 1.712847 h 0.2 V 13.155902 Z M 7.832525,1.810205 C 7.081814,1.634152 6.304479,1.610885 5.543657,1.740457 L 5.510079,1.543296 C 6.297078,1.409266 7.101357,1.43331 7.878189,1.615487 Z M 5.626868,1.641876 v 0.00676 h -0.2 V 1.641876 Z M 9.093863,1.341313 C 9.098448,1.271379 9.072685,1.225188 9.033808,1.193653 8.991633,1.159443 8.928563,1.138886 8.860164,1.139053 8.791734,1.13922 8.729379,1.160088 8.688194,1.194292 8.650416,1.225667 8.625148,1.271979 8.630933,1.343134 L 8.43159,1.359341 C 8.420478,1.222654 8.472938,1.113086 8.560413,1.040435 8.644483,0.970613 8.754906,0.939309 8.859676,0.939054 8.964478,0.938798 9.07503,0.969567 9.1598,1.038327 9.247866,1.109762 9.302366,1.218184 9.293434,1.3544 Z m -0.462602,0.00992 v 3.295032 h -0.2 V 1.351233 Z M 8.529699,4.546281 C 8.741769,4.542967 8.970292,4.532735 9.195163,4.536142 L 9.192133,4.736119 C 8.970907,4.732767 8.753332,4.742811 8.532824,4.746257 Z M 9.093648,4.63613 c 0,-9.24e-4 0,-0.00186 0,-0.00279 0,-9.38e-4 0,-0.00188 0,-0.00284 0,-9.54e-4 0,-0.00191 0,-0.00288 0,-9.68e-4 0,-0.00194 0,-0.00292 0,-9.83e-4 0,-0.00197 0,-0.00297 0,-9.96e-4 0,-0.002 0,-0.00301 0,-0.00101 0,-0.00203 0,-0.00306 0,-0.00103 0,-0.00206 0,-0.0031 0,-0.00104 0,-0.00209 0,-0.00314 0,-0.00106 0,-0.00212 0,-0.00318 0,-0.00107 0,-0.00214 0,-0.00323 0,-0.00108 0,-0.00217 0,-0.00327 0,-0.0011 0,-0.0022 0,-0.00331 0,-0.00111 0,-0.00223 0,-0.00335 0,-0.00113 0,-0.00226 0,-0.00339 0,-0.00114 0,-0.00228 0,-0.00343 0,-0.00115 0,-0.00231 0,-0.00348 0,-0.00116 0,-0.00234 0,-0.00352 0,-0.00118 0,-0.00237 0,-0.00356 0,-0.00119 0,-0.00239 0,-0.0036 0,-0.00121 0,-0.00242 0,-0.00364 0,-0.00122 0,-0.00245 0,-0.00368 0,-0.00123 0,-0.00247 0,-0.00372 0,-0.00125 0,-0.0025 0,-0.00376 0,-0.00126 0,-0.00253 0,-0.0038 0,-0.00127 0,-0.00255 0,-0.00384 0,-0.00129 0,-0.00258 0,-0.00388 0,-0.0013 0,-0.0026 0,-0.00392 0,-0.00131 0,-0.00263 0,-0.00396 0,-0.00133 0,-0.00266 0,-0.004 0,-0.00134 0,-0.00268 0,-0.00404 0,-0.00135 0,-0.00271 0,-0.00407 0,-0.00136 0,-0.00274 0,-0.00411 0,-0.00138 0,-0.00276 0,-0.00415 0,-0.00139 0,-0.00279 0,-0.00419 0,-0.0014 0,-0.00281 0,-0.00423 0,-0.00141 0,-0.00284 0,-0.00426 0,-0.00143 0,-0.00286 0,-0.0043 0,-0.00144 0,-0.00289 0,-0.00434 0,-0.00145 0,-0.00291 0,-0.00438 0,-0.00147 0,-0.00294 0,-0.00442 0,-0.00148 0,-0.00296 0,-0.00445 0,-0.00149 0,-0.00299 0,-0.00449 0,-0.0015 0,-0.00301 0,-0.00453 0,-0.00151 0,-0.00303 0,-0.00456 0,-0.00153 0,-0.00306 0,-0.0046 0,-0.00154 0,-0.00308 0,-0.00463 0,-0.00155 0,-0.00311 0,-0.00467 0,-0.00156 0,-0.00313 0,-0.00471 0,-0.00157 0,-0.00315 0,-0.00474 0,-0.00159 0,-0.00318 0,-0.00478 0,-0.0016 0,-0.0032 0,-0.00481 0,-0.00161 0,-0.00323 0,-0.00485 0,-0.00162 0,-0.00325 0,-0.00488 0,-0.00163 0,-0.00327 0,-0.00492 0,-0.00164 0,-0.00329 0,-0.00495 0,-0.00166 0,-0.00332 0,-0.00498 0,-0.00167 0,-0.00334 0,-0.00502 0,-0.00168 0,-0.00336 0,-0.00505 0,-0.00169 0,-0.00339 0,-0.00509 0,-0.0017 0,-0.00341 0,-0.00512 0,-0.00171 0,-0.00343 0,-0.00515 0,-0.00172 0,-0.00345 0,-0.00519 0,-0.00173 0,-0.00347 0,-0.00522 0,-0.00175 0,-0.0035 0,-0.00525 0,-0.00176 0,-0.00352 0,-0.00529 0,-0.00177 0,-0.00354 0,-0.00532 0,-0.00178 0,-0.00356 0,-0.00535 0,-0.00179 0,-0.00358 0,-0.00538 0,-0.0018 0,-0.00361 0,-0.00542 0,-0.00181 0,-0.00363 0,-0.00545 0,-0.00182 0,-0.00365 0,-0.00548 0,-0.00183 0,-0.00367 0,-0.00551 0,-0.00184 0,-0.00369 0,-0.00554 0,-0.00185 0,-0.00371 0,-0.00557 0,-0.00186 0,-0.00373 0,-0.0056 0,-0.00187 0,-0.00375 0,-0.00563 0,-0.00188 0,-0.00377 0,-0.00566 0,-0.00189 0,-0.00379 0,-0.0057 0,-0.0019 0,-0.00381 0,-0.00572 0,-0.00191 0,-0.00383 0,-0.00575 0,-0.00192 0,-0.00385 0,-0.00579 0,-0.00193 0,-0.00387 0,-0.00582 0,-0.00194 0,-0.00389 0,-0.00584 0,-0.00195 0,-0.00391 0,-0.00587 0,-0.00196 0,-0.00393 0,-0.00591 0,-0.00197 0,-0.00395 0,-0.00593 0,-0.00198 0,-0.00397 0,-0.00596 0,-0.00199 0,-0.00399 0,-0.00599 0,-0.002 0,-0.00401 0,-0.00602 0,-0.00201 0,-0.00403 0,-0.00605 0,-0.00202 0,-0.00405 0,-0.00608 0,-0.00203 0,-0.00406 0,-0.0061 0,-0.00204 0,-0.00408 0,-0.00613 0,-0.00205 0,-0.0041 0,-0.00616 0,-0.00206 0,-0.00412 0,-0.00619 0,-0.00207 0,-0.00414 0,-0.00621 0,-0.00208 0,-0.00416 0,-0.00624 0,-0.00208 0,-0.00417 0,-0.00627 0,-0.00209 0,-0.00419 0,-0.00629 0,-0.0021 0,-0.00421 0,-0.00632 0,-0.00211 0,-0.00423 0,-0.00635 0,-0.00212 0,-0.00425 0,-0.00637 0,-0.00213 0,-0.00426 0,-0.0064 0,-0.00214 0,-0.00428 0,-0.00643 0,-0.00215 0,-0.0043 0,-0.00645 0,-0.00215 0,-0.00431 0,-0.00648 0,-0.00216 0,-0.00433 0,-0.0065 0,-0.00217 0,-0.00435 0,-0.00653 0,-0.00218 0,-0.00436 0,-0.00655 0,-0.00219 0,-0.00438 0,-0.00658 0,-0.0022 0,-0.0044 0,-0.0066 0,-0.00221 0,-0.00441 0,-0.00663 0,-0.00221 0,-0.00443 0,-0.00665 0,-0.00222 0,-0.00445 0,-0.00667 0,-0.00223 0,-0.00446 0,-0.0067 0,-0.00224 0,-0.00448 0,-0.00672 0,-0.00224 0,-0.00449 0,-0.00675 0,-0.00225 0,-0.00451 0,-0.00677 0,-0.00226 0,-0.00453 0,-0.00679 0,-0.00227 0,-0.00454 0,-0.00682 0,-0.00228 0,-0.00456 0,-0.00684 0,-0.00228 0,-0.00457 0,-0.00686 0,-0.00229 0,-0.00459 0,-0.00689 0,-0.0023 0,-0.0046 0,-0.00691 0,-0.00231 0,-0.00462 0,-0.00693 0,-0.00231 0,-0.00463 0,-0.00695 0,-0.00232 0,-0.00465 0,-0.00697 0,-0.00233 0,-0.00466 0,-0.007 0,-0.00233 0,-0.00467 0,-0.00702 0,-0.00234 0,-0.00469 0,-0.00704 0,-0.00235 0,-0.0047 0,-0.00706 0,-0.00236 0,-0.00472 0,-0.00708 0,-0.00236 0,-0.00473 0,-0.0071 0,-0.00237 0,-0.00475 0,-0.00712 0,-0.00238 0,-0.00476 0,-0.00714 0,-0.00238 0,-0.00477 0,-0.00716 0,-0.00239 0,-0.00479 0,-0.00718 0,-0.0024 0,-0.0048 0,-0.0072 0,-0.0024 0,-0.00481 0,-0.00722 0,-0.00241 0,-0.00483 0,-0.00724 0,-0.00242 0,-0.00484 0,-0.00726 0,-0.00242 0,-0.00485 0,-0.00728 0,-0.00243 0,-0.00486 0,-0.0073 0,-0.00244 0,-0.00488 0,-0.00732 0,-0.00244 0,-0.00489 0,-0.00734 0,-0.00245 0,-0.0049 0,-0.00736 0,-0.00246 0,-0.00491 0,-0.00738 0,-0.00246 0,-0.00493 0,-0.00739 0,-0.00247 0,-0.00494 0,-0.00741 0,-0.00247 0,-0.00495 0,-0.00743 0,-0.00248 0,-0.00496 0,-0.00745 0,-0.00249 0,-0.00497 0,-0.00747 0,-0.00249 0,-0.00499 0,-0.00748 0,-0.0025 0,-0.005 0,-0.0075 0,-0.0025 0,-0.00501 0,-0.00752 0,-0.00251 0,-0.00502 0,-0.00753 0,-0.00251 0,-0.00503 0,-0.00755 0,-0.00252 0,-0.00504 0,-0.00757 0,-0.00252 0,-0.00505 0,-0.00758 0,-0.00253 0,-0.00506 0,-0.0076 0,-0.00254 0,-0.00508 0,-0.00762 0,-0.00254 0,-0.00508 0,-0.00763 0,-0.00255 0,-0.00509 0,-0.00765 0,-0.00255 0,-0.00511 0,-0.00766 0,-0.00256 0,-0.00512 0,-0.00768 0,-0.00256 0,-0.00513 0,-0.00769 0,-0.00257 0,-0.00514 0,-0.00771 0,-0.00257 0,-0.00515 0,-0.00772 0,-0.00258 0,-0.00516 0,-0.00774 0,-0.00258 0,-0.00517 0,-0.00775 0,-0.00259 0,-0.00517 0,-0.00777 0,-0.00259 0,-0.00518 0,-0.00778 0,-0.0026 0,-0.00519 0,-0.00779 0,-0.0026 0,-0.0052 0,-0.00781 0,-0.0026 0,-0.00521 0,-0.00782 0,-0.00261 0,-0.00522 0,-0.00783 0,-0.00261 0,-0.00523 0,-0.00785 0,-0.00262 0,-0.00524 0,-0.00786 0,-0.00262 0,-0.00525 0,-0.00787 0,-0.00263 0,-0.00526 0,-0.00789 0,-0.00263 0,-0.00526 0,-0.0079 0,-0.00263 0,-0.00527 0,-0.00791 0,-0.00264 0,-0.00528 0,-0.00792 0,-0.00264 0,-0.00529 0,-0.00794 0,-0.00265 0,-0.00529 0,-0.00795 0,-0.00265 0,-0.0053 0,-0.00796 0,-0.00265 0,-0.00531 0,-0.00797 0,-0.00266 0,-0.00532 0,-0.00798 0,-0.00266 0,-0.00533 0,-0.00799 0,-0.00267 0,-0.00533 0,-0.008 0,-0.00267 0,-0.00534 0,-0.00801 0,-0.00267 0,-0.00535 0,-0.00802 0,-0.00268 0,-0.00535 0,-0.00803 0,-0.00268 0,-0.00536 0,-0.00804 0,-0.00268 0,-0.00537 0,-0.00806 0,-0.00269 0,-0.00537 0,-0.00806 0,-0.00269 0,-0.00538 0,-0.00807 0,-0.00269 0,-0.00539 0,-0.00808 0,-0.0027 0,-0.00539 0,-0.00809 0,-0.0027 0,-0.0054 0,-0.0081 0,-0.0027 0,-0.00541 0,-0.00811 0,-0.0027 0,-0.00541 0,-0.00812 0,-0.00271 0,-0.00542 0,-0.00813 0,-0.00271 0,-0.00542 0,-0.00814 0,-0.00271 0,-0.00543 0,-0.00815 0,-0.00272 0,-0.00543 0,-0.00815 0,-0.00272 0,-0.00544 0,-0.00816 0,-0.00272 0,-0.00544 0,-0.00817 0,-0.00272 0,-0.00545 0,-0.00818 0,-0.00273 0,-0.00545 0,-0.00818 0,-0.00273 0,-0.00546 0,-0.00819 0,-0.00273 0,-0.00546 0,-0.0082 0,-0.00273 0,-0.00547 0,-0.0082 0,-0.00274 0,-0.00547 0,-0.00821 0,-0.00274 0,-0.00548 0,-0.00822 0,-0.00274 0,-0.00548 0,-0.00822 0,-0.00274 0,-0.00549 0,-0.00823 0,-0.00274 0,-0.00549 0,-0.00824 0,-0.00275 0,-0.00549 0,-0.00824 0,-0.00275 0,-0.0055 0,-0.00825 0,-0.00275 0,-0.0055 0,-0.00825 0,-0.00275 0,-0.00551 0,-0.00826 0,-0.00275 0,-0.00551 0,-0.00827 0,-0.00276 0,-0.00551 0,-0.00827 0,-0.00276 0,-0.00551 0,-0.00827 0,-0.00276 0,-0.00552 0,-0.00828 0,-0.00276 0,-0.00552 0,-0.00828 0,-0.00276 0,-0.00552 0,-0.00829 0,-0.00276 0,-0.00553 0,-0.00829 0,-0.00276 0,-0.00553 0,-0.0083 0,-0.00277 0,-0.00553 0,-0.0083 0,-0.00277 0,-0.00554 0,-0.0083 0,-0.00277 0,-0.00554 0,-0.00831 0,-0.00277 0,-0.00554 0,-0.00831 0,-0.00277 0,-0.00554 0,-0.00831 0,-0.00277 0,-0.00554 0,-0.00831 0,-0.00277 0,-0.00555 0,-0.00832 0,-0.00277 0,-0.00555 0,-0.00832 0,-0.00277 0,-0.00555 0,-0.00832 0,-0.00277 0,-0.00555 0,-0.00832 0,-0.00278 0,-0.00555 0,-0.00833 0,-0.00278 0,-0.00555 0,-0.00833 0,-0.00278 0,-0.00555 0,-0.00833 0,-0.00278 0,-0.00555 0,-0.00833 0,-0.00278 0,-0.00556 0,-0.00833 0,-0.00278 0,-0.00556 0,-0.00833 0,-0.00278 0,-0.00556 0,-0.00834 0,-0.00278 0,-0.00556 0,-0.00834 0,-0.00278 0,-0.00556 0,-0.00834 0,-0.00278 0,-0.00556 0,-0.00834 0,-0.00278 0,-0.00556 0,-0.00834 0,-0.00278 0,-0.00556 0,-0.00834 0,-0.00278 0,-0.00556 0,-0.00834 0,-0.00278 0,-0.00556 0,-0.00834 0,-0.00278 0,-0.00556 0,-0.00834 0,-0.00278 0,-0.00556 0,-0.00834 0,-0.00278 0,-0.00556 0,-0.00833 0,-0.00278 0,-0.00556 0,-0.00834 0,-0.00278 0,-0.00555 0,-0.00833 0,-0.00278 0,-0.00556 0,-0.00833 0,-0.00278 0,-0.00555 0,-0.00833 0,-0.00278 0,-0.00555 0,-0.00833 0,-0.00278 0,-0.00555 0,-0.00833 0,-0.00277 0,-0.00555 0,-0.00833 0,-0.00277 0,-0.00555 0,-0.00832 0,-0.00278 0,-0.00555 0,-0.00832 0,-0.00277 0,-0.00555 0,-0.00832 0,-0.00277 0,-0.00554 0,-0.00832 0,-0.00277 0,-0.00554 0,-0.00831 0,-0.00277 0,-0.00554 0,-0.00831 0,-0.00277 0,-0.00554 0,-0.00831 0,-0.00277 0,-0.00554 0,-0.0083 0,-0.00277 0,-0.00553 0,-0.0083 0,-0.00277 0,-0.00553 0,-0.0083 0,-0.00276 0,-0.00553 0,-0.00829 0,-0.00276 0,-0.00553 0,-0.00829 0,-0.00276 0,-0.00552 0,-0.00828 0,-0.00276 0,-0.00552 0,-0.00828 0,-0.00276 0,-0.00552 0,-0.00827 0,-0.00276 0,-0.00551 0,-0.00827 0,-0.00275 0,-0.00551 0,-0.00826 0,-0.00275 0,-0.00551 0,-0.00826 0,-0.00275 0,-0.0055 0,-0.00825 0,-0.00275 0,-0.0055 0,-0.00825 0,-0.00275 0,-0.0055 0,-0.00824 0,-0.00275 0,-0.00549 0,-0.00824 0,-0.00274 0,-0.00549 0,-0.00823 0,-0.00274 0,-0.00548 0,-0.00822 0,-0.00274 0,-0.00548 0,-0.00822 0,-0.00274 0,-0.00548 0,-0.00821 0,-0.00274 0,-0.00547 0,-0.00821 0,-0.00273 0,-0.00547 0,-0.0082 0,-0.00273 0,-0.00546 0,-0.00819 0,-0.00273 0,-0.00546 0,-0.00818 0,-0.00273 0,-0.00545 0,-0.00818 0,-0.00272 0,-0.00545 0,-0.00817 0,-0.00272 0,-0.00544 0,-0.00816 0,-0.00272 0,-0.00544 0,-0.00815 0,-0.00272 0,-0.00543 0,-0.00814 0,-0.00271 0,-0.00543 0,-0.00814 0,-0.00271 0,-0.00542 0,-0.00813 0,-0.00271 0,-0.00541 0,-0.00812 0,-0.00271 0,-0.00541 0,-0.00811 0,-0.0027 0,-0.0054 0,-0.0081 0,-0.0027 0,-0.0054 0,-0.00809 0,-0.0027 0,-0.00539 0,-0.00808 0,-0.00269 0,-0.00538 0,-0.00807 0,-0.00269 0,-0.00538 0,-0.00806 0,-0.00269 0,-0.00537 0,-0.00805 0,-0.00268 0,-0.00536 0,-0.00804 0,-0.00268 0,-0.00536 0,-0.00803 0,-0.00268 0,-0.00535 0,-0.00802 0,-0.00267 0,-0.00534 0,-0.00801 0,-0.00267 0,-0.00534 0,-0.008 0,-0.00267 0,-0.00533 0,-0.00799 0,-0.00266 0,-0.00532 0,-0.00798 0,-0.00266 0,-0.00531 0,-0.00797 0,-0.00265 0,-0.00531 0,-0.00796 0,-0.00265 0,-0.0053 0,-0.00794 0,-0.00265 0,-0.00529 0,-0.00793 0,-0.00264 0,-0.00528 0,-0.00792 0,-0.00264 0,-0.00527 0,-0.00791 0,-0.00264 0,-0.00527 0,-0.0079 0,-0.00263 0,-0.00526 0,-0.00788 0,-0.00262 0,-0.00525 0,-0.00787 0,-0.00262 0,-0.00524 0,-0.00786 0,-0.00262 0,-0.00523 0,-0.00785 0,-0.00261 0,-0.00522 0,-0.00783 0,-0.00261 0,-0.00521 0,-0.00782 0,-0.0026 0,-0.00521 0,-0.00781 0,-0.0026 0,-0.0052 0,-0.00779 0,-0.0026 0,-0.00519 0,-0.00778 0,-0.00259 0,-0.00518 0,-0.00776 0,-0.00258 0,-0.00517 0,-0.00775 0,-0.00258 0,-0.00516 0,-0.00773 0,-0.00258 0,-0.00515 0,-0.00772 0,-0.00257 0,-0.00514 0,-0.00771 0,-0.00257 0,-0.00513 0,-0.00769 0,-0.00256 0,-0.00512 0,-0.00768 0,-0.00256 0,-0.00511 0,-0.00766 0,-0.00255 0,-0.0051 0,-0.00765 0,-0.00255 0,-0.00509 0,-0.00763 0,-0.00254 0,-0.00508 0,-0.00761 0,-0.00253 0,-0.00507 0,-0.0076 0,-0.00253 0,-0.00506 0,-0.00758 0,-0.00252 0,-0.00505 0,-0.00757 0,-0.00252 0,-0.00503 0,-0.00755 0,-0.00251 0,-0.00502 0,-0.00753 0,-0.00251 0,-0.00501 0,-0.00752 0,-0.0025 0,-0.005 0,-0.0075 0,-0.0025 0,-0.00499 0,-0.00748 0,-0.00249 0,-0.00498 0,-0.00746 0,-0.00248 0,-0.00497 0,-0.00745 0,-0.00248 0,-0.00496 0,-0.00743 0,-0.00247 0,-0.00494 0,-0.00741 0,-0.00247 0,-0.00493 0,-0.00739 0,-0.00246 0,-0.00492 0,-0.00737 0,-0.00246 0,-0.00491 0,-0.00736 0,-0.00245 0,-0.00489 0,-0.00734 0,-0.00244 0,-0.00488 0,-0.00732 0,-0.00244 0,-0.00487 0,-0.0073 0,-0.00243 0,-0.00486 0,-0.00728 0,-0.00242 0,-0.00484 0,-0.00726 0,-0.00242 0,-0.00483 0,-0.00724 0,-0.00241 0,-0.00482 0,-0.00722 0,-0.0024 0,-0.0048 0,-0.0072 0,-0.0024 0,-0.00479 0,-0.00718 0,-0.00239 0,-0.00478 0,-0.00716 0,-0.00238 0,-0.00476 0,-0.00714 0,-0.00238 0,-0.00475 0,-0.00712 0,-0.00237 0,-0.00474 0,-0.0071 0,-0.00236 0,-0.00472 0,-0.00708 0,-0.00236 0,-0.00471 0,-0.00706 0,-0.00235 0,-0.0047 0,-0.00704 0,-0.00234 0,-0.00468 0,-0.00702 0,-0.00233 0,-0.00467 0,-0.00699 0,-0.00233 0,-0.00465 0,-0.00697 0,-0.00232 0,-0.00464 0,-0.00695 0,-0.00231 0,-0.00462 0,-0.00693 0,-0.00231 0,-0.00461 0,-0.00691 0,-0.0023 0,-0.00459 0,-0.00688 0,-0.00229 0,-0.00458 0,-0.00686 0,-0.00228 0,-0.00456 0,-0.00684 0,-0.00228 0,-0.00455 0,-0.00682 0,-0.00227 0,-0.00453 0,-0.00679 0,-0.00226 0,-0.00452 0,-0.00677 0,-0.00225 0,-0.0045 0,-0.00674 0,-0.00225 0,-0.00449 0,-0.00672 0,-0.00224 0,-0.00447 0,-0.0067 0,-0.00223 0,-0.00445 0,-0.00667 0,-0.00222 0,-0.00444 0,-0.00665 0,-0.00221 0,-0.00442 0,-0.00663 0,-0.0022 0,-0.0044 0,-0.0066 0,-0.0022 0,-0.00439 0,-0.00657 0,-0.00219 0,-0.00437 0,-0.00655 0,-0.00218 0,-0.00436 0,-0.00653 0,-0.00217 0,-0.00434 0,-0.0065 0,-0.00216 0,-0.00432 0,-0.00648 0,-0.00215 0,-0.0043 0,-0.00645 0,-0.00215 0,-0.00429 0,-0.00642 0,-0.00214 0,-0.00427 0,-0.0064 0,-0.00213 0,-0.00425 0,-0.00637 0,-0.00212 0,-0.00424 0,-0.00635 0,-0.00211 0,-0.00422 0,-0.00632 0,-0.0021 0,-0.0042 0,-0.00629 0,-0.00209 0,-0.00418 0,-0.00627 0,-0.00208 0,-0.00416 0,-0.00624 0,-0.00208 0,-0.00415 0,-0.00621 0,-0.00207 0,-0.00413 0,-0.00618 0,-0.00206 0,-0.00411 0,-0.00616 0,-0.00205 0,-0.00409 0,-0.00613 0,-0.00204 0,-0.00407 0,-0.0061 0,-0.00203 0,-0.00405 0,-0.00607 0,-0.00202 0,-0.00404 0,-0.00604 0,-0.00201 0,-0.00402 0,-0.00602 0,-0.002 0,-0.004 0,-0.00599 0,-0.00199 0,-0.00398 0,-0.00596 0,-0.00198 0,-0.00396 0,-0.00593 0,-0.00197 0,-0.00394 0,-0.0059 0,-0.00196 0,-0.00392 0,-0.00587 0,-0.00195 0,-0.0039 0,-0.00584 0,-0.00194 0,-0.00388 0,-0.00581 0,-0.00193 0,-0.00386 0,-0.00578 0,-0.00192 0,-0.00384 0,-0.00575 0,-0.00191 0,-0.00382 0,-0.00572 0,-0.0019 0,-0.0038 0,-0.00569 0,-0.00189 0,-0.00378 0,-0.00566 0,-0.00188 0,-0.00376 0,-0.00563 0,-0.00187 0,-0.00374 0,-0.0056 0,-0.00186 0,-0.00372 0,-0.00557 0,-0.00185 0,-0.0037 0,-0.00554 0,-0.00184 0,-0.00368 0,-0.00551 0,-0.00183 0,-0.00366 0,-0.00548 0,-0.00182 0,-0.00363 0,-0.00544 0,-0.00181 0,-0.00361 0,-0.00541 0,-0.0018 0,-0.00359 0,-0.00538 0,-0.00179 0,-0.00357 0,-0.00535 0,-0.00178 0,-0.00355 0,-0.00531 0,-0.00177 0,-0.00353 0,-0.00528 0,-0.00175 0,-0.00351 0,-0.00525 0,-0.00175 0,-0.00348 0,-0.00522 0,-0.00173 0,-0.00346 0,-0.00518 0,-0.00172 0,-0.00344 0,-0.00515 0,-0.00171 0,-0.00342 0,-0.00512 0,-0.0017 0,-0.0034 0,-0.00508 0,-0.00169 0,-0.00337 0,-0.00505 0,-0.00168 0,-0.00335 0,-0.00502 0,-0.00167 0,-0.00333 0,-0.00498 0,-0.00165 0,-0.0033 0,-0.00495 0,-0.00164 0,-0.00328 0,-0.00491 0,-0.00163 0,-0.00326 0,-0.00488 0,-0.00162 0,-0.00323 0,-0.00484 0,-0.00161 0,-0.00321 0,-0.00481 0,-0.0016 0,-0.00319 0,-0.00477 0,-0.00158 0,-0.00316 0,-0.00474 0,-0.00157 0,-0.00314 0,-0.0047 0,-0.00156 0,-0.00312 0,-0.00467 0,-0.00155 0,-0.00309 0,-0.00463 0,-0.00154 0,-0.00307 0,-0.00459 0,-0.00152 0,-0.00304 0,-0.00456 0,-0.00151 0,-0.00302 0,-0.00452 0,-0.0015 0,-0.003 0,-0.00449 0,-0.00149 0,-0.00297 0,-0.00445 0,-0.00148 0,-0.00295 0,-0.00441 0,-0.00147 0,-0.00292 0,-0.00438 0,-0.00145 0,-0.0029 0,-0.00434 0,-0.00144 0,-0.00287 0,-0.0043 0,-0.00143 0,-0.00285 0,-0.00426 0,-0.00141 0,-0.00282 0,-0.00422 0,-0.0014 0,-0.0028 0,-0.00419 0,-0.00139 0,-0.00277 0,-0.00415 0,-0.00138 0,-0.00275 0,-0.00411 0,-0.00136 0,-0.00272 0,-0.00407 0,-0.00135 0,-0.00269 0,-0.00403 0,-0.00134 0,-0.00267 0,-0.00399 0,-0.00133 0,-0.00264 0,-0.00396 0,-0.00131 0,-0.00262 0,-0.00392 0,-0.0013 0,-0.00259 0,-0.00388 0,-0.00129 0,-0.00256 0,-0.00384 0,-0.00127 0,-0.00254 0,-0.0038 0,-0.00126 0,-0.00251 0,-0.00376 0,-0.00125 0,-0.00249 0,-0.00372 0,-0.00123 0,-0.00246 0,-0.00368 0,-0.00122 0,-0.00243 0,-0.00364 0,-0.00121 0,-0.0024 0,-0.0036 0,-0.00119 0,-0.00238 0,-0.00355 0,-0.00118 0,-0.00235 0,-0.00351 0,-0.00116 0,-0.00232 0,-0.00347 0,-0.00115 0,-0.00229 0,-0.00343 0,-0.00114 0,-0.00227 0,-0.00339 0,-0.00112 0,-0.00224 0,-0.00335 0,-0.00111 0,-0.00221 0,-0.00331 0,-0.00109 0,-0.00218 0,-0.00326 0,-0.00108 0,-0.00215 0,-0.00322 0,-0.00107 0,-0.00213 0,-0.00318 0,-0.00105 0,-0.0021 0,-0.00314 0,-0.00104 0,-0.00207 0,-0.00309 0,-0.00102 0,-0.00204 0,-0.00305 0,-0.00101 0,-0.00201 0,-0.00301 0,-9.95e-4 0,-0.00198 0,-0.00296 0,-9.81e-4 0,-0.00195 0,-0.00292 0,-9.67e-4 0,-0.00193 0,-0.00288 0,-9.52e-4 0,-0.0019 0,-0.00283 0,-9.38e-4 0,-0.00187 0,-0.00279 0,-9.23e-4 0,-0.00184 0,-0.00275 0,-9.08e-4 0,-0.00181 0,-0.0027 0,-8.94e-4 0,-0.00178 0,-0.00266 0,-8.78e-4 0,-0.00175 0,-0.00261 0,-8.63e-4 0,-0.00172 0,-0.00257 0,-8.49e-4 0,-0.00169 0,-0.00252 0,-8.33e-4 0,-0.00166 0,-0.00248 h 0.2 c 0,8.18e-4 0,0.00164 0,0.00248 0,8.34e-4 0,0.00168 0,0.00252 0,8.49e-4 0,0.00171 0,0.00257 0,8.64e-4 0,0.00173 0,0.00261 0,8.78e-4 0,0.00176 0,0.00266 0,8.93e-4 0,0.00179 0,0.0027 0,9.08e-4 0,0.00182 0,0.00275 0,9.23e-4 0,0.00185 0,0.00279 0,9.37e-4 0,0.00188 0,0.00283 0,9.52e-4 0,0.00191 0,0.00288 0,9.67e-4 0,0.00194 0,0.00292 0,9.81e-4 0,0.00197 0,0.00296 0,9.96e-4 0,0.002 0,0.00301 0,0.00101 0,0.00203 0,0.00305 0,0.00102 0,0.00206 0,0.00309 0,0.00104 0,0.00208 0,0.00314 0,0.00105 0,0.00211 0,0.00318 0,0.00107 0,0.00214 0,0.00322 0,0.00108 0,0.00217 0,0.00326 0,0.0011 0,0.0022 0,0.00331 0,0.00111 0,0.00223 0,0.00335 0,0.00112 0,0.00225 0,0.00339 0,0.00114 0,0.00228 0,0.00343 0,0.00115 0,0.00231 0,0.00347 0,0.00116 0,0.00233 0,0.00351 0,0.00118 0,0.00236 0,0.00355 0,0.00119 0,0.00239 0,0.0036 0,0.00121 0,0.00242 0,0.00364 0,0.00122 0,0.00244 0,0.00368 0,0.00123 0,0.00247 0,0.00372 0,0.00124 0,0.0025 0,0.00376 0,0.00126 0,0.00252 0,0.0038 0,0.00127 0,0.00255 0,0.00384 0,0.00128 0,0.00258 0,0.00388 0,0.0013 0,0.0026 0,0.00392 0,0.00131 0,0.00263 0,0.00396 0,0.00133 0,0.00265 0,0.00399 0,0.00134 0,0.00268 0,0.00403 0,0.00135 0,0.00271 0,0.00407 0,0.00136 0,0.00273 0,0.00411 0,0.00138 0,0.00276 0,0.00415 0,0.00139 0,0.00279 0,0.00419 0,0.0014 0,0.00281 0,0.00422 0,0.00141 0,0.00283 0,0.00426 0,0.00143 0,0.00286 0,0.0043 0,0.00144 0,0.00289 0,0.00434 0,0.00145 0,0.00291 0,0.00438 0,0.00146 0,0.00293 0,0.00441 0,0.00148 0,0.00296 0,0.00445 0,0.00149 0,0.00298 0,0.00449 0,0.0015 0,0.00301 0,0.00452 0,0.00151 0,0.00303 0,0.00456 0,0.00153 0,0.00306 0,0.00459 0,0.00154 0,0.00308 0,0.00463 0,0.00155 0,0.0031 0,0.00467 0,0.00156 0,0.00313 0,0.0047 0,0.00157 0,0.00315 0,0.00474 0,0.00158 0,0.00318 0,0.00477 0,0.0016 0,0.0032 0,0.00481 0,0.00161 0,0.00322 0,0.00484 0,0.00162 0,0.00325 0,0.00488 0,0.00163 0,0.00327 0,0.00491 0,0.00164 0,0.00329 0,0.00495 0,0.00165 0,0.00332 0,0.00498 0,0.00167 0,0.00334 0,0.00502 0,0.00168 0,0.00336 0,0.00505 0,0.00169 0,0.00338 0,0.00508 0,0.0017 0,0.00341 0,0.00512 0,0.00171 0,0.00343 0,0.00515 0,0.00172 0,0.00345 0,0.00518 0,0.00173 0,0.00347 0,0.00522 0,0.00174 0,0.0035 0,0.00525 0,0.00175 0,0.00352 0,0.00528 0,0.00177 0,0.00354 0,0.00531 0,0.00178 0,0.00356 0,0.00535 0,0.00179 0,0.00358 0,0.00538 0,0.0018 0,0.0036 0,0.00541 0,0.00181 0,0.00362 0,0.00544 0,0.00182 0,0.00364 0,0.00548 0,0.00183 0,0.00367 0,0.00551 0,0.00184 0,0.00369 0,0.00554 0,0.00185 0,0.00371 0,0.00557 0,0.00186 0,0.00373 0,0.0056 0,0.00187 0,0.00375 0,0.00563 0,0.00188 0,0.00377 0,0.00566 0,0.00189 0,0.00379 0,0.00569 0,0.0019 0,0.00381 0,0.00572 0,0.00191 0,0.00383 0,0.00575 0,0.00192 0,0.00385 0,0.00578 0,0.00193 0,0.00387 0,0.00581 0,0.00194 0,0.00389 0,0.00584 0,0.00195 0,0.00391 0,0.00587 0,0.00196 0,0.00393 0,0.0059 0,0.00197 0,0.00395 0,0.00593 0,0.00198 0,0.00397 0,0.00596 0,0.00199 0,0.00399 0,0.00599 0,0.002 0,0.00401 0,0.00602 0,0.00201 0,0.00402 0,0.00604 0,0.00202 0,0.00404 0,0.00607 0,0.00203 0,0.00406 0,0.0061 0,0.00204 0,0.00408 0,0.00613 0,0.00205 0,0.0041 0,0.00616 0,0.00206 0,0.00412 0,0.00618 0,0.00206 0,0.00414 0,0.00621 0,0.00207 0,0.00415 0,0.00624 0,0.00208 0,0.00417 0,0.00627 0,0.00209 0,0.00419 0,0.00629 0,0.0021 0,0.00421 0,0.00632 0,0.00211 0,0.00423 0,0.00635 0,0.00212 0,0.00424 0,0.00637 0,0.00213 0,0.00426 0,0.0064 0,0.00214 0,0.00428 0,0.00642 0,0.00215 0,0.0043 0,0.00645 0,0.00215 0,0.00431 0,0.00648 0,0.00216 0,0.00433 0,0.0065 0,0.00217 0,0.00435 0,0.00653 0,0.00218 0,0.00436 0,0.00655 0,0.00219 0,0.00438 0,0.00657 0,0.0022 0,0.0044 0,0.0066 0,0.0022 0,0.00441 0,0.00663 0,0.00221 0,0.00443 0,0.00665 0,0.00222 0,0.00445 0,0.00667 0,0.00223 0,0.00446 0,0.0067 0,0.00224 0,0.00448 0,0.00672 0,0.00224 0,0.00449 0,0.00674 0,0.00225 0,0.00451 0,0.00677 0,0.00226 0,0.00452 0,0.00679 0,0.00227 0,0.00454 0,0.00682 0,0.00228 0,0.00455 0,0.00684 0,0.00228 0,0.00457 0,0.00686 0,0.00229 0,0.00459 0,0.00688 0,0.0023 0,0.0046 0,0.00691 0,0.00231 0,0.00462 0,0.00693 0,0.00231 0,0.00463 0,0.00695 0,0.00232 0,0.00464 0,0.00697 0,0.00233 0,0.00466 0,0.00699 0,0.00233 0,0.00467 0,0.00702 0,0.00234 0,0.00469 0,0.00704 0,0.00235 0,0.0047 0,0.00706 0,0.00236 0,0.00472 0,0.00708 0,0.00236 0,0.00473 0,0.0071 0,0.00237 0,0.00474 0,0.00712 0,0.00238 0,0.00476 0,0.00714 0,0.00238 0,0.00477 0,0.00716 0,0.00239 0,0.00479 0,0.00718 0,0.0024 0,0.0048 0,0.0072 0,0.0024 0,0.00481 0,0.00722 0,0.00241 0,0.00482 0,0.00724 0,0.00242 0,0.00484 0,0.00726 0,0.00242 0,0.00485 0,0.00728 0,0.00243 0,0.00486 0,0.0073 0,0.00244 0,0.00487 0,0.00732 0,0.00244 0,0.00489 0,0.00734 0,0.00245 0,0.0049 0,0.00736 0,0.00245 0,0.00491 0,0.00737 0,0.00246 0,0.00492 0,0.00739 0,0.00247 0,0.00494 0,0.00741 0,0.00247 0,0.00495 0,0.00743 0,0.00248 0,0.00496 0,0.00745 0,0.00248 0,0.00497 0,0.00746 0,0.00249 0,0.00498 0,0.00748 0,0.0025 0,0.005 0,0.0075 0,0.0025 0,0.00501 0,0.00752 0,0.00251 0,0.00502 0,0.00753 0,0.00251 0,0.00503 0,0.00755 0,0.00252 0,0.00504 0,0.00757 0,0.00252 0,0.00505 0,0.00758 0,0.00253 0,0.00506 0,0.0076 0,0.00253 0,0.00507 0,0.00761 0,0.00254 0,0.00508 0,0.00763 0,0.00255 0,0.00509 0,0.00765 0,0.00255 0,0.0051 0,0.00766 0,0.00256 0,0.00512 0,0.00768 0,0.00256 0,0.00513 0,0.00769 0,0.00257 0,0.00513 0,0.00771 0,0.00257 0,0.00514 0,0.00772 0,0.00257 0,0.00515 0,0.00773 0,0.00258 0,0.00516 0,0.00775 0,0.00259 0,0.00517 0,0.00776 0,0.00259 0,0.00518 0,0.00778 0,0.00259 0,0.00519 0,0.00779 0,0.0026 0,0.0052 0,0.00781 0,0.0026 0,0.00521 0,0.00782 0,0.00261 0,0.00522 0,0.00783 0,0.00261 0,0.00523 0,0.00785 0,0.00262 0,0.00524 0,0.00786 0,0.00262 0,0.00525 0,0.00787 0,0.00263 0,0.00526 0,0.00788 0,0.00263 0,0.00526 0,0.0079 0,0.00264 0,0.00527 0,0.00791 0,0.00264 0,0.00528 0,0.00792 0,0.00264 0,0.00529 0,0.00793 0,0.00265 0,0.0053 0,0.00794 0,0.00265 0,0.0053 0,0.00796 0,0.00265 0,0.00531 0,0.00797 0,0.00266 0,0.00532 0,0.00798 0,0.00266 0,0.00533 0,0.00799 0,0.00266 0,0.00533 0,0.008 0,0.00267 0,0.00534 0,0.00801 0,0.00267 0,0.00535 0,0.00802 0,0.00268 0,0.00535 0,0.00803 0,0.00268 0,0.00536 0,0.00804 0,0.00268 0,0.00537 0,0.00805 0,0.00269 0,0.00537 0,0.00806 0,0.00269 0,0.00538 0,0.00807 0,0.00269 0,0.00539 0,0.00808 0,0.0027 0,0.00539 0,0.00809 0,0.0027 0,0.0054 0,0.0081 0,0.0027 0,0.0054 0,0.00811 0,0.00271 0,0.00541 0,0.00812 0,0.00271 0,0.00542 0,0.00813 0,0.00271 0,0.00542 0,0.00814 0,0.00271 0,0.00543 0,0.00814 0,0.00272 0,0.00543 0,0.00815 0,0.00272 0,0.00544 0,0.00816 0,0.00272 0,0.00544 0,0.00817 0,0.00272 0,0.00545 0,0.00818 0,0.00273 0,0.00545 0,0.00818 0,0.00273 0,0.00546 0,0.00819 0,0.00273 0,0.00546 0,0.0082 0,0.00273 0,0.00547 0,0.00821 0,0.00274 0,0.00547 0,0.00821 0,0.00274 0,0.00548 0,0.00822 0,0.00274 0,0.00548 0,0.00822 0,0.00274 0,0.00549 0,0.00823 0,0.00274 0,0.00549 0,0.00824 0,0.00275 0,0.00549 0,0.00824 0,0.00275 0,0.0055 0,0.00825 0,0.00275 0,0.0055 0,0.00825 0,0.00275 0,0.0055 0,0.00826 0,0.00275 0,0.00551 0,0.00826 0,0.00276 0,0.00551 0,0.00827 0,0.00276 0,0.00552 0,0.00827 0,0.00276 0,0.00552 0,0.00828 0,0.00276 0,0.00552 0,0.00828 0,0.00276 0,0.00552 0,0.00829 0,0.00276 0,0.00553 0,0.00829 0,0.00276 0,0.00553 0,0.0083 0,0.00277 0,0.00553 0,0.0083 0,0.00277 0,0.00553 0,0.0083 0,0.00277 0,0.00554 0,0.00831 0,0.00277 0,0.00554 0,0.00831 0,0.00277 0,0.00554 0,0.00831 0,0.00277 0,0.00554 0,0.00832 0,0.00277 0,0.00555 0,0.00832 0,0.00277 0,0.00555 0,0.00832 0,0.00277 0,0.00555 0,0.00832 0,0.00278 0,0.00555 0,0.00833 0,0.00278 0,0.00555 0,0.00833 0,0.00278 0,0.00555 0,0.00833 0,0.00278 0,0.00555 0,0.00833 0,0.00278 0,0.00555 0,0.00833 0,0.00278 0,0.00556 0,0.00833 0,0.00278 0,0.00556 0,0.00834 0,0.00278 0,0.00556 0,0.00833 0,0.00278 0,0.00556 0,0.00834 0,0.00278 0,0.00556 0,0.00834 0,0.00278 0,0.00556 0,0.00834 0,0.00278 0,0.00556 0,0.00834 0,0.00278 0,0.00556 0,0.00834 0,0.00278 0,0.00556 0,0.00834 0,0.00278 0,0.00556 0,0.00834 0,0.00278 0,0.00556 0,0.00834 0,0.00278 0,0.00556 0,0.00834 0,0.00278 0,0.00556 0,0.00834 0,0.00278 0,0.00556 0,0.00833 0,0.00278 0,0.00556 0,0.00833 0,0.00278 0,0.00556 0,0.00833 0,0.00278 0,0.00555 0,0.00833 0,0.00278 0,0.00555 0,0.00833 0,0.00278 0,0.00555 0,0.00833 0,0.00277 0,0.00555 0,0.00832 0,0.00278 0,0.00555 0,0.00832 0,0.00277 0,0.00555 0,0.00832 0,0.00277 0,0.00555 0,0.00832 0,0.00277 0,0.00554 0,0.00831 0,0.00277 0,0.00554 0,0.00831 0,0.00277 0,0.00554 0,0.00831 0,0.00277 0,0.00554 0,0.00831 0,0.00277 0,0.00554 0,0.0083 0,0.00277 0,0.00553 0,0.0083 0,0.00277 0,0.00553 0,0.0083 0,0.00276 0,0.00553 0,0.00829 0,0.00276 0,0.00553 0,0.00829 0,0.00276 0,0.00552 0,0.00828 0,0.00276 0,0.00552 0,0.00828 0,0.00276 0,0.00552 0,0.00827 0,0.00276 0,0.00551 0,0.00827 0,0.00276 0,0.00551 0,0.00827 0,0.00275 0,0.00551 0,0.00826 0,0.00275 0,0.0055 0,0.00825 0,0.00275 0,0.0055 0,0.00825 0,0.00275 0,0.0055 0,0.00824 0,0.00275 0,0.00549 0,0.00824 0,0.00274 0,0.00549 0,0.00823 0,0.00274 0,0.00548 0,0.00822 0,0.00274 0,0.00548 0,0.00822 0,0.00274 0,0.00548 0,0.00821 0,0.00274 0,0.00547 0,0.0082 0,0.00273 0,0.00547 0,0.0082 0,0.00273 0,0.00546 0,0.00819 0,0.00273 0,0.00546 0,0.00818 0,0.00273 0,0.00545 0,0.00818 0,0.00272 0,0.00545 0,0.00817 0,0.00272 0,0.00544 0,0.00816 0,0.00272 0,0.00544 0,0.00815 0,0.00272 0,0.00543 0,0.00815 0,0.00271 0,0.00543 0,0.00814 0,0.00271 0,0.00542 0,0.00813 0,0.00271 0,0.00542 0,0.00812 0,0.00271 0,0.00541 0,0.00811 0,0.0027 0,0.0054 0,0.0081 0,0.0027 0,0.0054 0,0.00809 0,0.0027 0,0.00539 0,0.00808 0,0.00269 0,0.00538 0,0.00807 0,0.00269 0,0.00538 0,0.00806 0,0.00269 0,0.00537 0,0.00806 0,0.00268 0,0.00536 0,0.00804 0,0.00268 0,0.00536 0,0.00803 0,0.00268 0,0.00535 0,0.00802 0,0.00267 0,0.00534 0,0.00801 0,0.00267 0,0.00534 0,0.008 0,0.00266 0,0.00533 0,0.00799 0,0.00266 0,0.00532 0,0.00798 0,0.00266 0,0.00532 0,0.00797 0,0.00265 0,0.00531 0,0.00796 0,0.00265 0,0.0053 0,0.00795 0,0.00265 0,0.00529 0,0.00794 0,0.00264 0,0.00528 0,0.00792 0,0.00264 0,0.00528 0,0.00791 0,0.00264 0,0.00527 0,0.0079 0,0.00263 0,0.00526 0,0.00789 0,0.00263 0,0.00525 0,0.00787 0,0.00262 0,0.00524 0,0.00786 0,0.00262 0,0.00523 0,0.00785 0,0.00261 0,0.00522 0,0.00783 0,0.00261 0,0.00522 0,0.00782 0,0.00261 0,0.00521 0,0.00781 0,0.0026 0,0.0052 0,0.00779 0,0.00259 0,0.00519 0,0.00778 0,0.00259 0,0.00518 0,0.00777 0,0.00259 0,0.00517 0,0.00775 0,0.00258 0,0.00516 0,0.00774 0,0.00258 0,0.00515 0,0.00772 0,0.00257 0,0.00514 0,0.00771 0,0.00257 0,0.00513 0,0.00769 0,0.00256 0,0.00512 0,0.00768 0,0.00256 0,0.00511 0,0.00766 0,0.00255 0,0.0051 0,0.00765 0,0.00255 0,0.00509 0,0.00763 0,0.00254 0,0.00508 0,0.00762 0,0.00253 0,0.00507 0,0.0076 0,0.00253 0,0.00506 0,0.00758 0,0.00252 0,0.00505 0,0.00757 0,0.00252 0,0.00504 0,0.00755 0,0.00251 0,0.00503 0,0.00753 0,0.00251 0,0.00501 0,0.00752 0,0.0025 0,0.005 0,0.0075 0,0.0025 0,0.00499 0,0.00748 0,0.00249 0,0.00498 0,0.00747 0,0.00248 0,0.00497 0,0.00745 0,0.00248 0,0.00496 0,0.00743 0,0.00247 0,0.00494 0,0.00741 0,0.00247 0,0.00493 0,0.00739 0,0.00246 0,0.00492 0,0.00738 0,0.00246 0,0.00491 0,0.00736 0,0.00245 0,0.0049 0,0.00734 0,0.00244 0,0.00488 0,0.00732 0,0.00244 0,0.00487 0,0.0073 0,0.00243 0,0.00486 0,0.00728 0,0.00242 0,0.00484 0,0.00726 0,0.00242 0,0.00483 0,0.00724 0,0.00241 0,0.00482 0,0.00722 0,0.0024 0,0.00481 0,0.0072 0,0.0024 0,0.00479 0,0.00718 0,0.00239 0,0.00478 0,0.00716 0,0.00238 0,0.00476 0,0.00714 0,0.00238 0,0.00475 0,0.00712 0,0.00237 0,0.00474 0,0.0071 0,0.00236 0,0.00472 0,0.00708 0,0.00236 0,0.00471 0,0.00706 0,0.00235 0,0.0047 0,0.00704 0,0.00234 0,0.00468 0,0.00702 0,0.00234 0,0.00467 0,0.007 0,0.00233 0,0.00465 0,0.00697 0,0.00232 0,0.00464 0,0.00695 0,0.00231 0,0.00462 0,0.00693 0,0.00231 0,0.00461 0,0.00691 0,0.0023 0,0.00459 0,0.00689 0,0.00229 0,0.00458 0,0.00686 0,0.00228 0,0.00456 0,0.00684 0,0.00228 0,0.00455 0,0.00682 0,0.00227 0,0.00453 0,0.00679 0,0.00226 0,0.00452 0,0.00677 0,0.00225 0,0.0045 0,0.00675 0,0.00225 0,0.00449 0,0.00672 0,0.00224 0,0.00447 0,0.0067 0,0.00223 0,0.00445 0,0.00667 0,0.00222 0,0.00444 0,0.00665 0,0.00221 0,0.00442 0,0.00663 0,0.00221 0,0.00441 0,0.0066 0,0.0022 0,0.00439 0,0.00658 0,0.00219 0,0.00437 0,0.00655 0,0.00218 0,0.00435 0,0.00653 0,0.00217 0,0.00434 0,0.0065 0,0.00216 0,0.00432 0,0.00648 0,0.00216 0,0.00431 0,0.00645 0,0.00215 0,0.00429 0,0.00643 0,0.00214 0,0.00427 0,0.0064 0,0.00213 0,0.00425 0,0.00637 0,0.00212 0,0.00424 0,0.00635 0,0.00211 0,0.00422 0,0.00632 0,0.0021 0,0.0042 0,0.00629 0,0.00209 0,0.00418 0,0.00627 0,0.00209 0,0.00417 0,0.00624 0,0.00208 0,0.00415 0,0.00621 0,0.00207 0,0.00413 0,0.00619 0,0.00206 0,0.00411 0,0.00616 0,0.00205 0,0.00409 0,0.00613 0,0.00204 0,0.00407 0,0.0061 0,0.00203 0,0.00405 0,0.00608 0,0.00202 0,0.00404 0,0.00605 0,0.00201 0,0.00402 0,0.00602 0,0.002 0,0.004 0,0.00599 0,0.00199 0,0.00398 0,0.00596 0,0.00198 0,0.00396 0,0.00593 0,0.00197 0,0.00394 0,0.00591 0,0.00196 0,0.00392 0,0.00587 0,0.00195 0,0.0039 0,0.00584 0,0.00194 0,0.00388 0,0.00582 0,0.00193 0,0.00386 0,0.00579 0,0.00192 0,0.00384 0,0.00575 0,0.00191 0,0.00382 0,0.00572 0,0.0019 0,0.0038 0,0.0057 0,0.00189 0,0.00378 0,0.00566 0,0.00188 0,0.00376 0,0.00563 0,0.00187 0,0.00374 0,0.0056 0,0.00186 0,0.00372 0,0.00557 0,0.00185 0,0.0037 0,0.00554 0,0.00184 0,0.00368 0,0.00551 0,0.00183 0,0.00366 0,0.00548 0,0.00182 0,0.00364 0,0.00545 0,0.00181 0,0.00362 0,0.00542 0,0.0018 0,0.00359 0,0.00538 0,0.00179 0,0.00357 0,0.00535 0,0.00178 0,0.00355 0,0.00532 0,0.00177 0,0.00353 0,0.00529 0,0.00176 0,0.00351 0,0.00525 0,0.00175 0,0.00349 0,0.00522 0,0.00174 0,0.00346 0,0.00519 0,0.00172 0,0.00344 0,0.00515 0,0.00171 0,0.00342 0,0.00512 0,0.0017 0,0.0034 0,0.00509 0,0.00169 0,0.00337 0,0.00505 0,0.00168 0,0.00335 0,0.00502 0,0.00167 0,0.00333 0,0.00498 0,0.00166 0,0.00331 0,0.00495 0,0.00164 0,0.00328 0,0.00492 0,0.00163 0,0.00326 0,0.00488 0,0.00162 0,0.00324 0,0.00485 0,0.00161 0,0.00321 0,0.00481 0,0.0016 0,0.00319 0,0.00478 0,0.00159 0,0.00317 0,0.00474 0,0.00157 0,0.00314 0,0.00471 0,0.00156 0,0.00312 0,0.00467 0,0.00155 0,0.0031 0,0.00463 0,0.00154 0,0.00307 0,0.0046 0,0.00153 0,0.00305 0,0.00456 0,0.00152 0,0.00302 0,0.00453 0,0.0015 0,0.003 0,0.00449 0,0.00149 0,0.00297 0,0.00445 0,0.00148 0,0.00295 0,0.00442 0,0.00146 0,0.00292 0,0.00438 0,0.00145 0,0.0029 0,0.00434 0,0.00144 0,0.00288 0,0.0043 0,0.00143 0,0.00285 0,0.00426 0,0.00142 0,0.00283 0,0.00423 0,0.0014 0,0.0028 0,0.00419 0,0.00139 0,0.00277 0,0.00415 0,0.00138 0,0.00275 0,0.00411 0,0.00136 0,0.00272 0,0.00407 0,0.00135 0,0.0027 0,0.00404 0,0.00134 0,0.00267 0,0.004 0,0.00132 0,0.00264 0,0.00396 0,0.00131 0,0.00262 0,0.00392 0,0.0013 0,0.00259 0,0.00388 0,0.00129 0,0.00257 0,0.00384 0,0.00127 0,0.00254 0,0.0038 0,0.00126 0,0.00251 0,0.00376 0,0.00125 0,0.00249 0,0.00372 0,0.00123 0,0.00246 0,0.00368 0,0.00122 0,0.00243 0,0.00364 0,0.00121 0,0.00241 0,0.0036 0,0.00119 0,0.00238 0,0.00356 0,0.00118 0,0.00235 0,0.00352 0,0.00117 0,0.00232 0,0.00348 0,0.00115 0,0.0023 0,0.00343 0,0.00114 0,0.00227 0,0.00339 0,0.00112 0,0.00224 0,0.00335 0,0.00111 0,0.00221 0,0.00331 0,0.0011 0,0.00219 0,0.00327 0,0.00108 0,0.00216 0,0.00323 0,0.00107 0,0.00213 0,0.00318 0,0.00105 0,0.0021 0,0.00314 0,0.00104 0,0.00207 0,0.0031 0,0.00103 0,0.00204 0,0.00306 0,0.00101 0,0.00202 0,0.00301 0,9.98e-4 0,0.00199 0,0.00297 0,9.82e-4 0,0.00196 0,0.00292 0,9.68e-4 0,0.00193 0,0.00288 0,9.54e-4 0,0.0019 0,0.00284 0,9.38e-4 0,0.00187 0,0.00279 z m 0.2,-3.291653 v 0.00338 h -0.2 v -0.00338 z m 2.926403,5.46961 C 12.080598,5.140654 11.197397,3.616727 9.812992,2.66723 L 9.926113,2.502295 c 1.434114,0.983589 2.34882,2.56206 2.493246,4.295183 z M 9.969552,2.584763 v 2.118958 h -0.2 V 2.584763 Z M 9.878963,4.604165 c 0.733432,0.069329 1.277726,0.71527 1.215614,1.449653 L 10.895288,6.036963 C 10.94808,5.412777 10.485276,4.86237 9.860142,4.803277 Z m 1.215502,1.450879 c -0.07009,0.722579 -0.01925,1.615332 0.02738,2.538105 0.04639,0.918088 0.08844,1.864233 -0.0039,2.678113 l -0.198724,-0.02254 c 0.09016,-0.794773 0.04942,-1.72426 0.0029,-2.645477 -0.04631,-0.916531 -0.09855,-1.826752 -0.0267,-2.567506 l 0.199066,0.019309 z m -0.152389,5.140558 c 1.022746,-1.21534 1.484381,-2.802652 1.278474,-4.37685 l 0.19831,-0.025939 c 0.213153,1.629587 -0.26472,3.273096 -1.323759,4.531565 z" /></g><g
         transform="translate(3.576172,2.550781)"
         id="g28"><path
           id="path30"
           style="fill:#000000;fill-opacity:1;fill-rule:nonzero;stroke:none"
           d="M 10.842854,12.365093 C 10.504902,13.65945 9.629605,14.592196 8.18655,14.538124 7.794526,14.511088 7.851978,14.135962 7.855357,13.855461 c -0.449476,0.09125 -0.90909,0.13856 -1.368705,0.135182 v 0.212909 c 0,0.185873 -0.152079,0.337952 -0.337952,0.337952 -0.185874,0 -0.337952,-0.152079 -0.337952,-0.337952 V 12.564485 C 5.729639,11.979828 6.000001,10.269791 5.65529,9.854109 5.242989,9.465464 4.634675,9.046404 4.688747,8.363741 L 4.837446,1.922377 c 0.054073,-0.250084 0,-0.510309 -0.155458,-0.71646 C 4.469078,0.993008 4.134506,0.965972 3.89456,1.145086 3.634337,1.425587 3.688409,2.128526 3.708686,2.540827 L 3.843867,8.242079 C 3.901319,8.955157 3.306524,9.350561 2.897602,9.745964 2.708349,9.898043 2.715107,10.283308 2.725246,10.628019 c 0.010139,-0.05069 -0.00676,3.389659 0,3.484286 0,0.185874 -0.152078,0.337952 -0.337952,0.337952 -0.185873,0 -0.337952,-0.152078 -0.337952,-0.337952 V 12.233292 C 0.542076,10.857827 -0.204798,8.833494 0.048666,6.809162 0.193985,4.791589 1.295709,2.966647 3.015884,1.905478 2.992228,1.462761 3.130789,1.026804 3.407909,0.678713 3.630958,0.452286 3.941873,0.330623 4.259548,0.3509 4.719162,0.340761 5.141603,0.594224 5.354512,0.999766 6.199392,0.847689 7.067929,0.861207 7.90943,1.040322 7.97364,0.817273 8.122339,0.62802 8.32511,0.509737 8.96384,0.124472 9.916865,0.557049 9.872931,1.357995 v 0.446096 c 3.707334,1.933086 4.288613,8.002705 0.973303,10.567761 l -0.0034,-0.0068 z M 0.717811,6.869993 c -0.192633,1.591753 0.287259,3.193648 1.328151,4.413654 0,-0.185874 0.00338,-0.456235 0,-0.645488 C 2.035824,10.192062 2.022305,9.587128 2.458264,9.225519 2.725246,8.961916 3.201758,8.627343 3.167963,8.279253 L 3.039541,2.682769 C 1.691113,3.669589 0.842853,5.20051 0.717811,6.869993 Z m 8.878,6.485299 c 0.953024,-0.98682 0.834741,-3.281514 0.740114,-5.126733 -0.06421,-0.750252 -0.06759,-1.503885 -0.01014,-2.254138 0.01014,-0.1487 -0.03717,-0.297398 -0.138561,-0.408923 C 9.889829,5.241065 8.96384,5.34245 8.534641,5.325553 v 8.523149 C 8.936805,13.818292 9.31531,13.642551 9.59919,13.355292 Z M 5.526868,1.648634 c 0.00338,0.101385 0,0.202772 -0.013518,0.304157 L 5.364651,8.397536 c -0.027036,0.250085 0.270362,0.517067 0.530585,0.750254 0.865157,0.473133 0.540723,2.230483 0.591416,3.382899 v 0.777291 c 0.459615,0.0034 0.919229,-0.04731 1.368705,-0.152079 V 1.712846 C 7.091586,1.533731 6.300778,1.510075 5.526868,1.641876 v 0.00676 z M 9.193648,1.347857 C 9.220684,0.935555 8.497466,0.935556 8.531261,1.351237 V 4.646269 C 8.747551,4.642889 8.9706,4.632751 9.193648,4.63613 c 0,-0.473133 0,-2.872593 0,-3.291653 z m 3.126057,5.457925 C 12.177765,5.102505 11.278812,3.551305 9.869553,2.584763 v 2.118958 c 0.679283,0.064211 1.182831,0.662385 1.125379,1.341669 -0.14194,1.463332 0.206151,3.605949 0.02366,5.214601 1.040892,-1.236905 1.510646,-2.852316 1.301116,-4.454209 z" /></g></g><g
       id="g32"><g
         transform="translate(6.899902,13.100342)"
         id="g34"><path
           id="path36"
           style="fill:#000000;fill-opacity:1;fill-rule:nonzero;stroke:none"
           d="m 0.337952,0.100022 c 0.241102,0 0.437952,0.19685 0.437952,0.437952 h -0.2 c 0,-0.130645 -0.107307,-0.237952 -0.237952,-0.237952 z m 0.437952,0.437952 v 3.021291 h -0.2 V 0.537974 Z m 0,3.021291 c 0,0.241102 -0.19685,0.437952 -0.437952,0.437952 v -0.2 c 0.130645,0 0.237952,-0.107307 0.237952,-0.237952 z M 0.337952,3.997217 C 0.09685,3.997217 -0.1,3.800367 -0.1,3.559265 h 0.2 c 0,0.130645 0.107307,0.237952 0.237952,0.237952 z M -0.1,3.559265 V 0.537974 h 0.2 v 3.021291 z m 0,-3.021291 c 0,-0.241102 0.19685,-0.437952 0.437952,-0.437952 v 0.2 C 0.207307,0.300022 0.1,0.407329 0.1,0.537974 Z" /></g><g
         transform="translate(6.899902,13.100342)"
         id="g38"><path
           id="path40"
           style="fill:#000000;fill-opacity:1;fill-rule:nonzero;stroke:none"
           d="m 0.337952,0.200022 c 0.185874,0 0.337952,0.152078 0.337952,0.337952 v 3.021291 c 0,0.185873 -0.152078,0.337952 -0.337952,0.337952 C 0.152078,3.897217 0,3.745138 0,3.559265 V 0.537974 C 0,0.3521 0.152078,0.200022 0.337952,0.200022 Z" /></g></g><g
       id="g42"><g
         transform="translate(7.994629,13.005615)"
         id="g44"><path
           id="path46"
           style="fill:#000000;fill-opacity:1;fill-rule:nonzero;stroke:none"
           d="m 0.337952,0.100083 c 0.241102,0 0.437952,0.19685 0.437952,0.437952 h -0.2 c 0,-0.130645 -0.107307,-0.237952 -0.237952,-0.237952 z m 0.437952,0.437952 v 3.112538 h -0.2 V 0.538035 Z m 0,3.112538 c 0,0.241102 -0.19685,0.437952 -0.437952,0.437952 v -0.2 c 0.130645,0 0.237952,-0.107306 0.237952,-0.237952 z M 0.337952,4.088525 C 0.09685,4.088525 -0.1,3.891675 -0.1,3.650573 h 0.2 c 0,0.130646 0.107307,0.237952 0.237952,0.237952 z M -0.1,3.650573 V 0.538035 h 0.2 v 3.112538 z m 0,-3.112538 c 0,-0.241102 0.19685,-0.437952 0.437952,-0.437952 v 0.2 C 0.207307,0.300083 0.1,0.40739 0.1,0.538035 Z" /></g><g
         transform="translate(7.994629,13.005615)"
         id="g48"><path
           id="path50"
           style="fill:#000000;fill-opacity:1;fill-rule:nonzero;stroke:none"
           d="m 0.337952,0.200083 c 0.185874,0 0.337952,0.152079 0.337952,0.337952 v 3.112538 c 0,0.185874 -0.152078,0.337952 -0.337952,0.337952 C 0.152078,3.988525 0,3.836447 0,3.650573 V 0.538035 C 0,0.352162 0.152078,0.200083 0.337952,0.200083 Z" /></g></g></g></svg>