<svg width="21" height="25" viewBox="0 0 21 25" fill="none" xmlns="http://www.w3.org/2000/svg">
<g clip-path="url(#clip0_377_3227)">
<path d="M12.1086 23.38C12.1086 24.2749 11.3835 25 10.4886 25C9.59367 25 8.86853 24.2749 8.86853 23.38C8.86853 22.485 9.59367 21.7599 10.4886 21.7599C11.3835 21.7599 12.1086 22.485 12.1086 23.38Z" fill="black"/>
<path d="M20.3327 22.6376H0.644587C0.353956 22.6376 0.0978554 22.4419 0.0230396 22.1628C-0.0517762 21.8808 0.0690801 21.5844 0.319425 21.4376C1.21434 20.9168 1.89344 16.9228 2.00854 13.5273C2.00854 8.52038 5.71192 4.42853 10.2671 4.42853H10.7131C15.2625 4.42853 18.9658 8.51462 18.9716 13.5388C19.0896 16.9372 19.7658 20.9197 20.6578 21.4405C20.9082 21.5873 21.029 21.8836 20.9542 22.1656C20.8794 22.4448 20.6262 22.6404 20.3327 22.6404V22.6376ZM1.9366 21.3513H19.0407C17.9328 19.0637 17.717 14.6179 17.6825 13.5704V13.5503C17.6825 9.23113 14.5546 5.71766 10.7131 5.71766H10.2671C6.42555 5.71766 3.29767 9.23113 3.29767 13.5503C3.26314 14.615 3.0502 19.0637 1.9366 21.3513Z" fill="black"/>
<path d="M10.4886 5.7119C10.1346 5.7119 9.84399 5.42415 9.84399 5.06733V0.644567C9.84399 0.287753 10.1317 0 10.4886 0C10.8454 0 11.1331 0.287753 11.1331 0.644567V5.07021C11.1331 5.42703 10.8454 5.71478 10.4886 5.71478V5.7119Z" fill="black"/>
</g>
<defs>
<clipPath id="clip0_377_3227">
<rect width="20.9743" height="25" fill="white"/>
</clipPath>
</defs>
</svg>
