<svg width="44" height="34" viewBox="0 0 44 34" fill="none" xmlns="http://www.w3.org/2000/svg">
<g clip-path="url(#clip0_123_459)">
<path d="M38.6201 1.55199C38.6063 1.39463 38.5385 1.24679 38.4228 1.14213C38.1506 0.898337 37.7276 1.02154 37.3824 1.1519L2.96523 14.5573C2.61444 14.6956 2.08209 15.0257 2.18865 15.4724C2.29758 15.9325 2.967 16.0646 3.33836 16.2006C4.44572 16.6098 11.0835 18.9896 13.2954 19.7529C13.521 19.8104 13.7278 19.9199 13.907 20.0689C14.0889 20.2731 14.2161 20.5216 14.2771 20.7887L17.1216 29.7499C17.2421 30.1177 17.4307 30.5569 17.8191 30.5926C18.1013 30.5776 18.3633 30.448 18.5413 30.236L25.0946 24.3352L32.8936 27.7053C33.1266 27.8449 33.4048 27.8861 33.6696 27.8116C33.9665 27.6829 34.0609 27.3119 34.1231 26.9952L38.5804 2.1148C38.6181 1.93447 38.6332 1.74422 38.6134 1.55318L38.6201 1.55199ZM18.9184 20.6721C18.8894 20.705 18.8617 20.7446 18.8339 20.7842C18.7907 20.8544 18.7622 20.9289 18.7471 21.001C18.7483 21.0078 17.6991 27.0357 17.6991 27.0357L15.381 19.7604L31.5044 7.45467L18.9184 20.6721ZM33.7054 4.05823L14.4648 18.7408L4.82045 15.3071L33.7054 4.05823ZM18.9169 28.0716L19.9443 22.1169L23.7269 23.7496L18.9181 28.0783L18.9169 28.0716ZM32.8862 26.2059L20.5921 20.905L36.8941 3.78083L32.8795 26.2071L32.8862 26.2059Z" fill="black"/>
</g>
<defs>
<clipPath id="clip0_123_459">
<rect width="39" height="26.6842" fill="white" transform="translate(0 7) rotate(-10)"/>
</clipPath>
</defs>
</svg>
