<svg width="30" height="33" viewBox="0 0 30 33" fill="none" xmlns="http://www.w3.org/2000/svg">
<path d="M1.10701 32.6419C1.67666 32.6419 2.15432 32.2094 2.20835 31.6422C2.33165 30.3447 2.64972 29.0841 3.15841 27.8813C3.48037 27.1202 3.87879 26.3862 4.34288 25.6994C4.80281 25.0184 5.33118 24.3781 5.9133 23.7959C6.49542 23.2138 7.13572 22.6855 7.81675 22.2255C8.5036 21.7614 9.23783 21.363 9.99866 21.0411C11.5815 20.3717 13.2642 20.032 15 20.032C16.7358 20.032 18.4185 20.3714 20.0013 21.0411C20.7625 21.363 21.4964 21.7614 22.1833 22.2255C22.8643 22.6855 23.5046 23.2138 24.0867 23.7959C24.6688 24.3781 25.1972 25.0184 25.6571 25.6994C26.1212 26.3862 26.5196 27.1205 26.8416 27.8813C27.3503 29.0841 27.6684 30.3447 27.7917 31.6422C27.8457 32.2094 28.3231 32.6419 28.893 32.6419C29.5458 32.6419 30.057 32.08 29.9949 31.4303C29.4083 25.2993 25.1473 20.2412 19.4397 18.4834C22.6061 16.8662 24.7741 13.5733 24.7741 9.77383C24.7738 4.376 20.3978 0 15 0C9.60217 0 5.22617 4.376 5.22617 9.77383C5.22617 13.5733 7.39422 16.8662 10.5605 18.4834C4.85268 20.2412 0.591662 25.2993 0.0051101 31.4303C-0.056953 32.08 0.454237 32.6419 1.10701 32.6419ZM12.0578 16.7407C11.1579 16.36 10.3491 15.8147 9.65398 15.1196C8.95882 14.4244 8.41355 13.6159 8.03286 12.7157C7.63915 11.7851 7.43966 10.7954 7.43966 9.77356C7.43966 8.75173 7.63915 7.76205 8.03286 6.83138C8.41355 5.93146 8.95882 5.1227 9.65398 4.42754C10.3491 3.73238 11.1576 3.18711 12.0578 2.80642C12.9885 2.4127 13.9782 2.21322 15 2.21322C16.0218 2.21322 17.0115 2.4127 17.9422 2.80642C18.8421 3.18711 19.6509 3.73238 20.346 4.42754C21.0409 5.1227 21.5865 5.93118 21.9671 6.83138C22.3609 7.76205 22.5603 8.75173 22.5603 9.77356C22.5603 10.7954 22.3609 11.7851 21.9671 12.7157C21.5865 13.6157 21.0412 14.4244 20.346 15.1196C19.6509 15.8147 18.8424 16.36 17.9422 16.7407C17.0115 17.1344 16.0218 17.3339 15 17.3339C13.9782 17.3339 12.9885 17.1344 12.0578 16.7407Z" fill="black"/>
</svg>
