<svg width="50" height="50" viewBox="0 0 50 50" fill="none" xmlns="http://www.w3.org/2000/svg">
<g clip-path="url(#clip0_173_721)">
<path d="M37.024 7.35484L42.2094 11.8952C42.5159 12.1613 42.9675 12.1613 43.274 11.8952L48.4594 7.3629C49.4433 6.50807 49.9998 5.26613 49.9998 3.95968C49.9998 1.77419 48.2256 0 46.0401 0C44.7175 0 43.4836 0.66129 42.7498 1.76613C41.5401 -0.0564516 39.0804 -0.548387 37.2578 0.669355C36.153 1.40323 35.4917 2.6371 35.4917 3.95968C35.4917 5.26613 36.0482 6.5 37.032 7.3629L37.024 7.35484ZM39.4433 1.6129C40.2256 1.6129 40.9594 2 41.3949 2.65323L42.0723 3.66936C42.3223 4.04032 42.8223 4.1371 43.1933 3.89516C43.282 3.83871 43.3546 3.75807 43.4191 3.66936L44.0965 2.65323C44.8143 1.57258 46.274 1.28226 47.3465 2C47.9998 2.43548 48.3869 3.16129 48.3869 3.94355C48.3869 4.78226 48.024 5.58065 47.3949 6.1371L42.7417 10.2097L38.0885 6.1371C37.4594 5.58871 37.0965 4.79032 37.0965 3.95161C37.0965 2.65323 38.1449 1.60484 39.4433 1.60484V1.6129Z" fill="black"/>
<path d="M43.9019 21.9098L39.064 25.1351L39.9586 26.4772L44.7966 23.2519L43.9019 21.9098Z" fill="black"/>
<path d="M24.8291 2.71204L23.5698 3.71983L26.7948 7.74955L28.0541 6.74176L24.8291 2.71204Z" fill="black"/>
<path d="M48.3871 16.9355C48.3871 15.5968 47.3064 14.5161 45.9677 14.5161C44.629 14.5161 43.5483 15.5968 43.5483 16.9355C43.5483 18.2742 44.629 19.3548 45.9677 19.3548C47.3064 19.3548 48.3871 18.2742 48.3871 16.9355ZM45.1612 16.9355C45.1612 16.4919 45.5241 16.129 45.9677 16.129C46.4112 16.129 46.7741 16.4919 46.7741 16.9355C46.7741 17.379 46.4112 17.7419 45.9677 17.7419C45.5241 17.7419 45.1612 17.379 45.1612 16.9355Z" fill="black"/>
<path d="M31.4516 5.64516C32.7903 5.64516 33.8709 4.56452 33.8709 3.22581C33.8709 1.8871 32.7903 0.80645 31.4516 0.80645C30.1129 0.80645 29.0322 1.8871 29.0322 3.22581C29.0322 4.56452 30.1129 5.64516 31.4516 5.64516ZM31.4516 2.41935C31.8951 2.41935 32.258 2.78226 32.258 3.22581C32.258 3.66935 31.8951 4.03226 31.4516 4.03226C31.008 4.03226 30.6451 3.66935 30.6451 3.22581C30.6451 2.78226 31.008 2.41935 31.4516 2.41935Z" fill="black"/>
<path d="M33.0224 7.81545L31.4922 8.32536L32.2978 10.743L33.828 10.2331L33.0224 7.81545Z" fill="black"/>
<path d="M45.161 28.2258H40.3223V29.8387H45.161V28.2258Z" fill="black"/>
<path d="M4.97578 34.3145C5.21771 34.6693 5.69352 34.7742 6.05642 34.5564L8.06449 33.371V49.1935C8.06449 49.6371 8.42739 50 8.87094 50H34.6774C35.1209 50 35.4838 49.6371 35.4838 49.1935V28.2258C35.4838 27.7822 35.1209 27.4193 34.6774 27.4193H18.0887L28.4516 21.2661L33.3306 25.6048C33.6371 25.879 34.0967 25.879 34.4032 25.6048L40 20.629C41.2258 19.5323 41.9355 17.9677 41.9355 16.3226C41.9355 13.9839 40.0403 12.0968 37.7096 12.0968C36.5887 12.0968 35.508 12.5403 34.7177 13.3387L33.8709 14.1855L33.0242 13.3387C31.7984 12.1048 29.9435 11.75 28.3548 12.4516L27.2822 10.8387C27.0403 10.4839 26.5645 10.379 26.2016 10.5968L21.7742 13.2258V12.9032C21.7742 10.6774 19.9677 8.87096 17.7419 8.87096C15.5161 8.87096 13.7096 10.6774 13.7096 12.9032V18.0161L13.6774 18.0323L9.87094 16.129C8.80642 15.5968 7.63707 15.3226 6.45159 15.3226C4.23384 15.3226 2.42739 17.1129 2.41933 19.3306C2.41933 21.0322 3.48384 22.5564 5.08868 23.129L0.395135 25.9113C0.0161023 26.1371 -0.11293 26.6371 0.112877 27.0161C0.112877 27.0322 0.129006 27.0403 0.13707 27.0484L4.97578 34.3064V34.3145ZM20.1613 48.379V29.0242H23.3871V48.379H20.1613ZM33.8709 48.379H25V29.0242H33.8709V48.379ZM18.5484 29.0242V48.379H9.67739V32.4032L15.3709 29.0242H18.5484ZM16.0967 18.4597L19.9355 24.4355L16.9032 26.2339L13.0564 20.2581L16.0887 18.4516L16.0967 18.4597ZM31.879 14.4677L33.2984 15.8871C33.6209 16.1935 34.1209 16.1935 34.4355 15.8871L35.8548 14.4677C36.879 13.4435 38.5322 13.4435 39.5564 14.4677C40.0484 14.9597 40.3225 15.621 40.3225 16.3145C40.3225 17.5 39.8145 18.629 38.9355 19.4113L33.8709 23.9113L29.9113 20.3952L31.8629 19.2339C32.2419 19.0081 32.3709 18.5081 32.1451 18.129C32.1451 18.1129 32.129 18.1048 32.1209 18.0968L29.2742 13.8306C30.1935 13.5564 31.1855 13.8064 31.879 14.4677ZM26.3629 12.3629L30.3064 18.2742L21.3226 23.6048L17.4838 17.629L26.3629 12.3548V12.3629ZM15.3226 12.8952C15.3226 11.5564 16.4032 10.4758 17.7419 10.4758C19.0806 10.4758 20.1613 11.5564 20.1613 12.8952V14.1774L15.3226 17.0484V12.8952ZM6.45159 21.7661C5.11288 21.7661 4.03223 20.6855 4.03223 19.3468C4.03223 18.0081 5.11288 16.9274 6.45159 16.9274C7.38707 16.9274 8.30642 17.1452 9.14513 17.5645L12.0242 19.0081L7.37094 21.7742H6.44352L6.45159 21.7661ZM11.6774 21.0887L15.5161 27.0645L5.88707 32.7822L1.94352 26.871L11.6774 21.0968V21.0887Z" fill="black"/>
</g>
<defs>
<clipPath id="clip0_173_721">
<rect width="50" height="50" fill="white"/>
</clipPath>
</defs>
</svg>
