<svg width="33" height="33" viewBox="0 0 33 33" fill="none" xmlns="http://www.w3.org/2000/svg">
<path d="M31.7617 3.98984H25.0019V1.51642C25.0019 1.3318 24.9285 1.15474 24.798 1.0242C24.6674 0.893652 24.4904 0.820313 24.3058 0.820312C24.1212 0.820313 23.9441 0.893652 23.8136 1.0242C23.683 1.15474 23.6097 1.3318 23.6097 1.51642V3.98984H10.0298V1.51642C10.0298 1.3318 9.95649 1.15474 9.82594 1.0242C9.6954 0.893652 9.51834 0.820313 9.33372 0.820312C9.1491 0.820313 8.97204 0.893652 8.8415 1.0242C8.71095 1.15474 8.63761 1.3318 8.63761 1.51642V3.98984H1.51544C1.33083 3.98984 1.15377 4.06319 1.02323 4.19373C0.892688 4.32427 0.819345 4.50133 0.819336 4.68594V31.31C0.819312 31.4014 0.837301 31.4919 0.872275 31.5764C0.90725 31.6608 0.958523 31.7376 1.02317 31.8022C1.08781 31.8669 1.16456 31.9181 1.24903 31.9531C1.33349 31.9881 1.42402 32.0061 1.51544 32.0061H31.7617C31.8532 32.0061 31.9437 31.9881 32.0282 31.9532C32.1127 31.9182 32.1894 31.8669 32.2541 31.8023C32.3187 31.7376 32.37 31.6609 32.4049 31.5764C32.4399 31.4919 32.4579 31.4014 32.4578 31.31V4.68594C32.4579 4.59452 32.4399 4.50399 32.4049 4.41953C32.3699 4.33506 32.3186 4.25831 32.254 4.19367C32.1894 4.12902 32.1126 4.07775 32.0281 4.04278C31.9437 4.0078 31.8531 3.98981 31.7617 3.98984ZM8.63761 5.38205V9.90809C8.63761 10.0927 8.71095 10.2698 8.8415 10.4003C8.97204 10.5309 9.1491 10.6042 9.33372 10.6042C9.51834 10.6042 9.6954 10.5309 9.82594 10.4003C9.95649 10.2698 10.0298 10.0927 10.0298 9.90809V5.38205H23.6097V9.90809C23.6097 10.0927 23.683 10.2698 23.8136 10.4003C23.9441 10.5309 24.1212 10.6042 24.3058 10.6042C24.4904 10.6042 24.6674 10.5309 24.798 10.4003C24.9285 10.2698 25.0019 10.0927 25.0019 9.90809V5.38205H31.0656V13.3172H2.21155V5.38205H8.63761ZM2.21155 30.6138V14.7095H31.0656V30.6138H2.21155Z" fill="black"/>
<path d="M22.966 16.9419L16.1902 24.9087L11.9394 20.1876C11.8783 20.1196 11.8043 20.0644 11.7218 20.025C11.6394 19.9857 11.5499 19.963 11.4586 19.9582C11.3674 19.9534 11.276 19.9666 11.1899 19.9971C11.1037 20.0276 11.0244 20.0748 10.9564 20.1359C10.8885 20.1971 10.8333 20.271 10.7939 20.3535C10.7546 20.436 10.7318 20.5254 10.727 20.6167C10.7173 20.801 10.7813 20.9817 10.9048 21.1189L15.6878 26.4314C15.7531 26.504 15.8328 26.562 15.922 26.6017C16.0111 26.6414 16.1076 26.6619 16.2051 26.6619H16.215C16.3142 26.6604 16.4119 26.6378 16.5017 26.5955C16.5914 26.5531 16.6711 26.4921 16.7354 26.4165L24.0264 17.8437C24.1458 17.703 24.2045 17.5207 24.1895 17.3368C24.1745 17.153 24.0872 16.9825 23.9467 16.863C23.8061 16.7435 23.6239 16.6847 23.44 16.6995C23.2561 16.7143 23.0856 16.8015 22.966 16.9419Z" fill="black"/>
</svg>
