<svg width="22" height="22" viewBox="0 0 22 22" fill="none" xmlns="http://www.w3.org/2000/svg">
<path d="M11 21C16.5228 21 21 16.5228 21 11C21 5.47715 16.5228 1 11 1C5.47715 1 1 5.47715 1 11C1 16.5228 5.47715 21 11 21Z" stroke="black" stroke-miterlimit="10"/>
<path d="M18.2407 3.75977L16.1719 5.82862" stroke="black" stroke-miterlimit="10"/>
<path d="M3.75879 18.2414L8.58611 13.4141" stroke="black" stroke-miterlimit="10"/>
<path d="M13.7728 10.6558H3.7583V12.7246H13.7728V10.6558Z" stroke="black" stroke-miterlimit="10"/>
<path d="M6.88721 10.6558V12.7246" stroke="black" stroke-miterlimit="10"/>
<path d="M15.8262 10.3101V13.0696" stroke="black" stroke-miterlimit="10"/>
<path d="M17.895 10.3101V13.0696" stroke="black" stroke-miterlimit="10"/>
<path d="M17.5509 9.96619V7.89733C17.5509 7.32646 17.0879 6.86345 16.516 6.86345H13.0679C13.8294 6.86345 14.4471 6.24574 14.4471 5.48422C14.4471 4.72269 13.8294 4.10498 13.0679 4.10498" stroke="black" stroke-miterlimit="10"/>
<path d="M16.172 9.96602V9.2764C16.172 8.70553 15.709 8.24252 15.137 8.24252H12.3786C11.8077 8.24252 11.3436 7.77951 11.3436 7.20864C11.3436 6.63777 11.8066 6.17476 12.3786 6.17476H11.3436H11.5157C10.6583 6.17476 9.96436 5.47969 9.96436 4.62339C9.96436 3.76709 10.6594 3.07202 11.5157 3.07202" stroke="black" stroke-miterlimit="10"/>
</svg>
