<svg width="26" height="21" viewBox="0 0 26 21" fill="none" xmlns="http://www.w3.org/2000/svg">
<g clip-path="url(#clip0_159_256)">
<path d="M-3.90634e-05 18.5C2.68996 18.79 5.37996 18.01 7.49996 16.34C7.14996 16.26 6.83996 16.26 6.52996 16.18C4.83996 15.8 3.44996 14.6 2.81996 12.98C2.78996 12.9 2.69996 12.79 2.76996 12.7C2.82996 12.63 2.93996 12.69 3.02996 12.7C3.64996 12.77 4.27996 12.74 4.88996 12.6C4.89996 12.49 4.81996 12.5 4.75996 12.48C3.28996 12.1 2.06996 11.09 1.42996 9.71999C1.09996 9.07999 0.929961 8.36999 0.909961 7.64999C0.899961 7.35999 0.909961 7.35999 1.17996 7.47999C1.80996 7.78999 2.49996 7.95999 3.19996 7.98999C2.87996 7.73999 2.56996 7.45999 2.28996 7.15999C1.49996 6.27999 1.02996 5.16999 0.949961 3.98999C0.879961 3.02999 1.06996 2.05999 1.49996 1.19999C1.58996 0.999993 1.67996 1.01999 1.79996 1.16999C2.61996 2.17999 3.58996 3.07999 4.64996 3.81999C6.47996 5.11999 8.58996 5.96999 10.81 6.31999C11.21 6.38999 11.61 6.39999 12.01 6.43999C12.21 6.45999 12.27 6.39999 12.23 6.18999C12.03 5.12999 12.17 4.02999 12.63 3.04999C13.33 1.42999 14.83 0.289993 16.58 0.0599926C18.14 -0.200007 19.73 0.309993 20.85 1.43999C21 1.60999 21.23 1.66999 21.44 1.59999C22.41 1.35999 23.34 0.979993 24.2 0.489993C24.25 0.469993 24.3 0.449993 24.34 0.429993C23.97 1.57999 23.22 2.55999 22.21 3.21999C22.69 3.21999 23.16 3.13999 23.61 2.98999C24.07 2.85999 24.52 2.69999 24.96 2.51999C25.02 2.58999 24.96 2.61999 24.94 2.65999C24.37 3.48999 23.68 4.23999 22.89 4.86999C22.79 4.94999 22.68 5.04999 22.56 5.12999C22.49 5.17999 22.46 5.26999 22.48 5.34999C22.51 6.25999 22.46 7.17999 22.32 8.07999C22.18 8.99999 21.96 9.89999 21.66 10.78C21.41 11.5 21.12 12.2 20.77 12.88C19.93 14.54 18.79 16.03 17.41 17.27C15.96 18.58 14.24 19.56 12.37 20.15C11.2 20.52 9.98996 20.74 8.75996 20.8C7.80996 20.86 6.86996 20.83 5.91996 20.72C4.57996 20.55 3.25996 20.18 2.01996 19.63C1.38996 19.35 0.769961 19.03 0.169961 18.67C0.0799609 18.64 -3.90634e-05 18.57 -0.0400391 18.48L-3.90634e-05 18.5Z" fill="black"/>
</g>
<defs>
<clipPath id="clip0_159_256">
<rect width="25.01" height="20.84" fill="white"/>
</clipPath>
</defs>
</svg>
