<svg width="25" height="25" viewBox="0 0 25 25" fill="none" xmlns="http://www.w3.org/2000/svg">
<g clip-path="url(#clip0_159_250)">
<path d="M25 12.5C25 5.59 19.4 0 12.5 0C5.59 0 0 5.6 0 12.5C0 18.65 4.48 23.88 10.55 24.84V16.14H7.37V12.49H10.55V9.73C10.3 7.31 12.05 5.14 14.48 4.88C14.74 4.85 15.01 4.85 15.27 4.87C16.21 4.88 17.14 4.97 18.07 5.12V8.19H16.49C15.5 8.06 14.59 8.77 14.46 9.76C14.44 9.89 14.44 10.01 14.46 10.14V12.49H17.93L17.41 16.14H14.46V24.84C20.54 23.88 25.01 18.64 25.01 12.49L25 12.5Z" fill="black"/>
</g>
<defs>
<clipPath id="clip0_159_250">
<rect width="25" height="24.85" fill="white"/>
</clipPath>
</defs>
</svg>
