<svg width="25" height="25" viewBox="0 0 25 25" fill="none" xmlns="http://www.w3.org/2000/svg">
<g clip-path="url(#clip0_159_252)">
<path d="M12.5 2.24999C15.84 2.24999 16.25 2.24999 17.5 2.32999C18.29 2.32999 19.08 2.47999 19.83 2.74999C20.92 3.16999 21.78 4.02999 22.21 5.12999C22.5 5.88999 22.67 6.68999 22.68 7.50999C22.74 8.75999 22.76 9.21999 22.76 12.51C22.76 15.8 22.76 16.26 22.68 17.51C22.68 18.3 22.53 19.09 22.26 19.84C21.84 20.93 20.98 21.79 19.88 22.22C19.13 22.49 18.35 22.64 17.55 22.64C16.3 22.7 15.84 22.72 12.55 22.72C9.26 22.72 8.8 22.72 7.55 22.64C6.73 22.66 5.91 22.53 5.12 22.26C4.03 21.84 3.17 20.98 2.75 19.88C2.47 19.12 2.33 18.32 2.33 17.5C2.27 16.25 2.25 15.79 2.25 12.5C2.25 9.20999 2.25 8.74999 2.33 7.49999C2.33 6.68999 2.48 5.88999 2.75 5.11999C3.17 4.02999 4.03 3.16999 5.13 2.73999C5.89 2.45999 6.69 2.31999 7.51 2.31999C8.76 2.25999 9.22 2.23999 12.51 2.23999M12.51 -0.0100098C9.11 -0.0100098 8.69 -0.0100098 7.36 0.0699902C6.32 0.0899902 5.3 0.28999 4.32 0.63999C3.48 0.94999 2.73 1.44999 2.11 2.08999C1.47 2.70999 0.97 3.46999 0.66 4.29999C0.29 5.28999 0.1 6.30999 0.08 7.34999C0 8.67999 0 9.09999 0 12.5C0 15.9 0 16.33 0.08 17.65C0.1 18.69 0.3 19.71 0.65 20.69C0.96 21.53 1.46 22.28 2.1 22.9C2.72 23.54 3.48 24.04 4.31 24.35C5.28 24.71 6.31 24.9 7.35 24.93C8.68 25 9.1 25 12.5 25C15.9 25 16.33 25 17.65 24.92C18.69 24.9 19.71 24.7 20.69 24.34C22.37 23.68 23.69 22.35 24.35 20.68C24.71 19.71 24.9 18.68 24.93 17.64C24.93 16.31 25.01 15.89 25.01 12.49C25.01 9.08999 25.01 8.66999 24.93 7.33999C24.91 6.29999 24.71 5.27999 24.35 4.29999C24.04 3.45999 23.54 2.70999 22.9 2.08999C22.28 1.44999 21.52 0.94999 20.69 0.63999C19.72 0.27999 18.69 0.0899902 17.65 0.0699902C16.33 -0.0100098 15.9 -0.0100098 12.5 -0.0100098H12.51Z" fill="black"/>
<path d="M12.5001 6.08002C8.95007 6.08002 6.07007 8.96002 6.07007 12.51C6.07007 16.06 8.95007 18.94 12.5001 18.94C16.0501 18.94 18.9301 16.06 18.9301 12.51C18.9301 8.96002 16.0501 6.08002 12.5101 6.08002H12.5001ZM12.5001 16.67C10.2001 16.67 8.34007 14.81 8.34007 12.51C8.34007 10.21 10.2001 8.35002 12.5001 8.35002C14.8001 8.35002 16.6601 10.21 16.6601 12.51C16.6601 14.81 14.8001 16.67 12.5001 16.67Z" fill="black"/>
<path d="M19.1699 7.32001C19.9983 7.32001 20.6699 6.64843 20.6699 5.82001C20.6699 4.99158 19.9983 4.32001 19.1699 4.32001C18.3415 4.32001 17.6699 4.99158 17.6699 5.82001C17.6699 6.64843 18.3415 7.32001 19.1699 7.32001Z" fill="black"/>
</g>
<defs>
<clipPath id="clip0_159_252">
<rect width="25" height="25" fill="white"/>
</clipPath>
</defs>
</svg>
