<svg width="22" height="12" viewBox="0 0 22 12" fill="none" xmlns="http://www.w3.org/2000/svg">
<path d="M21.5413 8.3764C21.445 8.43134 21.3387 8.46674 21.2287 8.48058C21.1186 8.49442 21.0069 8.48641 20.9 8.45703C20.793 8.42765 20.6929 8.37746 20.6054 8.30934C20.5178 8.24122 20.4446 8.15651 20.3898 8.06005L18.3863 4.55912C17.2215 5.3467 15.9366 5.94001 14.5816 6.31591L15.2006 10.0298C15.2189 10.1392 15.2154 10.251 15.1904 10.359C15.1655 10.467 15.1194 10.569 15.055 10.6592C14.9905 10.7494 14.909 10.826 14.8149 10.8847C14.7208 10.9433 14.6161 10.9829 14.5068 11.001C14.4618 11.0084 14.4163 11.0123 14.3707 11.0126C14.1712 11.0123 13.9782 10.9413 13.826 10.8121C13.6739 10.683 13.5725 10.5041 13.5398 10.3072L12.9314 6.66073C11.6482 6.83929 10.3466 6.83929 9.06347 6.66073L8.45503 10.3072C8.42229 10.5044 8.32056 10.6836 8.16799 10.8128C8.01541 10.942 7.82191 11.0128 7.62197 11.0126C7.57534 11.0124 7.5288 11.0086 7.48278 11.001C7.37343 10.9829 7.26873 10.9433 7.17466 10.8847C7.0806 10.826 6.99902 10.7494 6.93458 10.6592C6.87014 10.569 6.82411 10.467 6.79912 10.359C6.77412 10.251 6.77066 10.1392 6.78892 10.0298L7.41108 6.31591C6.05671 5.93882 4.77252 5.34444 3.60856 4.55596L1.61135 8.06005C1.55596 8.15657 1.4821 8.24123 1.39399 8.30921C1.30587 8.37718 1.20524 8.42714 1.09782 8.45622C0.990403 8.4853 0.878309 8.49294 0.767939 8.4787C0.65757 8.46446 0.551085 8.42862 0.454566 8.37323C0.358047 8.31784 0.273382 8.24398 0.205407 8.15587C0.137432 8.06776 0.0874778 7.96712 0.0583959 7.85971C0.0293139 7.75229 0.0216741 7.64019 0.0359127 7.52982C0.0501512 7.41945 0.0859892 7.31297 0.141381 7.21645L2.25037 3.52571C1.50959 2.88572 0.828403 2.17983 0.215195 1.41672C0.138722 1.33134 0.0804515 1.23127 0.0439405 1.12261C0.00742954 1.01396 -0.00655604 0.899004 0.00283779 0.784766C0.0122316 0.670528 0.0448078 0.559403 0.0985775 0.458174C0.152347 0.356944 0.226182 0.267734 0.315576 0.195989C0.404971 0.124244 0.508048 0.0714697 0.618516 0.0408869C0.728985 0.010304 0.844527 0.0025542 0.95809 0.018111C1.07165 0.0336678 1.18086 0.0722048 1.27903 0.131369C1.3772 0.190534 1.46229 0.269084 1.5291 0.362227C3.27956 2.52816 6.34182 5.10746 10.9964 5.10746C15.6509 5.10746 18.7132 2.525 20.4636 0.362227C20.5297 0.267178 20.6146 0.186736 20.713 0.125906C20.8115 0.0650756 20.9214 0.0251584 21.036 0.00863783C21.1505 -0.00788272 21.2673 -0.000653311 21.3789 0.0298763C21.4906 0.0604058 21.5947 0.113583 21.6849 0.186098C21.7751 0.258613 21.8495 0.348916 21.9033 0.451388C21.9571 0.55386 21.9892 0.666309 21.9977 0.781739C22.0062 0.897169 21.9909 1.01311 21.9526 1.12235C21.9144 1.23159 21.8541 1.33179 21.7754 1.41672C21.1622 2.17983 20.481 2.88572 19.7402 3.52571L21.8492 7.21645C21.9058 7.31266 21.9428 7.41915 21.958 7.52974C21.9731 7.64034 21.9662 7.75284 21.9375 7.86073C21.9089 7.96863 21.8591 8.06976 21.7911 8.15828C21.7231 8.24679 21.6382 8.32093 21.5413 8.3764Z" fill="black"/>
</svg>
