<?xml version="1.0" encoding="UTF-8" standalone="no"?>
<svg
   xmlns:dc="http://purl.org/dc/elements/1.1/"
   xmlns:cc="http://creativecommons.org/ns#"
   xmlns:rdf="http://www.w3.org/1999/02/22-rdf-syntax-ns#"
   xmlns:svg="http://www.w3.org/2000/svg"
   xmlns="http://www.w3.org/2000/svg"
   viewBox="0 0 27.201172 19.431314"
   height="19.431314"
   width="27.201172"
   xml:space="preserve"
   id="svg2"
   version="1.1"><metadata
     id="metadata8"><rdf:RDF><cc:Work
         rdf:about=""><dc:format>image/svg+xml</dc:format><dc:type
           rdf:resource="http://purl.org/dc/dcmitype/StillImage" /></cc:Work></rdf:RDF></metadata><defs
     id="defs6" /><g
     transform="matrix(1.3333333,0,0,-1.3333333,0,19.431315)"
     id="g10"><g
       id="g12"><g
         transform="translate(9.168945,-0.199951)"
         id="g14"><path
           id="path16"
           style="fill:#000000;fill-opacity:1;fill-rule:nonzero;stroke:none"
           d="m 1.869185,1.434645 c 0,-0.46192 -0.374265,-0.834593 -0.834592,-0.834593 v -0.4 c 0.680705,0 1.234592,0.551224 1.234592,1.234593 z M 1.034593,0.600052 C 0.574534,0.600052 0.2,0.974586 0.2,1.434645 H -0.2 C -0.2,0.753672 0.35362,0.200052 1.034593,0.200052 Z M 0.2,1.434645 c 0,0.46006 0.374534,0.834593 0.834593,0.834593 v 0.4 C 0.35362,2.669238 -0.2,2.115618 -0.2,1.434645 Z m 0.834593,0.834593 c 0.460059,0 0.834592,-0.374533 0.834592,-0.834593 h 0.4 c 0,0.680973 -0.553619,1.234593 -1.234592,1.234593 z" /></g><g
         transform="translate(9.168945,-0.199951)"
         id="g18"><path
           id="path20"
           style="fill:#000000;fill-opacity:1;fill-rule:nonzero;stroke:none"
           d="M 2.069185,1.434645 C 2.069185,0.862 1.605109,0.400052 1.034593,0.400052 0.464077,0.400052 0,0.864129 0,1.434645 c 0,0.570517 0.464077,1.034593 1.034593,1.034593 0.570516,0 1.034592,-0.464076 1.034592,-1.034593 z" /></g></g><g
       id="g22"><g
         transform="translate(5.943359,3.280273)"
         id="g24"><path
           id="path26"
           style="fill:#000000;fill-opacity:1;fill-rule:nonzero;stroke:none"
           d="m 7.70463,0.604775 0.141421,0.141422 -1.65e-4,1.64e-4 z m -6.893028,0 -0.141254,0.141589 -1.67e-4,-1.67e-4 z m 7.565727,0 0.141421,-0.141421 z m -0.33635,0.0595 c -0.071169,0 -0.13929,0.026284 -0.194928,0.081922 L 7.563209,0.463354 C 7.694904,0.331658 7.865208,0.264275 8.040979,0.264275 Z M 7.845886,0.746361 C 6.892901,1.697131 5.622257,2.222551 4.26876,2.222551 v -0.4 c 1.247886,0 2.416837,-0.483627 3.294613,-1.359361 z M 4.26876,2.222551 c -1.352969,0 -2.657829,-0.537822 -3.598412,-1.476187 L 0.952857,0.463187 C 1.817489,1.32578 3.020345,1.822551 4.26876,1.822551 Z M 0.670181,0.746197 c -0.1071,-0.1071 -0.282756,-0.1071 -0.389856,0 L -0.002518,0.463354 c 0.26331,-0.26331 0.692232,-0.26331 0.955542,0 z m -0.389856,0 c -0.1071,0.1071 -0.1071,0.282755 0,0.389855 l -0.282843,0.282843 c -0.263309,-0.26331 -0.263309,-0.692231 0,-0.955541 z m 0,0.389855 C 1.321497,2.177224 2.775419,2.774121 4.26876,2.774121 v 0.4 c -1.597665,0 -3.153854,-0.637802 -4.271278,-1.755226 z M 4.26876,2.774121 c 1.492954,0 2.910804,-0.581725 3.967148,-1.638069 L 8.51875,1.418895 C 7.386696,2.550949 5.866812,3.174121 4.26876,3.174121 Z M 8.235908,1.136052 c 0.107099,-0.1071 0.107099,-0.282755 0,-0.389855 L 8.51875,0.463354 c 0.26331,0.26331 0.26331,0.692231 0,0.955541 z m 0,-0.389855 C 8.180269,0.690559 8.112148,0.664275 8.040979,0.664275 v -0.4 c 0.175771,0 0.346075,0.067383 0.477771,0.199079 z" /></g><g
         transform="translate(5.943359,3.280273)"
         id="g28"><path
           id="path30"
           style="fill:#000000;fill-opacity:1;fill-rule:nonzero;stroke:none"
           d="m 8.040979,0.464275 c -0.12347,0 -0.242683,0.046834 -0.336349,0.1405 -0.915381,0.913252 -2.135178,1.417776 -3.43587,1.417776 -1.300692,0 -2.55455,-0.517297 -3.457158,-1.417776 -0.185205,-0.185205 -0.487493,-0.185205 -0.672698,0 -0.185205,0.185205 -0.185205,0.487494 0,0.672699 1.079297,1.079297 2.584353,1.696647 4.129856,1.696647 1.545503,0 3.01437,-0.602448 4.108569,-1.696647 0.185204,-0.185205 0.185204,-0.487494 0,-0.672699 -0.093667,-0.093666 -0.21288,-0.1405 -0.33635,-0.1405 z" /></g></g><g
       id="g32"><g
         transform="translate(3.11377,6.107178)"
         id="g34"><path
           id="path36"
           style="fill:#000000;fill-opacity:1;fill-rule:nonzero;stroke:none"
           d="m 0.475271,0.466419 v -0.2 h 0.2 v 0.2 z M 0.141051,0.60479 0.284098,0.744586 0.282472,0.746212 Z M 0.136793,1.277489 0.27902,1.136878 l 1.68e-4,1.69e-4 z m 13.901012,0 -0.142313,-0.140524 8.5e-5,-8.7e-5 z m -0.676956,-0.668441 0.14304,0.139789 -8.1e-4,8.19e-4 z m -12.5471,0 0.141424,-0.141424 8.06e-4,8.16e-4 z m -0.338478,-0.1405 v 0.2 h -0.2 v -0.2 z m 0,0.197872 c -0.072317,0 -0.140514,0.02631 -0.191183,0.078157 L -0.001987,0.465004 C 0.130421,0.329518 0.304906,0.266419 0.475271,0.266419 Z M 0.282472,0.746212 C 0.173484,0.8552 0.172713,1.029349 0.27902,1.136878 L -0.005434,1.4181 C -0.269537,1.150961 -0.261793,0.724791 -3.7e-4,0.463369 Z M 0.279188,1.137047 C 2.078178,2.961052 4.500297,3.96626 7.097943,3.96626 v 0.4 c -2.703046,0 -5.22824,-1.046949 -7.103544,-2.94833 z M 7.097943,3.96626 c 2.597114,0 4.996024,-1.004835 6.797549,-2.829295 l 0.284626,0.281048 C 12.303089,3.318938 9.801522,4.36626 7.097943,4.36626 Z M 13.895577,1.136878 C 14.0029,1.028322 14.001948,0.85479 13.892937,0.747018 l 0.281222,-0.284455 c 0.265656,0.262637 0.26896,0.689426 0.0059,0.955537 z m -0.0026,-0.38986 C 13.783921,0.639241 13.608903,0.641376 13.503887,0.748835 L 13.217812,0.469262 C 13.478949,0.202053 13.908506,0.19993 14.174159,0.462563 L 13.892937,0.747018 Z M 13.503079,0.749656 C 11.804796,2.467535 9.528881,3.41469 7.097943,3.41469 v -0.4 c 2.324784,0 4.498044,-0.904895 6.120676,-2.54625 z M 7.097943,3.41469 C 4.66752,3.41469 2.370161,2.467897 0.671519,0.749656 L 0.955979,0.46844 C 2.578253,2.109432 4.772645,3.01469 7.097943,3.01469 Z M 0.672328,0.750469 C 0.617348,0.69549 0.547391,0.668548 0.475271,0.668548 v -0.4 c 0.174821,0 0.347545,0.066725 0.4799,0.199079 z M 0.275271,0.468548 V 0.466419 h 0.4 v 0.002129 z" /></g><g
         transform="translate(3.11377,6.107178)"
         id="g38"><path
           id="path40"
           style="fill:#000000;fill-opacity:1;fill-rule:nonzero;stroke:none"
           d="m 0.475271,0.466419 c -0.121341,0 -0.242682,0.044705 -0.33422,0.138371 -0.185205,0.185205 -0.189463,0.485365 -0.004258,0.672699 1.837148,1.862693 4.310805,2.888771 6.96115,2.888771 2.650347,0 5.100585,-1.026078 6.939862,-2.888771 C 14.223009,1.090155 14.220881,0.789995 14.033547,0.60479 13.846214,0.419586 13.543925,0.421715 13.360849,0.609048 11.700392,2.288665 9.475804,3.21469 7.097943,3.21469 4.720083,3.21469 2.474207,2.288665 0.813749,0.609048 0.720082,0.515381 0.598741,0.468548 0.475271,0.468548 Z" /></g></g><g
       id="g42"><g
         transform="translate(0.200195,9.015625)"
         id="g44"><path
           id="path46"
           style="fill:#000000;fill-opacity:1;fill-rule:nonzero;stroke:none"
           d="m 0.476854,0.470204 h 0.2 v 0.2 h -0.2 z m -0.33422,0.813198 0.139808,-0.143022 9.84e-4,9.75e-4 z m 19.716871,0 -0.14085,-0.141991 2.4e-4,-2.36e-4 z m 0.0043,-0.672698 0.141432,-0.14143 0.0016,0.001644 -0.143038,0.139786 z m -0.672697,0 0.142225,0.140627 -0.0014,0.001406 -0.140808,-0.142033 z M 0.811074,0.606447 0.950864,0.463406 0.951883,0.464415 Z M 0.476854,0.468075 h -0.2 v -0.2 h 0.2 z m 0,0.202129 c -0.072119,0 -0.142077,0.026942 -0.197057,0.081922 L -0.003045,0.469283 C 0.129309,0.336928 0.302033,0.270204 0.476854,0.270204 Z M 0.279797,0.752126 C 0.172973,0.85895 0.172955,1.03336 0.282439,1.140383 L 0.002828,1.426422 C -0.266613,1.163035 -0.266631,0.732868 -0.003045,0.469283 Z M 0.283426,1.141355 C 2.896547,3.731388 6.350029,5.15791 10.011713,5.15791 v 0.4 c -3.7678,0 -7.3223,-1.468634 -10.009872,-4.13246 z m 9.728287,4.016555 c 3.661407,0 7.095778,-1.426323 9.706944,-4.016498 l 0.281698,0.283981 C 17.315086,4.089077 13.779791,5.55791 10.011713,5.55791 Z M 19.718895,1.141175 C 19.82687,1.034426 19.828028,0.86029 19.720724,0.750491 L 20.0068,0.470918 c 0.258848,0.264868 0.260008,0.691051 -0.0067,0.954712 z m 0.0034,-0.389049 C 19.613621,0.643405 19.440735,0.642651 19.333282,0.751324 l -0.284435,-0.28124 c 0.267214,-0.270251 0.694647,-0.262491 0.956337,-8.01e-4 l -0.282842,0.282843 z m -0.390469,6.11e-4 c -2.506466,2.484858 -5.816098,3.855732 -9.31803,3.855732 v -0.4 c 3.395354,0 6.604083,-1.328434 9.036414,-3.739797 z m -9.31803,3.855732 c -3.501659,0 -6.834787,-1.372809 -9.343577,-3.859991 L 0.951883,0.464415 c 2.434264,2.413298 5.666332,3.744054 9.06196,3.744054 v 0.4 z M 0.671288,0.749484 C 0.614819,0.694298 0.545713,0.668075 0.476854,0.668075 v -0.4 c 0.173823,0 0.343142,0.067443 0.474007,0.195334 z M 0.676854,0.468075 v 0.002129 h -0.4 V 0.468075 Z" /></g><g
         transform="translate(0.200195,9.015625)"
         id="g48"><path
           id="path50"
           style="fill:#000000;fill-opacity:1;fill-rule:nonzero;stroke:none"
           d="m 0.476854,0.470204 c -0.12347,0 -0.244811,0.046833 -0.338478,0.1405 -0.185205,0.185205 -0.185205,0.487493 0.004258,0.672698 2.650345,2.62693 6.154337,4.074508 9.869079,4.074508 3.714743,0 7.199575,-1.447578 9.847792,-4.074508 0.187334,-0.185205 0.187334,-0.485364 0.0043,-0.672698 -0.185206,-0.185205 -0.485363,-0.189462 -0.672697,0 -2.469399,2.448111 -5.72858,3.797765 -9.177222,3.797765 -3.448644,0 -6.731241,-1.351783 -9.202769,-3.802022 C 0.717407,0.514908 0.598195,0.468075 0.476854,0.468075 Z" /></g></g></g></svg>